G75*
G70*
%OFA0B0*%
%FSLAX24Y24*%
%IPPOS*%
%LPD*%
%AMOC8*
5,1,8,0,0,1.08239X$1,22.5*
%
%ADD10R,0.0315X0.0315*%
%ADD11R,0.0354X0.0276*%
%ADD12R,0.0551X0.0157*%
%ADD13R,0.0748X0.0748*%
%ADD14R,0.0591X0.0118*%
%ADD15R,0.0276X0.0354*%
%ADD16R,0.2480X0.0846*%
%ADD17R,0.0591X0.0472*%
%ADD18R,0.0354X0.0472*%
%ADD19R,0.0433X0.0394*%
%ADD20R,0.0394X0.0433*%
%ADD21R,0.0669X0.0591*%
%ADD22R,0.0315X0.0591*%
%ADD23R,0.0591X0.0591*%
%ADD24R,0.0217X0.0472*%
%ADD25C,0.0059*%
D10*
X003655Y001899D03*
X004245Y001899D03*
D11*
X002998Y001946D03*
X002998Y002457D03*
D12*
X002288Y003154D03*
X002288Y003409D03*
X002288Y003665D03*
X002288Y003921D03*
X002288Y004177D03*
D13*
X001245Y004138D03*
X001245Y003193D03*
X001245Y002110D03*
X001245Y005221D03*
D14*
X007182Y005109D03*
X007182Y005345D03*
X007182Y005582D03*
X007182Y005818D03*
X007182Y006054D03*
X007182Y006290D03*
X007182Y006526D03*
X007182Y006763D03*
X007182Y006999D03*
X007182Y007235D03*
X007182Y007471D03*
X007182Y007708D03*
X007182Y007944D03*
X007182Y008180D03*
X007182Y008416D03*
X007182Y008652D03*
X007182Y008889D03*
X007182Y009125D03*
X007182Y009361D03*
X007182Y009597D03*
X007182Y009834D03*
X007182Y010070D03*
X007182Y004873D03*
X007182Y004637D03*
X007182Y004401D03*
X007182Y004164D03*
X007182Y003928D03*
D15*
X004185Y004290D03*
X003673Y004290D03*
X003675Y004736D03*
X004187Y004736D03*
X004166Y007109D03*
X004177Y007568D03*
X003665Y007568D03*
X003654Y007109D03*
X003679Y008050D03*
X004191Y008050D03*
X004196Y008517D03*
X003684Y008517D03*
X003688Y008965D03*
X004200Y008965D03*
X002891Y009002D03*
X002380Y009002D03*
X002380Y008542D03*
X002891Y008542D03*
X003768Y011472D03*
X004280Y011472D03*
X016880Y001885D03*
X017392Y001885D03*
D16*
X002082Y010339D03*
X002082Y011973D03*
D17*
X002175Y009539D03*
X003316Y009539D03*
D18*
X001769Y008583D03*
X001021Y008583D03*
X001395Y009528D03*
D19*
X003661Y010872D03*
X004331Y010872D03*
X004345Y012058D03*
X003675Y012058D03*
X003575Y006535D03*
X004245Y006535D03*
X004264Y005956D03*
X003595Y005956D03*
X003591Y005367D03*
X004260Y005367D03*
D20*
X004149Y009459D03*
X004149Y010128D03*
D21*
X013770Y009764D03*
X013770Y012067D03*
X019085Y012067D03*
X018967Y006185D03*
D22*
X017569Y006256D03*
X017136Y006256D03*
X016703Y006256D03*
X016270Y006256D03*
X015837Y006256D03*
X015404Y006256D03*
X014971Y006256D03*
X014538Y006256D03*
D23*
X013929Y006143D03*
D24*
X004323Y003686D03*
X003575Y003686D03*
X003575Y002663D03*
X003949Y002663D03*
X004323Y002663D03*
D25*
X016248Y003015D02*
X016466Y003015D01*
X016466Y002955D01*
X016248Y002955D01*
X016248Y003015D01*
X016248Y003013D02*
X016466Y003013D01*
X016466Y003212D02*
X016248Y003212D01*
X016466Y003212D02*
X016466Y003152D01*
X016248Y003152D01*
X016248Y003212D01*
X016248Y003210D02*
X016466Y003210D01*
X016466Y003409D02*
X016248Y003409D01*
X016466Y003409D02*
X016466Y003349D01*
X016248Y003349D01*
X016248Y003409D01*
X016248Y003407D02*
X016466Y003407D01*
X016466Y003606D02*
X016248Y003606D01*
X016466Y003606D02*
X016466Y003546D01*
X016248Y003546D01*
X016248Y003606D01*
X016248Y003604D02*
X016466Y003604D01*
X016466Y003802D02*
X016248Y003802D01*
X016466Y003802D02*
X016466Y003742D01*
X016248Y003742D01*
X016248Y003802D01*
X016248Y003800D02*
X016466Y003800D01*
X016466Y003999D02*
X016248Y003999D01*
X016466Y003999D02*
X016466Y003939D01*
X016248Y003939D01*
X016248Y003999D01*
X016248Y003997D02*
X016466Y003997D01*
X016466Y004196D02*
X016248Y004196D01*
X016466Y004196D02*
X016466Y004136D01*
X016248Y004136D01*
X016248Y004196D01*
X016248Y004194D02*
X016466Y004194D01*
X016466Y004393D02*
X016248Y004393D01*
X016466Y004393D02*
X016466Y004333D01*
X016248Y004333D01*
X016248Y004393D01*
X016248Y004391D02*
X016466Y004391D01*
X016564Y004708D02*
X016624Y004708D01*
X016624Y004490D01*
X016564Y004490D01*
X016564Y004708D01*
X016564Y004548D02*
X016624Y004548D01*
X016624Y004606D02*
X016564Y004606D01*
X016564Y004664D02*
X016624Y004664D01*
X016760Y004708D02*
X016820Y004708D01*
X016820Y004490D01*
X016760Y004490D01*
X016760Y004708D01*
X016760Y004548D02*
X016820Y004548D01*
X016820Y004606D02*
X016760Y004606D01*
X016760Y004664D02*
X016820Y004664D01*
X016957Y004708D02*
X017017Y004708D01*
X017017Y004490D01*
X016957Y004490D01*
X016957Y004708D01*
X016957Y004548D02*
X017017Y004548D01*
X017017Y004606D02*
X016957Y004606D01*
X016957Y004664D02*
X017017Y004664D01*
X017154Y004708D02*
X017214Y004708D01*
X017214Y004490D01*
X017154Y004490D01*
X017154Y004708D01*
X017154Y004548D02*
X017214Y004548D01*
X017214Y004606D02*
X017154Y004606D01*
X017154Y004664D02*
X017214Y004664D01*
X017351Y004708D02*
X017411Y004708D01*
X017411Y004490D01*
X017351Y004490D01*
X017351Y004708D01*
X017351Y004548D02*
X017411Y004548D01*
X017411Y004606D02*
X017351Y004606D01*
X017351Y004664D02*
X017411Y004664D01*
X017548Y004708D02*
X017608Y004708D01*
X017608Y004490D01*
X017548Y004490D01*
X017548Y004708D01*
X017548Y004548D02*
X017608Y004548D01*
X017608Y004606D02*
X017548Y004606D01*
X017548Y004664D02*
X017608Y004664D01*
X017745Y004708D02*
X017805Y004708D01*
X017805Y004490D01*
X017745Y004490D01*
X017745Y004708D01*
X017745Y004548D02*
X017805Y004548D01*
X017805Y004606D02*
X017745Y004606D01*
X017745Y004664D02*
X017805Y004664D01*
X017942Y004708D02*
X018002Y004708D01*
X018002Y004490D01*
X017942Y004490D01*
X017942Y004708D01*
X017942Y004548D02*
X018002Y004548D01*
X018002Y004606D02*
X017942Y004606D01*
X017942Y004664D02*
X018002Y004664D01*
X018099Y004393D02*
X018317Y004393D01*
X018317Y004333D01*
X018099Y004333D01*
X018099Y004393D01*
X018099Y004391D02*
X018317Y004391D01*
X018317Y004196D02*
X018099Y004196D01*
X018317Y004196D02*
X018317Y004136D01*
X018099Y004136D01*
X018099Y004196D01*
X018099Y004194D02*
X018317Y004194D01*
X018317Y003999D02*
X018099Y003999D01*
X018317Y003999D02*
X018317Y003939D01*
X018099Y003939D01*
X018099Y003999D01*
X018099Y003997D02*
X018317Y003997D01*
X018317Y003802D02*
X018099Y003802D01*
X018317Y003802D02*
X018317Y003742D01*
X018099Y003742D01*
X018099Y003802D01*
X018099Y003800D02*
X018317Y003800D01*
X018317Y003606D02*
X018099Y003606D01*
X018317Y003606D02*
X018317Y003546D01*
X018099Y003546D01*
X018099Y003606D01*
X018099Y003604D02*
X018317Y003604D01*
X018317Y003409D02*
X018099Y003409D01*
X018317Y003409D02*
X018317Y003349D01*
X018099Y003349D01*
X018099Y003409D01*
X018099Y003407D02*
X018317Y003407D01*
X018317Y003212D02*
X018099Y003212D01*
X018317Y003212D02*
X018317Y003152D01*
X018099Y003152D01*
X018099Y003212D01*
X018099Y003210D02*
X018317Y003210D01*
X018317Y003015D02*
X018099Y003015D01*
X018317Y003015D02*
X018317Y002955D01*
X018099Y002955D01*
X018099Y003015D01*
X018099Y003013D02*
X018317Y003013D01*
X018002Y002858D02*
X017942Y002858D01*
X018002Y002858D02*
X018002Y002640D01*
X017942Y002640D01*
X017942Y002858D01*
X017942Y002698D02*
X018002Y002698D01*
X018002Y002756D02*
X017942Y002756D01*
X017942Y002814D02*
X018002Y002814D01*
X017805Y002858D02*
X017745Y002858D01*
X017805Y002858D02*
X017805Y002640D01*
X017745Y002640D01*
X017745Y002858D01*
X017745Y002698D02*
X017805Y002698D01*
X017805Y002756D02*
X017745Y002756D01*
X017745Y002814D02*
X017805Y002814D01*
X017608Y002858D02*
X017548Y002858D01*
X017608Y002858D02*
X017608Y002640D01*
X017548Y002640D01*
X017548Y002858D01*
X017548Y002698D02*
X017608Y002698D01*
X017608Y002756D02*
X017548Y002756D01*
X017548Y002814D02*
X017608Y002814D01*
X017411Y002858D02*
X017351Y002858D01*
X017411Y002858D02*
X017411Y002640D01*
X017351Y002640D01*
X017351Y002858D01*
X017351Y002698D02*
X017411Y002698D01*
X017411Y002756D02*
X017351Y002756D01*
X017351Y002814D02*
X017411Y002814D01*
X017214Y002858D02*
X017154Y002858D01*
X017214Y002858D02*
X017214Y002640D01*
X017154Y002640D01*
X017154Y002858D01*
X017154Y002698D02*
X017214Y002698D01*
X017214Y002756D02*
X017154Y002756D01*
X017154Y002814D02*
X017214Y002814D01*
X017017Y002858D02*
X016957Y002858D01*
X017017Y002858D02*
X017017Y002640D01*
X016957Y002640D01*
X016957Y002858D01*
X016957Y002698D02*
X017017Y002698D01*
X017017Y002756D02*
X016957Y002756D01*
X016957Y002814D02*
X017017Y002814D01*
X016820Y002858D02*
X016760Y002858D01*
X016820Y002858D02*
X016820Y002640D01*
X016760Y002640D01*
X016760Y002858D01*
X016760Y002698D02*
X016820Y002698D01*
X016820Y002756D02*
X016760Y002756D01*
X016760Y002814D02*
X016820Y002814D01*
X016624Y002858D02*
X016564Y002858D01*
X016624Y002858D02*
X016624Y002640D01*
X016564Y002640D01*
X016564Y002858D01*
X016564Y002698D02*
X016624Y002698D01*
X016624Y002756D02*
X016564Y002756D01*
X016564Y002814D02*
X016624Y002814D01*
M02*
