%
M48
M72
T01C0.0120
%
T01
X3946Y2222
X2926Y3122
X3286Y4202
X2806Y4262
X4546Y4442
X4786Y3962
X5146Y3602
X6646Y4442
X6406Y4742
X6646Y5222
X7726Y4742
X7966Y4442
X8806Y4682
X9106Y4922
X9886Y4442
X10006Y5042
X11086Y4922
X11986Y5402
X12406Y4922
X12706Y5162
X13846Y4802
X14206Y4802
X13786Y4442
X13786Y4082
X15346Y4022
X15886Y4082
X15646Y4442
X16366Y5102
X16366Y5462
X16666Y5702
X15886Y5582
X15166Y5702
X13666Y7082
X12646Y7442
X12346Y7202
X11806Y7202
X10546Y7922
X11326Y8342
X13066Y9122
X13846Y8342
X14146Y8042
X15826Y7682
X16126Y7922
X16186Y7202
X17086Y6962
X18406Y5762
X17746Y5462
X17446Y5222
X17926Y5042
X18526Y4922
X18886Y4562
X18646Y4022
X17806Y4022
X17446Y4022
X16966Y4202
X18646Y3062
X18046Y2402
X17566Y2342
X15226Y2162
X14926Y2582
X14926Y2942
X12706Y2402
X11626Y2942
X11626Y3302
X11206Y3002
X9046Y4202
X7846Y5102
X8866Y5702
X9226Y6062
X9706Y5942
X10906Y5942
X11386Y5942
X7726Y8582
X7726Y9302
X7726Y9662
X6646Y9602
X6646Y9122
X6646Y8762
X6286Y8402
X4606Y8102
X4546Y7682
X5566Y6962
X5926Y6842
X5866Y6182
X5146Y6182
X4726Y5402
X3346Y8342
X3286Y8942
X2806Y9422
X1786Y9062
X1426Y9002
X4546Y9422
X3406Y11282
X11806Y11522
X13786Y10862
X15286Y11522
X17086Y12122
X18226Y12122
X18166Y11102
X18886Y8702
X16306Y8762
X5686Y2042
M30
