  0
SECTION
  2
HEADER
  9
$ACADVER
  1
AC1009
  9
$FILLMODE
 70
1
  9
$EXTMIN
 10
-1.5360
 20
-3.5584
 30
0.0000
  9
$EXTMAX
 10
49.7408
 20
29.9264
 30
0.0000
  0
ENDSEC
  0
SECTION
  2
TABLES
  0
TABLE
  2
LTYPE
 70
1
  0
LTYPE
  2
CONTINUOUS
 70
64
  3
Solid line
 72
65
 73
0
 40
0
  0
ENDTAB
  0
TABLE
  2
LAYER
 70
255
  0
LAYER
  2
29
 70
64
 62
251
  6
CONTINUOUS
  0
ENDTAB
  0
ENDSEC
  0
SECTION
  2
BLOCKS
  0
BLOCK
  8
0
  2
RECT
 70
64
 10
0.0000
 20
0.0000
 30
0.0000
  3
RECT
  0
SOLID
  8
0
 10
-0.5000
 20
-0.5000
 30
0.0000
 11
0.5000
 21
-0.5000
 31
0.0000
 12
-0.5000
 22
0.5000
 32
0.0000
 13
0.5000
 23
0.5000
 33
0.0000
  0
ENDBLK
  8
0
  0
BLOCK
  8
0
  2
PIE
 70
64
 10
0.0000
 20
0.0000
 30
0.0000
  3
PIE
  0
POLYLINE
  8
0
 66
1
 10
0.0000
 20
0.0000
 30
0.0000
 40
0.5000
 41
0.5000
 70
0
  0
VERTEX
  8
0
 10
0.0000
 20
-0.2500
 30
0.0000
 42
1.0000
  0
VERTEX
  8
0
 10
0.0000
 20
0.2500
 30
0.0000
 42
1.0000
  0
VERTEX
  8
0
 10
0.0000
 20
-0.2500
 30
0.0000
  0
SEQEND
  8
0
  0
ENDBLK
  8
0
  0
BLOCK
  8
0
  2
OCTAGONP
 70
64
 10
0.0000
 20
0.0000
 30
0.0000
  3
OCTAGONP
  0
POLYLINE
  8
0
 66
1
 10
0.0000
 20
0.0000
 30
0.0000
 40
0.5000
 41
0.5000
 70
0
  0
VERTEX
  8
0
 10
-0.2500
 20
-0.1036
 30
0.0000
  0
VERTEX
  8
0
 10
-0.2500
 20
0.1036
 30
0.0000
  0
VERTEX
  8
0
 10
-0.1036
 20
0.2500
 30
0.0000
  0
VERTEX
  8
0
 10
0.1036
 20
0.2500
 30
0.0000
  0
VERTEX
  8
0
 10
0.2500
 20
0.1036
 30
0.0000
  0
VERTEX
  8
0
 10
0.2500
 20
-0.1036
 30
0.0000
  0
VERTEX
  8
0
 10
0.1036
 20
-0.2500
 30
0.0000
  0
VERTEX
  8
0
 10
-0.1036
 20
-0.2500
 30
0.0000
  0
VERTEX
  8
0
 10
-0.2500
 20
-0.1036
 30
0.0000
  0
VERTEX
  8
0
 10
-0.2500
 20
0.1036
 30
0.0000
  0
SEQEND
  8
0
  0
ENDBLK
  8
0
  0
BLOCK
  8
0
  2
SQUAREP
 70
64
 10
0.0000
 20
0.0000
 30
0.0000
  3
SQUAREP
  0
SOLID
  8
0
 10
-0.5000
 20
-0.5000
 30
0.0000
 11
0.5000
 21
-0.5000
 31
0.0000
 12
-0.5000
 22
0.5000
 32
0.0000
 13
0.5000
 23
0.5000
 33
0.0000
  0
ENDBLK
  8
0
  0
BLOCK
  8
0
  2
ROUNDP
 70
64
 10
0.0000
 20
0.0000
 30
0.0000
  3
ROUNDP
  0
POLYLINE
  8
0
 66
1
 10
0.0000
 20
0.0000
 30
0.0000
 40
0.5000
 41
0.5000
 70
0
  0
VERTEX
  8
0
 10
0.0000
 20
-0.2500
 30
0.0000
 42
1.0000
  0
VERTEX
  8
0
 10
0.0000
 20
0.2500
 30
0.0000
 42
1.0000
  0
VERTEX
  8
0
 10
0.0000
 20
-0.2500
 30
0.0000
  0
SEQEND
  8
0
  0
ENDBLK
  8
0
  0
BLOCK
  8
0
  2
ANNULUSP
 70
64
 10
0.0000
 20
0.0000
 30
0.0000
  3
ANNULUSP
  0
POLYLINE
  8
0
 66
1
 10
0.0000
 20
0.0000
 30
0.0000
 40
0.5000
 41
0.5000
 70
0
  0
VERTEX
  8
0
 10
0.0000
 20
-0.2500
 30
0.0000
 42
1.0000
  0
VERTEX
  8
0
 10
0.0000
 20
0.2500
 30
0.0000
 42
1.0000
  0
VERTEX
  8
0
 10
0.0000
 20
-0.2500
 30
0.0000
  0
SEQEND
  8
0
  0
ENDBLK
  8
0
  0
BLOCK
  8
0
  2
THERMALP
 70
64
 10
0.0000
 20
0.0000
 30
0.0000
  3
THERMALP
  0
POLYLINE
  8
0
 66
1
 10
0.0000
 20
0.0000
 30
0.0000
 40
0.1000
 41
0.1000
 70
0
  0
VERTEX
  8
0
 10
-0.2379
 20
0.4500
 30
0.0000
  0
VERTEX
  8
0
 10
0.2379
 20
0.4500
 30
0.0000
  0
SEQEND
  8
0
  0
POLYLINE
  8
0
 66
1
 10
0.0000
 20
0.0000
 30
0.0000
 40
0.0500
 41
0.0500
 70
0
  0
VERTEX
  8
0
 10
0.2379
 20
0.4250
 30
0.0000
 42
1.0000
  0
VERTEX
  8
0
 10
0.2379
 20
0.4750
 30
0.0000
  0
SEQEND
  8
0
  0
POLYLINE
  8
0
 66
1
 10
0.0000
 20
0.0000
 30
0.0000
 40
0.0500
 41
0.0500
 70
0
  0
VERTEX
  8
0
 10
-0.2379
 20
0.4750
 30
0.0000
 42
1.0000
  0
VERTEX
  8
0
 10
-0.2379
 20
0.4250
 30
0.0000
  0
SEQEND
  8
0
  0
POLYLINE
  8
0
 66
1
 10
0.0000
 20
0.0000
 30
0.0000
 40
0.1000
 41
0.1000
 70
0
  0
VERTEX
  8
0
 10
0.4500
 20
0.2379
 30
0.0000
  0
VERTEX
  8
0
 10
0.4500
 20
-0.2379
 30
0.0000
  0
SEQEND
  8
0
  0
POLYLINE
  8
0
 66
1
 10
0.0000
 20
0.0000
 30
0.0000
 40
0.0500
 41
0.0500
 70
0
  0
VERTEX
  8
0
 10
0.4250
 20
-0.2379
 30
0.0000
 42
1.0000
  0
VERTEX
  8
0
 10
0.4750
 20
-0.2379
 30
0.0000
  0
SEQEND
  8
0
  0
POLYLINE
  8
0
 66
1
 10
0.0000
 20
0.0000
 30
0.0000
 40
0.0500
 41
0.0500
 70
0
  0
VERTEX
  8
0
 10
0.4750
 20
0.2379
 30
0.0000
 42
1.0000
  0
VERTEX
  8
0
 10
0.4250
 20
0.2379
 30
0.0000
  0
SEQEND
  8
0
  0
POLYLINE
  8
0
 66
1
 10
0.0000
 20
0.0000
 30
0.0000
 40
0.1000
 41
0.1000
 70
0
  0
VERTEX
  8
0
 10
0.2379
 20
-0.4500
 30
0.0000
  0
VERTEX
  8
0
 10
-0.2379
 20
-0.4500
 30
0.0000
  0
SEQEND
  8
0
  0
POLYLINE
  8
0
 66
1
 10
0.0000
 20
0.0000
 30
0.0000
 40
0.0500
 41
0.0500
 70
0
  0
VERTEX
  8
0
 10
-0.2379
 20
-0.4250
 30
0.0000
 42
1.0000
  0
VERTEX
  8
0
 10
-0.2379
 20
-0.4750
 30
0.0000
  0
SEQEND
  8
0
  0
POLYLINE
  8
0
 66
1
 10
0.0000
 20
0.0000
 30
0.0000
 40
0.0500
 41
0.0500
 70
0
  0
VERTEX
  8
0
 10
0.2379
 20
-0.4750
 30
0.0000
 42
1.0000
  0
VERTEX
  8
0
 10
0.2379
 20
-0.4250
 30
0.0000
  0
SEQEND
  8
0
  0
POLYLINE
  8
0
 66
1
 10
0.0000
 20
0.0000
 30
0.0000
 40
0.1000
 41
0.1000
 70
0
  0
VERTEX
  8
0
 10
-0.4500
 20
-0.2379
 30
0.0000
  0
VERTEX
  8
0
 10
-0.4500
 20
0.2379
 30
0.0000
  0
SEQEND
  8
0
  0
POLYLINE
  8
0
 66
1
 10
0.0000
 20
0.0000
 30
0.0000
 40
0.0500
 41
0.0500
 70
0
  0
VERTEX
  8
0
 10
-0.4250
 20
0.2379
 30
0.0000
 42
1.0000
  0
VERTEX
  8
0
 10
-0.4750
 20
0.2379
 30
0.0000
  0
SEQEND
  8
0
  0
POLYLINE
  8
0
 66
1
 10
0.0000
 20
0.0000
 30
0.0000
 40
0.0500
 41
0.0500
 70
0
  0
VERTEX
  8
0
 10
-0.4750
 20
-0.2379
 30
0.0000
 42
1.0000
  0
VERTEX
  8
0
 10
-0.4250
 20
-0.2379
 30
0.0000
  0
SEQEND
  8
0
  0
ENDBLK
  8
0
  0
BLOCK
  8
0
  2
OCTAGONV
 70
64
 10
0.0000
 20
0.0000
 30
0.0000
  3
OCTAGONV
  0
POLYLINE
  8
0
 66
1
 10
0.0000
 20
0.0000
 30
0.0000
 40
0.5000
 41
0.5000
 70
0
  0
VERTEX
  8
0
 10
-0.2500
 20
-0.1036
 30
0.0000
  0
VERTEX
  8
0
 10
-0.2500
 20
0.1036
 30
0.0000
  0
VERTEX
  8
0
 10
-0.1036
 20
0.2500
 30
0.0000
  0
VERTEX
  8
0
 10
0.1036
 20
0.2500
 30
0.0000
  0
VERTEX
  8
0
 10
0.2500
 20
0.1036
 30
0.0000
  0
VERTEX
  8
0
 10
0.2500
 20
-0.1036
 30
0.0000
  0
VERTEX
  8
0
 10
0.1036
 20
-0.2500
 30
0.0000
  0
VERTEX
  8
0
 10
-0.1036
 20
-0.2500
 30
0.0000
  0
VERTEX
  8
0
 10
-0.2500
 20
-0.1036
 30
0.0000
  0
VERTEX
  8
0
 10
-0.2500
 20
0.1036
 30
0.0000
  0
SEQEND
  8
0
  0
ENDBLK
  8
0
  0
BLOCK
  8
0
  2
SQUAREV
 70
64
 10
0.0000
 20
0.0000
 30
0.0000
  3
SQUAREV
  0
SOLID
  8
0
 10
-0.5000
 20
-0.5000
 30
0.0000
 11
0.5000
 21
-0.5000
 31
0.0000
 12
-0.5000
 22
0.5000
 32
0.0000
 13
0.5000
 23
0.5000
 33
0.0000
  0
ENDBLK
  8
0
  0
BLOCK
  8
0
  2
ROUNDV
 70
64
 10
0.0000
 20
0.0000
 30
0.0000
  3
ROUNDV
  0
POLYLINE
  8
0
 66
1
 10
0.0000
 20
0.0000
 30
0.0000
 40
0.5000
 41
0.5000
 70
0
  0
VERTEX
  8
0
 10
0.0000
 20
-0.2500
 30
0.0000
 42
1.0000
  0
VERTEX
  8
0
 10
0.0000
 20
0.2500
 30
0.0000
 42
1.0000
  0
VERTEX
  8
0
 10
0.0000
 20
-0.2500
 30
0.0000
  0
SEQEND
  8
0
  0
ENDBLK
  8
0
  0
BLOCK
  8
0
  2
ANNULUSV
 70
64
 10
0.0000
 20
0.0000
 30
0.0000
  3
ANNULUSV
  0
POLYLINE
  8
0
 66
1
 10
0.0000
 20
0.0000
 30
0.0000
 40
0.5000
 41
0.5000
 70
0
  0
VERTEX
  8
0
 10
0.0000
 20
-0.2500
 30
0.0000
 42
1.0000
  0
VERTEX
  8
0
 10
0.0000
 20
0.2500
 30
0.0000
 42
1.0000
  0
VERTEX
  8
0
 10
0.0000
 20
-0.2500
 30
0.0000
  0
SEQEND
  8
0
  0
ENDBLK
  8
0
  0
BLOCK
  8
0
  2
THERMALV
 70
64
 10
0.0000
 20
0.0000
 30
0.0000
  3
THERMALV
  0
POLYLINE
  8
0
 66
1
 10
0.0000
 20
0.0000
 30
0.0000
 40
0.1000
 41
0.1000
 70
0
  0
VERTEX
  8
0
 10
-0.2379
 20
0.4500
 30
0.0000
  0
VERTEX
  8
0
 10
0.2379
 20
0.4500
 30
0.0000
  0
SEQEND
  8
0
  0
POLYLINE
  8
0
 66
1
 10
0.0000
 20
0.0000
 30
0.0000
 40
0.0500
 41
0.0500
 70
0
  0
VERTEX
  8
0
 10
0.2379
 20
0.4250
 30
0.0000
 42
1.0000
  0
VERTEX
  8
0
 10
0.2379
 20
0.4750
 30
0.0000
  0
SEQEND
  8
0
  0
POLYLINE
  8
0
 66
1
 10
0.0000
 20
0.0000
 30
0.0000
 40
0.0500
 41
0.0500
 70
0
  0
VERTEX
  8
0
 10
-0.2379
 20
0.4750
 30
0.0000
 42
1.0000
  0
VERTEX
  8
0
 10
-0.2379
 20
0.4250
 30
0.0000
  0
SEQEND
  8
0
  0
POLYLINE
  8
0
 66
1
 10
0.0000
 20
0.0000
 30
0.0000
 40
0.1000
 41
0.1000
 70
0
  0
VERTEX
  8
0
 10
0.4500
 20
0.2379
 30
0.0000
  0
VERTEX
  8
0
 10
0.4500
 20
-0.2379
 30
0.0000
  0
SEQEND
  8
0
  0
POLYLINE
  8
0
 66
1
 10
0.0000
 20
0.0000
 30
0.0000
 40
0.0500
 41
0.0500
 70
0
  0
VERTEX
  8
0
 10
0.4250
 20
-0.2379
 30
0.0000
 42
1.0000
  0
VERTEX
  8
0
 10
0.4750
 20
-0.2379
 30
0.0000
  0
SEQEND
  8
0
  0
POLYLINE
  8
0
 66
1
 10
0.0000
 20
0.0000
 30
0.0000
 40
0.0500
 41
0.0500
 70
0
  0
VERTEX
  8
0
 10
0.4750
 20
0.2379
 30
0.0000
 42
1.0000
  0
VERTEX
  8
0
 10
0.4250
 20
0.2379
 30
0.0000
  0
SEQEND
  8
0
  0
POLYLINE
  8
0
 66
1
 10
0.0000
 20
0.0000
 30
0.0000
 40
0.1000
 41
0.1000
 70
0
  0
VERTEX
  8
0
 10
0.2379
 20
-0.4500
 30
0.0000
  0
VERTEX
  8
0
 10
-0.2379
 20
-0.4500
 30
0.0000
  0
SEQEND
  8
0
  0
POLYLINE
  8
0
 66
1
 10
0.0000
 20
0.0000
 30
0.0000
 40
0.0500
 41
0.0500
 70
0
  0
VERTEX
  8
0
 10
-0.2379
 20
-0.4250
 30
0.0000
 42
1.0000
  0
VERTEX
  8
0
 10
-0.2379
 20
-0.4750
 30
0.0000
  0
SEQEND
  8
0
  0
POLYLINE
  8
0
 66
1
 10
0.0000
 20
0.0000
 30
0.0000
 40
0.0500
 41
0.0500
 70
0
  0
VERTEX
  8
0
 10
0.2379
 20
-0.4750
 30
0.0000
 42
1.0000
  0
VERTEX
  8
0
 10
0.2379
 20
-0.4250
 30
0.0000
  0
SEQEND
  8
0
  0
POLYLINE
  8
0
 66
1
 10
0.0000
 20
0.0000
 30
0.0000
 40
0.1000
 41
0.1000
 70
0
  0
VERTEX
  8
0
 10
-0.4500
 20
-0.2379
 30
0.0000
  0
VERTEX
  8
0
 10
-0.4500
 20
0.2379
 30
0.0000
  0
SEQEND
  8
0
  0
POLYLINE
  8
0
 66
1
 10
0.0000
 20
0.0000
 30
0.0000
 40
0.0500
 41
0.0500
 70
0
  0
VERTEX
  8
0
 10
-0.4250
 20
0.2379
 30
0.0000
 42
1.0000
  0
VERTEX
  8
0
 10
-0.4750
 20
0.2379
 30
0.0000
  0
SEQEND
  8
0
  0
POLYLINE
  8
0
 66
1
 10
0.0000
 20
0.0000
 30
0.0000
 40
0.0500
 41
0.0500
 70
0
  0
VERTEX
  8
0
 10
-0.4750
 20
-0.2379
 30
0.0000
 42
1.0000
  0
VERTEX
  8
0
 10
-0.4250
 20
-0.2379
 30
0.0000
  0
SEQEND
  8
0
  0
ENDBLK
  8
0
  0
BLOCK
  8
0
  2
RECT4516X2516R50
 70
64
 10
0.0000
 20
0.0000
 30
0.0000
  3
RECT4516X2516R50
  0
POLYLINE
  8
0
 66
1
 10
0.0000
 20
0.0000
 30
0.0000
 40
0.1258
 41
0.1258
 70
1
  0
VERTEX
  8
0
 10
0.3887
 20
-0.1258
 30
0.0000
  0
VERTEX
  8
0
 10
0.3887
 20
0.1258
 30
0.0000
 42
0.4142
  0
VERTEX
  8
0
 10
0.3258
 20
0.1887
 30
0.0000
  0
VERTEX
  8
0
 10
-0.3258
 20
0.1887
 30
0.0000
 42
0.4142
  0
VERTEX
  8
0
 10
-0.3887
 20
0.1258
 30
0.0000
  0
VERTEX
  8
0
 10
-0.3887
 20
-0.1258
 30
0.0000
 42
0.4142
  0
VERTEX
  8
0
 10
-0.3258
 20
-0.1887
 30
0.0000
  0
VERTEX
  8
0
 10
0.3258
 20
-0.1887
 30
0.0000
 42
0.4142
  0
SEQEND
  8
0
  0
SOLID
  8
0
 10
-0.3512
 20
-0.1512
 30
0.0000
 11
0.3512
 21
-0.1512
 31
0.0000
 12
-0.3512
 22
0.1512
 32
0.0000
 13
0.3512
 23
0.1512
 33
0.0000
  0
ENDBLK
  8
0
  0
BLOCK
  8
0
  2
RECT2516X4516R50
 70
64
 10
0.0000
 20
0.0000
 30
0.0000
  3
RECT2516X4516R50
  0
POLYLINE
  8
0
 66
1
 10
0.0000
 20
0.0000
 30
0.0000
 40
0.1258
 41
0.1258
 70
1
  0
VERTEX
  8
0
 10
0.1887
 20
-0.3258
 30
0.0000
  0
VERTEX
  8
0
 10
0.1887
 20
0.3258
 30
0.0000
 42
0.4142
  0
VERTEX
  8
0
 10
0.1258
 20
0.3887
 30
0.0000
  0
VERTEX
  8
0
 10
-0.1258
 20
0.3887
 30
0.0000
 42
0.4142
  0
VERTEX
  8
0
 10
-0.1887
 20
0.3258
 30
0.0000
  0
VERTEX
  8
0
 10
-0.1887
 20
-0.3258
 30
0.0000
 42
0.4142
  0
VERTEX
  8
0
 10
-0.1258
 20
-0.3887
 30
0.0000
  0
VERTEX
  8
0
 10
0.1258
 20
-0.3887
 30
0.0000
 42
0.4142
  0
SEQEND
  8
0
  0
SOLID
  8
0
 10
-0.1512
 20
-0.3512
 30
0.0000
 11
0.1512
 21
-0.3512
 31
0.0000
 12
-0.1512
 22
0.3512
 32
0.0000
 13
0.1512
 23
0.3512
 33
0.0000
  0
ENDBLK
  8
0
  0
BLOCK
  8
0
  2
RECT4016X4016R100
 70
64
 10
0.0000
 20
0.0000
 30
0.0000
  3
RECT4016X4016R100
  0
POLYLINE
  8
0
 66
1
 10
0.0000
 20
0.0000
 30
0.0000
 40
0.4016
 41
0.4016
 70
1
  0
VERTEX
  8
0
 10
0.2008
 20
0.0000
 30
0.0000
  0
VERTEX
  8
0
 10
0.2008
 20
0.0000
 30
0.0000
 42
0.4142
  0
VERTEX
  8
0
 10
0.0000
 20
0.2008
 30
0.0000
  0
VERTEX
  8
0
 10
0.0000
 20
0.2008
 30
0.0000
 42
0.4142
  0
VERTEX
  8
0
 10
-0.2008
 20
0.0000
 30
0.0000
  0
VERTEX
  8
0
 10
-0.2008
 20
0.0000
 30
0.0000
 42
0.4142
  0
VERTEX
  8
0
 10
0.0000
 20
-0.2008
 30
0.0000
  0
VERTEX
  8
0
 10
0.0000
 20
-0.2008
 30
0.0000
 42
0.4142
  0
SEQEND
  8
0
  0
SOLID
  8
0
 10
-0.0254
 20
-0.0254
 30
0.0000
 11
0.0254
 21
-0.0254
 31
0.0000
 12
-0.0254
 22
0.0254
 32
0.0000
 13
0.0254
 23
0.0254
 33
0.0000
  0
ENDBLK
  8
0
  0
ENDSEC
  0
SECTION
  2
ENTITIES
  0
INSERT
  8
29
  2
RECT
 10
7.5432
 20
26.8127
 30
0.0000
 41
1.3032
 42
1.2032
 43
1.0000
 50
0.0000
  0
INSERT
  8
29
  2
RECT
 10
9.2432
 20
26.8127
 30
0.0000
 41
1.3032
 42
1.2032
 43
1.0000
 50
0.0000
  0
INSERT
  8
29
  2
RECT
 10
7.7783
 20
25.3238
 30
0.0000
 41
0.9032
 42
1.1032
 43
1.0000
 50
0.0000
  0
INSERT
  8
29
  2
RECT
 10
9.0783
 20
25.3238
 30
0.0000
 41
0.9032
 42
1.1032
 43
1.0000
 50
0.0000
  0
INSERT
  8
29
  2
RECT
 10
7.5080
 20
23.7998
 30
0.0000
 41
1.3032
 42
1.2032
 43
1.0000
 50
0.0000
  0
INSERT
  8
29
  2
RECT
 10
9.2080
 20
23.7998
 30
0.0000
 41
1.3032
 42
1.2032
 43
1.0000
 50
0.0000
  0
INSERT
  8
29
  2
RECT
 10
7.5170
 20
15.4079
 30
0.0000
 41
0.9032
 42
1.1032
 43
1.0000
 50
0.0000
  0
INSERT
  8
29
  2
RECT
 10
8.8170
 20
15.4079
 30
0.0000
 41
0.9032
 42
1.1032
 43
1.0000
 50
0.0000
  0
INSERT
  8
29
  2
RECT
 10
8.7454
 20
21.9119
 30
0.0000
 41
1.3032
 42
1.2032
 43
1.0000
 50
270.0000
  0
INSERT
  8
29
  2
RECT
 10
8.7454
 20
20.2119
 30
0.0000
 41
1.3032
 42
1.2032
 43
1.0000
 50
270.0000
  0
INSERT
  8
29
  2
RECT
 10
7.5752
 20
18.9559
 30
0.0000
 41
0.9032
 42
1.1032
 43
1.0000
 50
0.0000
  0
INSERT
  8
29
  2
RECT
 10
8.8752
 20
18.9559
 30
0.0000
 41
0.9032
 42
1.1032
 43
1.0000
 50
0.0000
  0
INSERT
  8
29
  2
RECT
 10
5.5522
 20
19.0500
 30
0.0000
 41
0.9032
 42
1.1032
 43
1.0000
 50
180.0000
  0
INSERT
  8
29
  2
RECT
 10
4.2522
 20
19.0500
 30
0.0000
 41
0.9032
 42
1.1032
 43
1.0000
 50
180.0000
  0
INSERT
  8
29
  2
RECT
 10
7.2892
 20
12.7837
 30
0.0000
 41
1.3032
 42
1.2032
 43
1.0000
 50
0.0000
  0
INSERT
  8
29
  2
RECT
 10
8.9892
 20
12.7837
 30
0.0000
 41
1.3032
 42
1.2032
 43
1.0000
 50
0.0000
  0
INSERT
  8
29
  2
RECT
 10
9.0382
 20
11.3143
 30
0.0000
 41
1.3032
 42
1.2032
 43
1.0000
 50
180.0000
  0
INSERT
  8
29
  2
RECT
 10
7.3382
 20
11.3143
 30
0.0000
 41
1.3032
 42
1.2032
 43
1.0000
 50
180.0000
  0
INSERT
  8
29
  2
RECT
 10
7.3286
 20
9.8181
 30
0.0000
 41
1.3032
 42
1.2032
 43
1.0000
 50
0.0000
  0
INSERT
  8
29
  2
RECT
 10
9.0286
 20
9.8181
 30
0.0000
 41
1.3032
 42
1.2032
 43
1.0000
 50
0.0000
  0
INSERT
  8
29
  2
RECT
 10
3.7315
 20
20.4148
 30
0.0000
 41
1.7032
 42
1.4032
 43
1.0000
 50
180.0000
  0
INSERT
  8
29
  2
RECT
 10
6.6315
 20
20.4148
 30
0.0000
 41
1.7032
 42
1.4032
 43
1.0000
 50
180.0000
  0
INSERT
  8
29
  2
RECT4516X2516R50
 10
44.4557
 20
3.7676
 30
0.0000
 41
1.0000
 42
1.0000
 43
1.0000
 50
180.0000
  0
INSERT
  8
29
  2
RECT4516X2516R50
 10
44.4557
 20
4.2676
 30
0.0000
 41
1.0000
 42
1.0000
 43
1.0000
 50
180.0000
  0
INSERT
  8
29
  2
RECT4516X2516R50
 10
44.4557
 20
4.7676
 30
0.0000
 41
1.0000
 42
1.0000
 43
1.0000
 50
180.0000
  0
INSERT
  8
29
  2
RECT4516X2516R50
 10
44.4557
 20
5.2676
 30
0.0000
 41
1.0000
 42
1.0000
 43
1.0000
 50
180.0000
  0
INSERT
  8
29
  2
RECT4516X2516R50
 10
44.4557
 20
5.7676
 30
0.0000
 41
1.0000
 42
1.0000
 43
1.0000
 50
180.0000
  0
INSERT
  8
29
  2
RECT4516X2516R50
 10
44.4557
 20
6.2676
 30
0.0000
 41
1.0000
 42
1.0000
 43
1.0000
 50
180.0000
  0
INSERT
  8
29
  2
RECT4516X2516R50
 10
44.4557
 20
6.7676
 30
0.0000
 41
1.0000
 42
1.0000
 43
1.0000
 50
180.0000
  0
INSERT
  8
29
  2
RECT4516X2516R50
 10
44.4557
 20
7.2676
 30
0.0000
 41
1.0000
 42
1.0000
 43
1.0000
 50
180.0000
  0
INSERT
  8
29
  2
RECT2516X4516R50
 10
43.8557
 20
7.8676
 30
0.0000
 41
1.0000
 42
1.0000
 43
1.0000
 50
180.0000
  0
INSERT
  8
29
  2
RECT2516X4516R50
 10
43.3557
 20
7.8676
 30
0.0000
 41
1.0000
 42
1.0000
 43
1.0000
 50
180.0000
  0
INSERT
  8
29
  2
RECT2516X4516R50
 10
42.8557
 20
7.8676
 30
0.0000
 41
1.0000
 42
1.0000
 43
1.0000
 50
180.0000
  0
INSERT
  8
29
  2
RECT2516X4516R50
 10
42.3557
 20
7.8676
 30
0.0000
 41
1.0000
 42
1.0000
 43
1.0000
 50
180.0000
  0
INSERT
  8
29
  2
RECT2516X4516R50
 10
41.8557
 20
7.8676
 30
0.0000
 41
1.0000
 42
1.0000
 43
1.0000
 50
180.0000
  0
INSERT
  8
29
  2
RECT2516X4516R50
 10
41.3557
 20
7.8676
 30
0.0000
 41
1.0000
 42
1.0000
 43
1.0000
 50
180.0000
  0
INSERT
  8
29
  2
RECT2516X4516R50
 10
40.8557
 20
7.8676
 30
0.0000
 41
1.0000
 42
1.0000
 43
1.0000
 50
180.0000
  0
INSERT
  8
29
  2
RECT2516X4516R50
 10
40.3557
 20
7.8676
 30
0.0000
 41
1.0000
 42
1.0000
 43
1.0000
 50
180.0000
  0
INSERT
  8
29
  2
RECT4516X2516R50
 10
39.7557
 20
7.2676
 30
0.0000
 41
1.0000
 42
1.0000
 43
1.0000
 50
180.0000
  0
INSERT
  8
29
  2
RECT4516X2516R50
 10
39.7557
 20
6.7676
 30
0.0000
 41
1.0000
 42
1.0000
 43
1.0000
 50
180.0000
  0
INSERT
  8
29
  2
RECT4516X2516R50
 10
39.7557
 20
6.2676
 30
0.0000
 41
1.0000
 42
1.0000
 43
1.0000
 50
180.0000
  0
INSERT
  8
29
  2
RECT4516X2516R50
 10
39.7557
 20
5.7676
 30
0.0000
 41
1.0000
 42
1.0000
 43
1.0000
 50
180.0000
  0
INSERT
  8
29
  2
RECT4516X2516R50
 10
39.7557
 20
5.2676
 30
0.0000
 41
1.0000
 42
1.0000
 43
1.0000
 50
180.0000
  0
INSERT
  8
29
  2
RECT4516X2516R50
 10
39.7557
 20
4.7676
 30
0.0000
 41
1.0000
 42
1.0000
 43
1.0000
 50
180.0000
  0
INSERT
  8
29
  2
RECT4516X2516R50
 10
39.7557
 20
4.2676
 30
0.0000
 41
1.0000
 42
1.0000
 43
1.0000
 50
180.0000
  0
INSERT
  8
29
  2
RECT4516X2516R50
 10
39.7557
 20
3.7676
 30
0.0000
 41
1.0000
 42
1.0000
 43
1.0000
 50
180.0000
  0
INSERT
  8
29
  2
RECT2516X4516R50
 10
40.3557
 20
3.1676
 30
0.0000
 41
1.0000
 42
1.0000
 43
1.0000
 50
180.0000
  0
INSERT
  8
29
  2
RECT2516X4516R50
 10
40.8557
 20
3.1676
 30
0.0000
 41
1.0000
 42
1.0000
 43
1.0000
 50
180.0000
  0
INSERT
  8
29
  2
RECT2516X4516R50
 10
41.3557
 20
3.1676
 30
0.0000
 41
1.0000
 42
1.0000
 43
1.0000
 50
180.0000
  0
INSERT
  8
29
  2
RECT2516X4516R50
 10
41.8557
 20
3.1676
 30
0.0000
 41
1.0000
 42
1.0000
 43
1.0000
 50
180.0000
  0
INSERT
  8
29
  2
RECT2516X4516R50
 10
42.3557
 20
3.1676
 30
0.0000
 41
1.0000
 42
1.0000
 43
1.0000
 50
180.0000
  0
INSERT
  8
29
  2
RECT2516X4516R50
 10
42.8557
 20
3.1676
 30
0.0000
 41
1.0000
 42
1.0000
 43
1.0000
 50
180.0000
  0
INSERT
  8
29
  2
RECT2516X4516R50
 10
43.3557
 20
3.1676
 30
0.0000
 41
1.0000
 42
1.0000
 43
1.0000
 50
180.0000
  0
INSERT
  8
29
  2
RECT2516X4516R50
 10
43.8557
 20
3.1676
 30
0.0000
 41
1.0000
 42
1.0000
 43
1.0000
 50
180.0000
  0
INSERT
  8
29
  2
RECT
 10
3.4969
 20
26.5960
 30
0.0000
 41
6.5032
 42
2.3532
 43
1.0000
 50
0.0000
  0
INSERT
  8
29
  2
RECT
 10
3.4969
 20
22.4460
 30
0.0000
 41
6.5032
 42
2.3532
 43
1.0000
 50
0.0000
  0
INSERT
  8
29
  2
RECT
 10
8.9912
 20
1.0092
 30
0.0000
 41
1.0032
 42
1.0032
 43
1.0000
 50
90.0000
  0
INSERT
  8
29
  2
RECT
 10
7.4912
 20
1.0092
 30
0.0000
 41
1.0032
 42
1.0032
 43
1.0000
 50
90.0000
  0
INSERT
  8
29
  2
RECT
 10
0.8025
 20
17.9870
 30
0.0000
 41
1.1032
 42
1.4032
 43
1.0000
 50
0.0000
  0
INSERT
  8
29
  2
RECT
 10
2.7025
 20
17.9870
 30
0.0000
 41
1.1032
 42
1.4032
 43
1.0000
 50
0.0000
  0
INSERT
  8
29
  2
RECT
 10
1.7525
 20
20.3870
 30
0.0000
 41
1.1032
 42
1.4032
 43
1.0000
 50
0.0000
  0
INSERT
  8
29
  2
RECT
 10
5.8232
 20
1.1274
 30
0.0000
 41
0.9032
 42
1.1032
 43
1.0000
 50
90.0000
  0
INSERT
  8
29
  2
RECT
 10
5.8232
 20
2.4274
 30
0.0000
 41
0.9032
 42
1.1032
 43
1.0000
 50
90.0000
  0
INSERT
  8
29
  2
RECT
 10
42.3827
 20
0.9737
 30
0.0000
 41
0.9032
 42
1.1032
 43
1.0000
 50
180.0000
  0
INSERT
  8
29
  2
RECT
 10
41.0827
 20
0.9737
 30
0.0000
 41
0.9032
 42
1.1032
 43
1.0000
 50
180.0000
  0
INSERT
  8
29
  2
RECT
 10
8.7902
 20
14.2421
 30
0.0000
 41
0.9032
 42
1.1032
 43
1.0000
 50
180.0000
  0
INSERT
  8
29
  2
RECT
 10
7.4902
 20
14.2421
 30
0.0000
 41
0.9032
 42
1.1032
 43
1.0000
 50
180.0000
  0
INSERT
  8
29
  2
RECT
 10
7.5533
 20
16.6334
 30
0.0000
 41
0.9032
 42
1.1032
 43
1.0000
 50
0.0000
  0
INSERT
  8
29
  2
RECT
 10
8.8533
 20
16.6334
 30
0.0000
 41
0.9032
 42
1.1032
 43
1.0000
 50
0.0000
  0
INSERT
  8
29
  2
RECT
 10
5.5522
 20
17.8816
 30
0.0000
 41
0.9032
 42
1.1032
 43
1.0000
 50
180.0000
  0
INSERT
  8
29
  2
RECT
 10
4.2522
 20
17.8816
 30
0.0000
 41
0.9032
 42
1.1032
 43
1.0000
 50
180.0000
  0
INSERT
  8
29
  2
RECT
 10
7.5436
 20
8.2161
 30
0.0000
 41
0.9032
 42
1.1032
 43
1.0000
 50
0.0000
  0
INSERT
  8
29
  2
RECT
 10
8.8436
 20
8.2161
 30
0.0000
 41
0.9032
 42
1.1032
 43
1.0000
 50
0.0000
  0
INSERT
  8
29
  2
RECT
 10
7.5379
 20
7.0832
 30
0.0000
 41
0.9032
 42
1.1032
 43
1.0000
 50
0.0000
  0
INSERT
  8
29
  2
RECT
 10
8.8379
 20
7.0832
 30
0.0000
 41
0.9032
 42
1.1032
 43
1.0000
 50
0.0000
  0
INSERT
  8
29
  2
RECT
 10
8.8654
 20
17.8179
 30
0.0000
 41
0.9032
 42
1.1032
 43
1.0000
 50
180.0000
  0
INSERT
  8
29
  2
RECT
 10
7.5654
 20
17.8179
 30
0.0000
 41
0.9032
 42
1.1032
 43
1.0000
 50
180.0000
  0
INSERT
  8
29
  2
PIE
 10
21.0075
 20
17.0150
 30
0.0000
 41
0.8032
 42
0.8032
 43
1.0000
 50
0.0000
  0
INSERT
  8
29
  2
RECT
 10
42.8343
 20
12.0765
 30
0.0000
 41
1.0032
 42
1.7032
 43
1.0000
 50
0.0000
  0
INSERT
  8
29
  2
RECT
 10
41.7343
 20
12.0765
 30
0.0000
 41
1.0032
 42
1.7032
 43
1.0000
 50
0.0000
  0
INSERT
  8
29
  2
RECT
 10
40.6343
 20
12.0765
 30
0.0000
 41
1.0032
 42
1.7032
 43
1.0000
 50
0.0000
  0
INSERT
  8
29
  2
RECT
 10
39.5343
 20
12.0765
 30
0.0000
 41
1.0032
 42
1.7032
 43
1.0000
 50
0.0000
  0
INSERT
  8
29
  2
RECT
 10
38.4343
 20
12.0765
 30
0.0000
 41
1.0032
 42
1.7032
 43
1.0000
 50
0.0000
  0
INSERT
  8
29
  2
RECT
 10
37.3343
 20
12.0765
 30
0.0000
 41
1.0032
 42
1.7032
 43
1.0000
 50
0.0000
  0
INSERT
  8
29
  2
RECT
 10
36.2343
 20
12.0765
 30
0.0000
 41
1.0032
 42
1.7032
 43
1.0000
 50
0.0000
  0
INSERT
  8
29
  2
RECT
 10
35.1343
 20
12.0765
 30
0.0000
 41
1.0032
 42
1.7032
 43
1.0000
 50
0.0000
  0
INSERT
  8
29
  2
RECT
 10
33.1843
 20
26.8365
 30
0.0000
 41
1.9032
 42
1.7032
 43
1.0000
 50
0.0000
  0
INSERT
  8
29
  2
RECT
 10
46.6843
 20
26.8365
 30
0.0000
 41
1.9032
 42
1.7032
 43
1.0000
 50
0.0000
  0
INSERT
  8
29
  2
RECT
 10
33.1843
 20
20.9865
 30
0.0000
 41
1.9032
 42
1.7032
 43
1.0000
 50
0.0000
  0
INSERT
  8
29
  2
RECT
 10
46.3843
 20
11.8965
 30
0.0000
 41
1.9032
 42
1.7032
 43
1.0000
 50
0.0000
  0
INSERT
  8
29
  2
RECT
 10
33.5881
 20
11.7886
 30
0.0000
 41
1.7032
 42
1.7032
 43
1.0000
 50
0.0000
  0
INSERT
  8
29
  2
RECT
 10
16.4492
 20
21.7629
 30
0.0000
 41
1.7032
 42
0.5032
 43
1.0000
 50
0.0000
  0
INSERT
  8
29
  2
RECT
 10
16.4492
 20
21.1629
 30
0.0000
 41
1.7032
 42
0.5032
 43
1.0000
 50
0.0000
  0
INSERT
  8
29
  2
RECT
 10
16.4492
 20
20.5629
 30
0.0000
 41
1.7032
 42
0.5032
 43
1.0000
 50
0.0000
  0
INSERT
  8
29
  2
RECT
 10
16.4492
 20
19.9629
 30
0.0000
 41
1.7032
 42
0.5032
 43
1.0000
 50
0.0000
  0
INSERT
  8
29
  2
RECT
 10
16.4492
 20
19.3629
 30
0.0000
 41
1.7032
 42
0.5032
 43
1.0000
 50
0.0000
  0
INSERT
  8
29
  2
RECT
 10
16.4492
 20
18.7629
 30
0.0000
 41
1.7032
 42
0.5032
 43
1.0000
 50
0.0000
  0
INSERT
  8
29
  2
RECT
 10
16.4492
 20
18.1629
 30
0.0000
 41
1.7032
 42
0.5032
 43
1.0000
 50
0.0000
  0
INSERT
  8
29
  2
RECT
 10
16.4492
 20
17.5629
 30
0.0000
 41
1.7032
 42
0.5032
 43
1.0000
 50
0.0000
  0
INSERT
  8
29
  2
RECT
 10
16.4492
 20
16.9629
 30
0.0000
 41
1.7032
 42
0.5032
 43
1.0000
 50
0.0000
  0
INSERT
  8
29
  2
RECT
 10
16.4492
 20
16.3629
 30
0.0000
 41
1.7032
 42
0.5032
 43
1.0000
 50
0.0000
  0
INSERT
  8
29
  2
RECT
 10
16.4492
 20
15.7629
 30
0.0000
 41
1.7032
 42
0.5032
 43
1.0000
 50
0.0000
  0
INSERT
  8
29
  2
RECT
 10
16.4492
 20
15.1629
 30
0.0000
 41
1.7032
 42
0.5032
 43
1.0000
 50
0.0000
  0
INSERT
  8
29
  2
RECT
 10
16.4492
 20
14.5629
 30
0.0000
 41
1.7032
 42
0.5032
 43
1.0000
 50
0.0000
  0
INSERT
  8
29
  2
RECT
 10
16.4492
 20
13.9629
 30
0.0000
 41
1.7032
 42
0.5032
 43
1.0000
 50
0.0000
  0
INSERT
  8
29
  2
RECT
 10
16.4492
 20
13.3629
 30
0.0000
 41
1.7032
 42
0.5032
 43
1.0000
 50
0.0000
  0
INSERT
  8
29
  2
RECT
 10
16.4492
 20
12.7629
 30
0.0000
 41
1.7032
 42
0.5032
 43
1.0000
 50
0.0000
  0
INSERT
  8
29
  2
RECT
 10
16.4492
 20
12.1629
 30
0.0000
 41
1.7032
 42
0.5032
 43
1.0000
 50
0.0000
  0
INSERT
  8
29
  2
RECT
 10
16.4492
 20
11.5629
 30
0.0000
 41
1.7032
 42
0.5032
 43
1.0000
 50
0.0000
  0
INSERT
  8
29
  2
RECT
 10
16.4492
 20
10.9629
 30
0.0000
 41
1.7032
 42
0.5032
 43
1.0000
 50
0.0000
  0
INSERT
  8
29
  2
RECT
 10
16.4492
 20
10.3629
 30
0.0000
 41
1.7032
 42
0.5032
 43
1.0000
 50
0.0000
  0
INSERT
  8
29
  2
RECT
 10
16.4492
 20
9.7629
 30
0.0000
 41
1.7032
 42
0.5032
 43
1.0000
 50
0.0000
  0
INSERT
  8
29
  2
RECT
 10
16.4492
 20
9.1629
 30
0.0000
 41
1.7032
 42
0.5032
 43
1.0000
 50
0.0000
  0
INSERT
  8
29
  2
RECT
 10
16.4492
 20
8.5629
 30
0.0000
 41
1.7032
 42
0.5032
 43
1.0000
 50
0.0000
  0
INSERT
  8
29
  2
RECT
 10
16.4492
 20
7.9629
 30
0.0000
 41
1.7032
 42
0.5032
 43
1.0000
 50
0.0000
  0
INSERT
  8
29
  2
RECT
 10
16.4492
 20
7.3629
 30
0.0000
 41
1.7032
 42
0.5032
 43
1.0000
 50
0.0000
  0
INSERT
  8
29
  2
RECT
 10
16.4492
 20
6.7629
 30
0.0000
 41
1.7032
 42
0.5032
 43
1.0000
 50
0.0000
  0
INSERT
  8
29
  2
RECT
 10
16.4492
 20
6.1629
 30
0.0000
 41
1.7032
 42
0.5032
 43
1.0000
 50
0.0000
  0
INSERT
  8
29
  2
RECT
 10
7.2889
 20
2.9487
 30
0.0000
 41
0.7532
 42
1.4032
 43
1.0000
 50
0.0000
  0
INSERT
  8
29
  2
RECT
 10
8.2389
 20
2.9487
 30
0.0000
 41
0.7532
 42
1.4032
 43
1.0000
 50
0.0000
  0
INSERT
  8
29
  2
RECT
 10
9.1889
 20
2.9487
 30
0.0000
 41
0.7532
 42
1.4032
 43
1.0000
 50
0.0000
  0
INSERT
  8
29
  2
RECT
 10
9.1889
 20
5.5487
 30
0.0000
 41
0.7532
 42
1.4032
 43
1.0000
 50
0.0000
  0
INSERT
  8
29
  2
RECT
 10
7.2889
 20
5.5487
 30
0.0000
 41
0.7532
 42
1.4032
 43
1.0000
 50
0.0000
  0
INSERT
  8
29
  2
RECT
 10
4.0204
 20
6.7957
 30
0.0000
 41
0.6032
 42
1.6032
 43
1.0000
 50
270.0000
  0
INSERT
  8
29
  2
RECT
 10
4.0204
 20
6.1457
 30
0.0000
 41
0.6032
 42
1.6032
 43
1.0000
 50
270.0000
  0
INSERT
  8
29
  2
RECT
 10
4.0204
 20
5.4957
 30
0.0000
 41
0.6032
 42
1.6032
 43
1.0000
 50
270.0000
  0
INSERT
  8
29
  2
RECT
 10
4.0204
 20
4.8457
 30
0.0000
 41
0.6032
 42
1.6032
 43
1.0000
 50
270.0000
  0
INSERT
  8
29
  2
RECT
 10
4.0204
 20
4.1957
 30
0.0000
 41
0.6032
 42
1.6032
 43
1.0000
 50
270.0000
  0
INSERT
  8
29
  2
RECT
 10
1.3704
 20
1.5457
 30
0.0000
 41
2.1032
 42
2.1032
 43
1.0000
 50
270.0000
  0
INSERT
  8
29
  2
RECT
 10
1.3704
 20
9.4457
 30
0.0000
 41
2.1032
 42
2.1032
 43
1.0000
 50
270.0000
  0
INSERT
  8
29
  2
RECT
 10
1.3704
 20
6.6957
 30
0.0000
 41
2.1032
 42
2.1032
 43
1.0000
 50
270.0000
  0
INSERT
  8
29
  2
RECT
 10
1.3704
 20
4.2957
 30
0.0000
 41
2.1032
 42
2.1032
 43
1.0000
 50
270.0000
  0
INSERT
  8
29
  2
OCTAGONV
 10
43.4340
 20
6.4008
 30
0.0000
 41
0.9144
 42
0.9144
 43
1.0000
 50
0.0000
  0
INSERT
  8
29
  2
OCTAGONV
 10
31.3944
 20
19.3548
 30
0.0000
 41
0.9144
 42
0.9144
 43
1.0000
 50
0.0000
  0
INSERT
  8
29
  2
OCTAGONV
 10
17.8308
 20
17.9832
 30
0.0000
 41
0.9144
 42
0.9144
 43
1.0000
 50
0.0000
  0
INSERT
  8
29
  2
OCTAGONV
 10
13.2588
 20
13.5636
 30
0.0000
 41
0.9144
 42
0.9144
 43
1.0000
 50
0.0000
  0
INSERT
  8
29
  2
OCTAGONV
 10
42.5196
 20
9.4488
 30
0.0000
 41
0.9144
 42
0.9144
 43
1.0000
 50
0.0000
  0
INSERT
  8
29
  2
OCTAGONV
 10
15.0876
 20
9.4488
 30
0.0000
 41
0.9144
 42
0.9144
 43
1.0000
 50
0.0000
  0
INSERT
  8
29
  2
OCTAGONV
 10
14.4780
 20
8.2296
 30
0.0000
 41
0.9144
 42
0.9144
 43
1.0000
 50
0.0000
  0
INSERT
  8
29
  2
OCTAGONV
 10
24.9936
 20
16.3068
 30
0.0000
 41
0.9144
 42
0.9144
 43
1.0000
 50
0.0000
  0
INSERT
  8
29
  2
OCTAGONV
 10
44.9580
 20
10.8204
 30
0.0000
 41
0.9144
 42
0.9144
 43
1.0000
 50
0.0000
  0
INSERT
  8
29
  2
OCTAGONV
 10
39.3192
 20
14.4780
 30
0.0000
 41
0.9144
 42
0.9144
 43
1.0000
 50
0.0000
  0
INSERT
  8
29
  2
OCTAGONV
 10
23.3172
 20
7.4676
 30
0.0000
 41
0.9144
 42
0.9144
 43
1.0000
 50
0.0000
  0
INSERT
  8
29
  2
OCTAGONV
 10
38.4048
 20
15.6972
 30
0.0000
 41
0.9144
 42
0.9144
 43
1.0000
 50
0.0000
  0
INSERT
  8
29
  2
OCTAGONV
 10
34.1376
 20
16.6116
 30
0.0000
 41
0.9144
 42
0.9144
 43
1.0000
 50
0.0000
  0
INSERT
  8
29
  2
OCTAGONV
 10
33.3756
 20
8.3820
 30
0.0000
 41
0.9144
 42
0.9144
 43
1.0000
 50
0.0000
  0
INSERT
  8
29
  2
OCTAGONV
 10
23.6220
 20
8.9916
 30
0.0000
 41
0.9144
 42
0.9144
 43
1.0000
 50
0.0000
  0
INSERT
  8
29
  2
OCTAGONV
 10
33.2232
 20
7.4676
 30
0.0000
 41
0.9144
 42
0.9144
 43
1.0000
 50
0.0000
  0
INSERT
  8
29
  2
OCTAGONV
 10
21.3360
 20
8.6868
 30
0.0000
 41
0.9144
 42
0.9144
 43
1.0000
 50
0.0000
  0
INSERT
  8
29
  2
OCTAGONV
 10
33.2232
 20
6.5532
 30
0.0000
 41
0.9144
 42
0.9144
 43
1.0000
 50
0.0000
  0
INSERT
  8
29
  2
OCTAGONV
 10
20.5740
 20
8.0772
 30
0.0000
 41
0.9144
 42
0.9144
 43
1.0000
 50
0.0000
  0
INSERT
  8
29
  2
OCTAGONV
 10
41.3004
 20
6.8580
 30
0.0000
 41
0.9144
 42
0.9144
 43
1.0000
 50
0.0000
  0
INSERT
  8
29
  2
OCTAGONV
 10
18.1356
 20
9.1440
 30
0.0000
 41
0.9144
 42
0.9144
 43
1.0000
 50
0.0000
  0
INSERT
  8
29
  2
OCTAGONV
 10
36.8808
 20
1.6764
 30
0.0000
 41
0.9144
 42
0.9144
 43
1.0000
 50
0.0000
  0
INSERT
  8
29
  2
OCTAGONV
 10
36.1188
 20
2.7432
 30
0.0000
 41
0.9144
 42
0.9144
 43
1.0000
 50
0.0000
  0
INSERT
  8
29
  2
OCTAGONV
 10
26.3652
 20
8.6868
 30
0.0000
 41
0.9144
 42
0.9144
 43
1.0000
 50
0.0000
  0
INSERT
  8
29
  2
OCTAGONV
 10
25.9080
 20
11.2776
 30
0.0000
 41
0.9144
 42
0.9144
 43
1.0000
 50
0.0000
  0
INSERT
  8
29
  2
OCTAGONV
 10
22.8600
 20
11.2776
 30
0.0000
 41
0.9144
 42
0.9144
 43
1.0000
 50
0.0000
  0
INSERT
  8
29
  2
OCTAGONV
 10
17.8308
 20
8.2296
 30
0.0000
 41
0.9144
 42
0.9144
 43
1.0000
 50
0.0000
  0
INSERT
  8
29
  2
OCTAGONV
 10
38.5572
 20
6.5532
 30
0.0000
 41
0.9144
 42
0.9144
 43
1.0000
 50
0.0000
  0
INSERT
  8
29
  2
OCTAGONV
 10
28.6512
 20
9.9060
 30
0.0000
 41
0.9144
 42
0.9144
 43
1.0000
 50
0.0000
  0
INSERT
  8
29
  2
OCTAGONV
 10
21.1836
 20
6.8580
 30
0.0000
 41
0.9144
 42
0.9144
 43
1.0000
 50
0.0000
  0
INSERT
  8
29
  2
OCTAGONV
 10
15.0876
 20
7.4676
 30
0.0000
 41
0.9144
 42
0.9144
 43
1.0000
 50
0.0000
  0
INSERT
  8
29
  2
OCTAGONV
 10
34.2900
 20
8.3820
 30
0.0000
 41
0.9144
 42
0.9144
 43
1.0000
 50
0.0000
  0
INSERT
  8
29
  2
OCTAGONV
 10
18.4404
 20
7.4676
 30
0.0000
 41
0.9144
 42
0.9144
 43
1.0000
 50
0.0000
  0
INSERT
  8
29
  2
OCTAGONV
 10
40.5384
 20
10.6680
 30
0.0000
 41
0.9144
 42
0.9144
 43
1.0000
 50
0.0000
  0
INSERT
  8
29
  2
OCTAGONV
 10
6.5532
 20
18.8976
 30
0.0000
 41
0.9144
 42
0.9144
 43
1.0000
 50
0.0000
  0
INSERT
  8
29
  2
OCTAGONV
 10
9.7536
 20
15.6972
 30
0.0000
 41
0.9144
 42
0.9144
 43
1.0000
 50
0.0000
  0
INSERT
  8
29
  2
OCTAGONV
 10
15.0876
 20
19.3548
 30
0.0000
 41
0.9144
 42
0.9144
 43
1.0000
 50
0.0000
  0
INSERT
  8
29
  2
OCTAGONV
 10
45.5676
 20
3.9624
 30
0.0000
 41
0.9144
 42
0.9144
 43
1.0000
 50
0.0000
  0
INSERT
  8
29
  2
OCTAGONV
 10
37.1856
 20
6.4008
 30
0.0000
 41
0.9144
 42
0.9144
 43
1.0000
 50
0.0000
  0
INSERT
  8
29
  2
OCTAGONV
 10
36.1188
 20
3.6576
 30
0.0000
 41
0.9144
 42
0.9144
 43
1.0000
 50
0.0000
  0
INSERT
  8
29
  2
OCTAGONV
 10
37.0332
 20
25.4508
 30
0.0000
 41
0.9144
 42
0.9144
 43
1.0000
 50
0.0000
  0
INSERT
  8
29
  2
OCTAGONV
 10
28.1940
 20
25.4508
 30
0.0000
 41
0.9144
 42
0.9144
 43
1.0000
 50
0.0000
  0
INSERT
  8
29
  2
OCTAGONV
 10
5.3340
 20
20.1168
 30
0.0000
 41
0.9144
 42
0.9144
 43
1.0000
 50
0.0000
  0
INSERT
  8
29
  2
OCTAGONV
 10
9.7536
 20
20.1168
 30
0.0000
 41
0.9144
 42
0.9144
 43
1.0000
 50
0.0000
  0
INSERT
  8
29
  2
OCTAGONV
 10
17.8308
 20
20.7264
 30
0.0000
 41
0.9144
 42
0.9144
 43
1.0000
 50
0.0000
  0
INSERT
  8
29
  2
OCTAGONV
 10
5.6388
 20
4.1148
 30
0.0000
 41
0.9144
 42
0.9144
 43
1.0000
 50
0.0000
  0
INSERT
  8
29
  2
OCTAGONV
 10
12.6492
 20
1.3716
 30
0.0000
 41
0.9144
 42
0.9144
 43
1.0000
 50
0.0000
  0
INSERT
  8
29
  2
OCTAGONV
 10
44.5008
 20
26.9748
 30
0.0000
 41
0.9144
 42
0.9144
 43
1.0000
 50
0.0000
  0
INSERT
  8
29
  2
OCTAGONV
 10
41.6052
 20
26.9748
 30
0.0000
 41
0.9144
 42
0.9144
 43
1.0000
 50
0.0000
  0
INSERT
  8
29
  2
OCTAGONV
 10
39.7764
 20
10.0584
 30
0.0000
 41
0.9144
 42
0.9144
 43
1.0000
 50
0.0000
  0
INSERT
  8
29
  2
OCTAGONV
 10
36.7284
 20
10.6680
 30
0.0000
 41
0.9144
 42
0.9144
 43
1.0000
 50
0.0000
  0
INSERT
  8
29
  2
OCTAGONV
 10
27.7368
 20
4.5720
 30
0.0000
 41
0.9144
 42
0.9144
 43
1.0000
 50
0.0000
  0
INSERT
  8
29
  2
OCTAGONV
 10
27.7368
 20
3.6576
 30
0.0000
 41
0.9144
 42
0.9144
 43
1.0000
 50
0.0000
  0
INSERT
  8
29
  2
OCTAGONV
 10
29.7180
 20
8.6868
 30
0.0000
 41
0.9144
 42
0.9144
 43
1.0000
 50
0.0000
  0
INSERT
  8
29
  2
OCTAGONV
 10
27.1272
 20
11.2776
 30
0.0000
 41
0.9144
 42
0.9144
 43
1.0000
 50
0.0000
  0
INSERT
  8
29
  2
OCTAGONV
 10
39.1668
 20
16.3068
 30
0.0000
 41
0.9144
 42
0.9144
 43
1.0000
 50
0.0000
  0
INSERT
  8
29
  2
OCTAGONV
 10
41.6052
 20
13.8684
 30
0.0000
 41
0.9144
 42
0.9144
 43
1.0000
 50
0.0000
  0
INSERT
  8
29
  2
OCTAGONV
 10
37.9476
 20
7.4676
 30
0.0000
 41
0.9144
 42
0.9144
 43
1.0000
 50
0.0000
  0
INSERT
  8
29
  2
OCTAGONV
 10
30.4800
 20
9.2964
 30
0.0000
 41
0.9144
 42
0.9144
 43
1.0000
 50
0.0000
  0
INSERT
  8
29
  2
OCTAGONV
 10
30.4800
 20
2.2860
 30
0.0000
 41
0.9144
 42
0.9144
 43
1.0000
 50
0.0000
  0
INSERT
  8
29
  2
OCTAGONV
 10
11.2776
 20
5.3340
 30
0.0000
 41
0.9144
 42
0.9144
 43
1.0000
 50
0.0000
  0
INSERT
  8
29
  2
OCTAGONV
 10
10.3632
 20
6.2484
 30
0.0000
 41
0.9144
 42
0.9144
 43
1.0000
 50
0.0000
  0
INSERT
  8
29
  2
OCTAGONV
 10
9.9060
 20
16.7640
 30
0.0000
 41
0.9144
 42
0.9144
 43
1.0000
 50
0.0000
  0
INSERT
  8
29
  2
OCTAGONV
 10
12.3444
 20
13.8684
 30
0.0000
 41
0.9144
 42
0.9144
 43
1.0000
 50
0.0000
  0
INSERT
  8
29
  2
OCTAGONV
 10
43.2816
 20
10.0584
 30
0.0000
 41
0.9144
 42
0.9144
 43
1.0000
 50
0.0000
  0
INSERT
  8
29
  2
OCTAGONV
 10
30.3276
 20
15.0876
 30
0.0000
 41
0.9144
 42
0.9144
 43
1.0000
 50
0.0000
  0
INSERT
  8
29
  2
OCTAGONV
 10
21.6408
 20
11.5824
 30
0.0000
 41
0.9144
 42
0.9144
 43
1.0000
 50
0.0000
  0
INSERT
  8
29
  2
OCTAGONV
 10
20.7264
 20
10.6680
 30
0.0000
 41
0.9144
 42
0.9144
 43
1.0000
 50
0.0000
  0
INSERT
  8
29
  2
OCTAGONV
 10
42.8244
 20
2.1336
 30
0.0000
 41
0.9144
 42
0.9144
 43
1.0000
 50
0.0000
  0
INSERT
  8
29
  2
OCTAGONV
 10
39.7764
 20
9.1440
 30
0.0000
 41
0.9144
 42
0.9144
 43
1.0000
 50
0.0000
  0
INSERT
  8
29
  2
OCTAGONV
 10
38.5572
 20
10.3632
 30
0.0000
 41
0.9144
 42
0.9144
 43
1.0000
 50
0.0000
  0
INSERT
  8
29
  2
OCTAGONV
 10
26.6700
 20
3.8100
 30
0.0000
 41
0.9144
 42
0.9144
 43
1.0000
 50
0.0000
  0
INSERT
  8
29
  2
OCTAGONV
 10
14.1732
 20
17.5260
 30
0.0000
 41
0.9144
 42
0.9144
 43
1.0000
 50
0.0000
  0
INSERT
  8
29
  2
OCTAGONV
 10
15.0876
 20
18.4404
 30
0.0000
 41
0.9144
 42
0.9144
 43
1.0000
 50
0.0000
  0
INSERT
  8
29
  2
OCTAGONV
 10
2.7432
 20
19.2024
 30
0.0000
 41
0.9144
 42
0.9144
 43
1.0000
 50
0.0000
  0
INSERT
  8
29
  2
OCTAGONV
 10
1.8288
 20
19.0500
 30
0.0000
 41
0.9144
 42
0.9144
 43
1.0000
 50
0.0000
  0
INSERT
  8
29
  2
OCTAGONV
 10
15.0876
 20
20.5740
 30
0.0000
 41
0.9144
 42
0.9144
 43
1.0000
 50
0.0000
  0
INSERT
  8
29
  2
OCTAGONV
 10
42.5196
 20
6.4008
 30
0.0000
 41
0.9144
 42
0.9144
 43
1.0000
 50
0.0000
  0
INSERT
  8
29
  2
OCTAGONV
 10
45.2628
 20
8.6868
 30
0.0000
 41
0.9144
 42
0.9144
 43
1.0000
 50
0.0000
  0
INSERT
  8
29
  2
OCTAGONV
 10
46.1772
 20
7.7724
 30
0.0000
 41
0.9144
 42
0.9144
 43
1.0000
 50
0.0000
  0
INSERT
  8
29
  2
OCTAGONV
 10
46.1772
 20
18.2880
 30
0.0000
 41
0.9144
 42
0.9144
 43
1.0000
 50
0.0000
  0
INSERT
  8
29
  2
OCTAGONV
 10
44.3484
 20
24.3840
 30
0.0000
 41
0.9144
 42
0.9144
 43
1.0000
 50
0.0000
  0
INSERT
  8
29
  2
OCTAGONV
 10
33.2232
 20
23.7744
 30
0.0000
 41
0.9144
 42
0.9144
 43
1.0000
 50
0.0000
  0
INSERT
  8
29
  2
OCTAGONV
 10
6.5532
 20
6.8580
 30
0.0000
 41
0.9144
 42
0.9144
 43
1.0000
 50
0.0000
  0
INSERT
  8
29
  2
OCTAGONV
 10
9.7536
 20
7.4676
 30
0.0000
 41
0.9144
 42
0.9144
 43
1.0000
 50
0.0000
  0
INSERT
  8
29
  2
OCTAGONV
 10
5.3340
 20
7.0104
 30
0.0000
 41
0.9144
 42
0.9144
 43
1.0000
 50
0.0000
  0
INSERT
  8
29
  2
OCTAGONV
 10
8.2296
 20
1.8288
 30
0.0000
 41
0.9144
 42
0.9144
 43
1.0000
 50
0.0000
  0
INSERT
  8
29
  2
OCTAGONV
 10
44.0436
 20
2.2860
 30
0.0000
 41
0.9144
 42
0.9144
 43
1.0000
 50
0.0000
  0
INSERT
  8
29
  2
OCTAGONV
 10
45.5676
 20
6.4008
 30
0.0000
 41
0.9144
 42
0.9144
 43
1.0000
 50
0.0000
  0
INSERT
  8
29
  2
OCTAGONV
 10
17.8308
 20
19.8120
 30
0.0000
 41
0.9144
 42
0.9144
 43
1.0000
 50
0.0000
  0
INSERT
  8
29
  2
OCTAGONV
 10
28.1940
 20
14.4780
 30
0.0000
 41
0.9144
 42
0.9144
 43
1.0000
 50
0.0000
  0
INSERT
  8
29
  2
OCTAGONV
 10
29.5656
 20
14.4780
 30
0.0000
 41
0.9144
 42
0.9144
 43
1.0000
 50
0.0000
  0
INSERT
  8
29
  2
OCTAGONV
 10
32.9184
 20
14.1732
 30
0.0000
 41
0.9144
 42
0.9144
 43
1.0000
 50
0.0000
  0
INSERT
  8
29
  2
OCTAGONV
 10
6.8580
 20
24.8412
 30
0.0000
 41
0.9144
 42
0.9144
 43
1.0000
 50
0.0000
  0
INSERT
  8
29
  2
OCTAGONV
 10
11.2776
 20
11.8872
 30
0.0000
 41
0.9144
 42
0.9144
 43
1.0000
 50
0.0000
  0
INSERT
  8
29
  2
OCTAGONV
 10
39.6240
 20
18.4404
 30
0.0000
 41
0.9144
 42
0.9144
 43
1.0000
 50
0.0000
  0
INSERT
  8
29
  2
OCTAGONV
 10
6.7056
 20
17.3736
 30
0.0000
 41
0.9144
 42
0.9144
 43
1.0000
 50
0.0000
  0
INSERT
  8
29
  2
OCTAGONV
 10
10.2108
 20
9.9060
 30
0.0000
 41
0.9144
 42
0.9144
 43
1.0000
 50
0.0000
  0
INSERT
  8
29
  2
OCTAGONV
 10
43.7388
 20
8.9916
 30
0.0000
 41
0.9144
 42
0.9144
 43
1.0000
 50
0.0000
  0
INSERT
  8
29
  2
OCTAGONV
 10
33.3756
 20
17.3736
 30
0.0000
 41
0.9144
 42
0.9144
 43
1.0000
 50
0.0000
  0
INSERT
  8
29
  2
OCTAGONV
 10
26.9748
 20
17.3736
 30
0.0000
 41
0.9144
 42
0.9144
 43
1.0000
 50
0.0000
  0
INSERT
  8
29
  2
OCTAGONV
 10
13.1064
 20
11.8872
 30
0.0000
 41
0.9144
 42
0.9144
 43
1.0000
 50
0.0000
  0
ENDSEC
  0
EOF
