G75*
G70*
%OFA0B0*%
%FSLAX24Y24*%
%IPPOS*%
%LPD*%
%AMOC8*
5,1,8,0,0,1.08239X$1,22.5*
%
%ADD10R,0.0394X0.0433*%
%ADD11R,0.0197X0.0472*%
%ADD12R,0.0472X0.0197*%
%ADD13R,0.0650X0.0551*%
%ADD14R,0.0276X0.0354*%
%ADD15R,0.0354X0.0276*%
%ADD16R,0.0433X0.0394*%
%ADD17R,0.0472X0.0217*%
%ADD18R,0.2000X0.1000*%
%ADD19R,0.2000X0.2000*%
%ADD20C,0.0060*%
%ADD21OC8,0.0280*%
%ADD22C,0.0160*%
D10*
X001093Y001869D03*
X001658Y001891D03*
X002277Y001888D03*
X002277Y002558D03*
X001658Y002560D03*
X001093Y002538D03*
X005275Y002514D03*
X005275Y003184D03*
X011787Y006109D03*
X011787Y006778D03*
D11*
X010795Y003068D03*
X010480Y003068D03*
X010165Y003068D03*
X009850Y003068D03*
X009535Y003068D03*
X009220Y003068D03*
X009220Y002202D03*
X009535Y002202D03*
X009850Y002202D03*
X010165Y002202D03*
X010480Y002202D03*
X010795Y002202D03*
D12*
X010834Y002635D03*
X009181Y002635D03*
D13*
X012891Y003544D03*
X013635Y003544D03*
X014384Y003544D03*
X015132Y003543D03*
X015883Y003545D03*
X016629Y003544D03*
X017382Y003544D03*
X018131Y003544D03*
X018880Y003544D03*
X018875Y010352D03*
X018131Y010351D03*
X017382Y010351D03*
X016634Y010352D03*
X015883Y010350D03*
X015137Y010351D03*
X014384Y010351D03*
X013635Y010351D03*
X012886Y010351D03*
D14*
X003833Y003142D03*
X003322Y003142D03*
X012570Y002824D03*
X013082Y002824D03*
X014051Y002823D03*
X014563Y002823D03*
X014556Y002339D03*
X014044Y002339D03*
X015582Y002258D03*
X016094Y002258D03*
X016072Y002820D03*
X015560Y002820D03*
X017059Y002797D03*
X017571Y002797D03*
D15*
X018493Y002475D03*
X018493Y001964D03*
X019212Y001973D03*
X019212Y002485D03*
X011852Y009124D03*
X011852Y009636D03*
X012207Y011518D03*
X012207Y012030D03*
X011146Y012046D03*
X011146Y011534D03*
X015757Y011542D03*
X015757Y012054D03*
X004552Y003106D03*
X004552Y002595D03*
D16*
X004590Y001914D03*
X005259Y001914D03*
X012812Y011432D03*
X012812Y012101D03*
X013743Y012124D03*
X013743Y011454D03*
X014847Y011461D03*
X014847Y012130D03*
X016662Y012123D03*
X016662Y011454D03*
X017795Y011473D03*
X017795Y012142D03*
X018970Y012127D03*
X018970Y011457D03*
D17*
X003964Y002546D03*
X002940Y002546D03*
X002940Y002172D03*
X002940Y001798D03*
X003964Y001798D03*
D18*
X007167Y002633D03*
X007167Y011483D03*
D19*
X007167Y007058D03*
D20*
X007126Y007022D01*
X006466Y007022D01*
X006046Y006602D01*
X005266Y006602D01*
X003586Y008282D01*
X003586Y008462D01*
X003466Y008582D01*
X002806Y008582D01*
X002806Y009422D01*
X004546Y009422D01*
X005266Y009122D02*
X004186Y008042D01*
X003286Y008942D01*
X002806Y008582D02*
X002806Y008282D01*
X003226Y007862D01*
X003226Y004502D01*
X003046Y004322D01*
X003046Y003122D01*
X003286Y003122D01*
X003322Y003142D01*
X003286Y003122D02*
X003286Y002402D01*
X003106Y002222D01*
X002986Y002222D01*
X002940Y002172D01*
X002926Y002522D02*
X002806Y002522D01*
X002566Y002282D01*
X002566Y001802D01*
X002926Y001802D01*
X002940Y001798D01*
X002986Y001742D01*
X003466Y002222D01*
X003586Y002222D01*
X003586Y003362D01*
X004306Y004082D01*
X004546Y004082D01*
X004966Y004502D01*
X004966Y006002D01*
X004906Y006062D01*
X004906Y006302D01*
X005026Y006422D01*
X005266Y006422D01*
X006166Y005522D01*
X006166Y003602D01*
X007126Y002642D01*
X007167Y002633D01*
X007486Y003242D02*
X008566Y003242D01*
X009166Y002642D01*
X009181Y002635D01*
X009220Y002202D02*
X009226Y002042D01*
X006106Y002042D01*
X006046Y002102D01*
X006046Y003062D01*
X005266Y003842D01*
X005146Y003842D01*
X005146Y006182D01*
X005866Y006182D02*
X006106Y005942D01*
X008206Y005942D01*
X010606Y008342D01*
X011326Y008342D01*
X010546Y007922D02*
X010366Y007922D01*
X008026Y005582D01*
X006646Y005582D01*
X006406Y005342D01*
X006406Y005102D01*
X007306Y004202D01*
X008086Y004202D01*
X008326Y004442D01*
X009166Y004442D01*
X009286Y004322D01*
X009286Y003182D01*
X009226Y003122D01*
X009220Y003068D01*
X009535Y003068D02*
X009586Y003122D01*
X009586Y003302D01*
X009886Y003602D01*
X009886Y004442D01*
X010006Y004682D02*
X008806Y004682D01*
X008746Y004922D02*
X008446Y004922D01*
X007966Y004442D01*
X008266Y004202D02*
X008146Y004082D01*
X007006Y004082D01*
X006646Y004442D01*
X006406Y004322D02*
X007486Y003242D01*
X008266Y004202D02*
X009046Y004202D01*
X009226Y004802D02*
X009106Y004922D01*
X009226Y004802D02*
X010066Y004802D01*
X010426Y004442D01*
X013786Y004442D01*
X013846Y004802D02*
X013666Y004802D01*
X013426Y004562D01*
X010486Y004562D01*
X010006Y005042D01*
X010126Y005282D02*
X009106Y005282D01*
X008746Y004922D01*
X008386Y005402D02*
X008086Y005102D01*
X007846Y005102D01*
X007606Y005222D02*
X007726Y005342D01*
X008146Y005342D01*
X009106Y006302D01*
X009346Y006302D01*
X009706Y005942D01*
X009226Y006062D02*
X008866Y005702D01*
X008386Y005402D02*
X009526Y005402D01*
X010546Y006422D01*
X012046Y006422D01*
X012226Y006242D01*
X016486Y006242D01*
X016966Y005762D01*
X016966Y004202D01*
X017446Y004022D02*
X018346Y004922D01*
X018526Y004922D01*
X018766Y004802D02*
X018766Y005942D01*
X015586Y009122D01*
X013066Y009122D01*
X012346Y008642D02*
X011866Y009122D01*
X011852Y009124D01*
X011806Y009182D01*
X007846Y009182D01*
X007726Y009302D01*
X007666Y009302D01*
X005686Y011282D01*
X003406Y011282D01*
X002146Y009782D02*
X006466Y009782D01*
X006646Y009602D01*
X006766Y009362D02*
X006886Y009242D01*
X006886Y009002D01*
X006646Y008762D01*
X006286Y008402D01*
X006406Y008162D02*
X006106Y008162D01*
X005926Y007982D01*
X005926Y006842D01*
X005566Y006962D02*
X005566Y007022D01*
X004606Y007982D01*
X004606Y008102D01*
X004186Y008042D02*
X004546Y007682D01*
X003346Y008342D02*
X003346Y006782D01*
X004726Y005402D01*
X004546Y004442D02*
X004306Y004202D01*
X003286Y004202D01*
X002806Y004262D02*
X001126Y002582D01*
X001093Y002538D01*
X001426Y002342D02*
X001606Y002522D01*
X001658Y002560D01*
X001666Y002582D01*
X002266Y002582D01*
X002277Y002558D01*
X002326Y002582D01*
X002866Y003122D01*
X002926Y003122D01*
X003046Y003122D01*
X002940Y002546D02*
X002926Y002522D01*
X003586Y002222D02*
X003946Y002222D01*
X003964Y002546D02*
X004006Y002582D01*
X004006Y003122D01*
X003946Y003122D01*
X003833Y003142D01*
X003886Y003122D01*
X003946Y003122D01*
X004786Y003962D01*
X005026Y003842D02*
X005146Y003842D01*
X005026Y003842D02*
X004906Y003722D01*
X004906Y002942D01*
X004606Y002642D01*
X004552Y002595D01*
X004606Y002582D01*
X004606Y002402D01*
X004006Y001802D01*
X003964Y001798D01*
X004590Y001914D02*
X004606Y001922D01*
X004606Y002402D01*
X005266Y002462D02*
X005266Y001922D01*
X005259Y001914D01*
X005266Y001862D01*
X005686Y001862D01*
X005686Y002042D01*
X005686Y001862D02*
X009226Y001862D01*
X009346Y001742D01*
X011446Y001742D01*
X012526Y002822D01*
X012570Y002824D01*
X012586Y002882D01*
X012586Y003242D01*
X012886Y003542D01*
X012891Y003544D01*
X012946Y003542D01*
X013606Y003542D01*
X013635Y003544D01*
X013666Y003602D01*
X014086Y004022D01*
X015346Y004022D01*
X015646Y004082D02*
X014326Y005402D01*
X011986Y005402D01*
X011746Y005522D02*
X011866Y005642D01*
X014266Y005642D01*
X015466Y004442D01*
X015646Y004442D01*
X015646Y004082D02*
X015886Y004082D01*
X015883Y003545D02*
X015886Y003542D01*
X016066Y003362D01*
X016066Y002822D01*
X016072Y002820D01*
X015586Y002762D02*
X015560Y002820D01*
X015586Y002762D02*
X016066Y002282D01*
X016094Y002258D01*
X016126Y002282D01*
X016606Y002762D01*
X017026Y002762D01*
X017059Y002797D01*
X017326Y003002D02*
X017326Y002582D01*
X016726Y001982D01*
X015826Y001982D01*
X015586Y002222D01*
X015582Y002258D01*
X015526Y002282D01*
X015166Y002642D01*
X015166Y002702D01*
X014926Y002942D01*
X014926Y002582D02*
X015226Y002282D01*
X015226Y002162D01*
X015166Y001862D02*
X014746Y002282D01*
X014566Y002282D01*
X014556Y002339D01*
X014086Y002342D02*
X014044Y002339D01*
X014086Y002342D02*
X014086Y002822D01*
X014051Y002823D01*
X014026Y002822D01*
X013126Y002822D01*
X013082Y002824D01*
X012706Y002402D02*
X013486Y002402D01*
X014146Y001742D01*
X018286Y001742D01*
X018466Y001922D01*
X018493Y001964D01*
X018286Y002282D02*
X018166Y002162D01*
X017926Y002162D01*
X017806Y002282D01*
X017806Y003062D01*
X017746Y003122D01*
X017446Y003122D01*
X017326Y003002D01*
X017571Y002797D02*
X017566Y002762D01*
X017566Y002342D01*
X017086Y001862D01*
X015166Y001862D01*
X014563Y002823D02*
X014506Y002882D01*
X014506Y003422D01*
X014386Y003542D01*
X014384Y003544D01*
X013786Y004082D02*
X010606Y004082D01*
X010006Y004682D01*
X010126Y005282D02*
X010726Y004682D01*
X013366Y004682D01*
X013726Y005042D01*
X013966Y005042D01*
X014206Y004802D01*
X015166Y005702D02*
X015286Y005822D01*
X016006Y005822D01*
X016366Y005462D01*
X016366Y005102D02*
X015886Y005582D01*
X016306Y006062D02*
X016666Y005702D01*
X016306Y006062D02*
X011806Y006062D01*
X011787Y006109D01*
X011386Y005942D02*
X011386Y005462D01*
X011926Y004922D01*
X012406Y004922D01*
X012706Y005162D02*
X011866Y005162D01*
X011746Y005282D01*
X011746Y005522D01*
X011086Y005762D02*
X010906Y005942D01*
X011086Y005762D02*
X011086Y004922D01*
X010126Y003542D02*
X012886Y003542D01*
X011626Y003302D02*
X011506Y003422D01*
X010666Y003422D01*
X010486Y003242D01*
X010486Y003122D01*
X010480Y003068D01*
X010795Y003068D02*
X010846Y003122D01*
X010966Y003122D01*
X011086Y003242D01*
X011326Y003242D01*
X011626Y002942D01*
X011206Y003002D02*
X010846Y002642D01*
X010834Y002635D01*
X010426Y002462D02*
X010306Y002582D01*
X010066Y002582D01*
X009886Y002402D01*
X009850Y002202D01*
X009826Y002222D01*
X009706Y002222D01*
X009886Y002402D01*
X009886Y003062D01*
X009850Y003068D01*
X009886Y003122D01*
X009886Y003302D01*
X010126Y003542D01*
X010426Y002462D02*
X010426Y002222D01*
X010480Y002202D01*
X010786Y002162D02*
X010786Y002042D01*
X010606Y001862D01*
X009406Y001862D01*
X009226Y002042D01*
X009226Y002162D01*
X009220Y002202D01*
X009535Y002202D02*
X009586Y002222D01*
X009706Y002222D01*
X010786Y002162D02*
X010795Y002202D01*
X007726Y004742D02*
X007606Y004862D01*
X007606Y005222D01*
X008086Y005462D02*
X006886Y005462D01*
X006646Y005222D01*
X006406Y004742D02*
X006406Y004322D01*
X005266Y003482D02*
X005146Y003602D01*
X005266Y003482D02*
X005266Y003242D01*
X005275Y003184D01*
X004552Y003106D02*
X004546Y003122D01*
X004006Y003122D01*
X005275Y002514D02*
X005266Y002462D01*
X002566Y001802D02*
X002386Y001802D01*
X002326Y001862D01*
X002277Y001888D01*
X002266Y001922D01*
X001666Y001922D01*
X001658Y001891D01*
X001366Y002102D02*
X001366Y002222D01*
X001426Y002282D01*
X001426Y002342D01*
X001366Y002102D02*
X001306Y002042D01*
X001246Y002042D01*
X001126Y001922D01*
X001093Y001869D01*
X008086Y005462D02*
X010066Y007442D01*
X011926Y007442D01*
X012046Y007322D01*
X012046Y007142D01*
X012826Y006362D01*
X016606Y006362D01*
X017446Y005522D01*
X017446Y005222D01*
X017746Y005462D02*
X016726Y006482D01*
X013606Y006482D01*
X012646Y007442D01*
X012346Y007202D02*
X012346Y008402D01*
X013666Y007082D01*
X014506Y007682D02*
X014146Y008042D01*
X013846Y008342D02*
X016186Y008342D01*
X018646Y005882D01*
X018646Y005642D01*
X018046Y005042D01*
X017926Y005042D01*
X018766Y004802D02*
X017986Y004022D01*
X017806Y004022D01*
X018166Y003542D02*
X018526Y003902D01*
X018826Y003602D01*
X018880Y003544D01*
X019126Y003302D01*
X019126Y008822D01*
X018886Y009062D01*
X016606Y009062D01*
X016306Y008762D01*
X016126Y007922D02*
X017086Y006962D01*
X016186Y007202D02*
X017626Y005762D01*
X018406Y005762D01*
X018886Y004562D02*
X018886Y008702D01*
X018886Y009062D02*
X018886Y010322D01*
X018875Y010352D01*
X018886Y010382D01*
X018946Y010442D01*
X018946Y011402D01*
X018970Y011457D01*
X018166Y011102D02*
X017806Y011462D01*
X017795Y011473D01*
X017146Y011822D02*
X017446Y012122D01*
X017746Y012122D01*
X017795Y012142D01*
X018226Y012122D02*
X018946Y012122D01*
X018970Y012127D01*
X017146Y011822D02*
X014506Y011822D01*
X014446Y011762D01*
X011986Y011762D01*
X011746Y012002D01*
X011206Y012002D01*
X011146Y012046D01*
X011146Y011534D02*
X011206Y011522D01*
X011746Y011522D01*
X011806Y011522D01*
X012166Y011522D01*
X012207Y011518D01*
X011746Y011522D02*
X012886Y010382D01*
X012886Y010351D01*
X012886Y010322D01*
X012226Y009662D01*
X011866Y009662D01*
X011852Y009636D01*
X011806Y009662D01*
X007726Y009662D01*
X006766Y009362D02*
X005626Y009362D01*
X005326Y009662D01*
X002686Y009662D01*
X002086Y009062D01*
X001786Y009062D01*
X001546Y009122D02*
X001546Y009182D01*
X002146Y009782D01*
X001546Y009122D02*
X001426Y009002D01*
X005266Y009122D02*
X006646Y009122D01*
X006826Y008582D02*
X006406Y008162D01*
X006826Y008582D02*
X007726Y008582D01*
X011806Y007202D02*
X011806Y006782D01*
X011787Y006778D01*
X012346Y008402D02*
X012346Y008642D01*
X014506Y007682D02*
X015826Y007682D01*
X015883Y010350D02*
X015886Y010382D01*
X014866Y011402D01*
X014847Y011461D01*
X015286Y011522D02*
X015706Y011522D01*
X015757Y011542D01*
X015757Y012054D02*
X015766Y012062D01*
X016546Y012062D01*
X016606Y012122D01*
X016662Y012123D01*
X016666Y012122D01*
X017086Y012122D01*
X016662Y011454D02*
X016666Y011402D01*
X016666Y011102D01*
X017386Y010382D01*
X017382Y010351D01*
X014847Y012130D02*
X014806Y012122D01*
X014506Y011822D01*
X013743Y012124D02*
X013726Y012122D01*
X012826Y012122D01*
X012812Y012101D01*
X012766Y012062D01*
X012226Y012062D01*
X012207Y012030D01*
X012812Y011432D02*
X012826Y011402D01*
X013246Y011402D01*
X013786Y010862D01*
X013786Y011222D02*
X014326Y010682D01*
X014326Y010382D01*
X014384Y010351D01*
X013786Y011222D02*
X013786Y011402D01*
X013743Y011454D01*
X018646Y004022D02*
X018526Y003902D01*
X018880Y003544D02*
X018886Y003542D01*
X019126Y003302D01*
X019186Y003242D01*
X019186Y002522D01*
X019212Y002485D01*
X019066Y001982D02*
X018646Y002402D01*
X018493Y002475D01*
X018526Y002522D01*
X018646Y002402D01*
X018646Y003062D01*
X018466Y002522D02*
X018493Y002475D01*
X018466Y002522D02*
X018286Y002342D01*
X018286Y002282D01*
X018046Y002402D02*
X018046Y003482D01*
X018106Y003542D01*
X018131Y003544D01*
X018166Y003542D01*
X019066Y001982D02*
X019186Y001982D01*
X019212Y001973D01*
D21*
X018046Y002402D03*
X017566Y002342D03*
X018646Y003062D03*
X018646Y004022D03*
X018886Y004562D03*
X018526Y004922D03*
X017926Y005042D03*
X017446Y005222D03*
X017746Y005462D03*
X018406Y005762D03*
X016666Y005702D03*
X016366Y005462D03*
X016366Y005102D03*
X015886Y005582D03*
X015166Y005702D03*
X014206Y004802D03*
X013846Y004802D03*
X013786Y004442D03*
X013786Y004082D03*
X012406Y004922D03*
X012706Y005162D03*
X011986Y005402D03*
X011386Y005942D03*
X010906Y005942D03*
X009706Y005942D03*
X009226Y006062D03*
X008866Y005702D03*
X007846Y005102D03*
X007726Y004742D03*
X007966Y004442D03*
X008806Y004682D03*
X009106Y004922D03*
X009886Y004442D03*
X010006Y005042D03*
X011086Y004922D03*
X009046Y004202D03*
X011206Y003002D03*
X011626Y002942D03*
X011626Y003302D03*
X012706Y002402D03*
X014926Y002582D03*
X014926Y002942D03*
X015226Y002162D03*
X015346Y004022D03*
X015886Y004082D03*
X015646Y004442D03*
X016966Y004202D03*
X017446Y004022D03*
X017806Y004022D03*
X017086Y006962D03*
X016186Y007202D03*
X015826Y007682D03*
X016126Y007922D03*
X016306Y008762D03*
X014146Y008042D03*
X013846Y008342D03*
X013066Y009122D03*
X011326Y008342D03*
X010546Y007922D03*
X011806Y007202D03*
X012346Y007202D03*
X012646Y007442D03*
X013666Y007082D03*
X018886Y008702D03*
X018166Y011102D03*
X018226Y012122D03*
X017086Y012122D03*
X015286Y011522D03*
X013786Y010862D03*
X011806Y011522D03*
X007726Y009662D03*
X007726Y009302D03*
X007726Y008582D03*
X006646Y008762D03*
X006646Y009122D03*
X006646Y009602D03*
X006286Y008402D03*
X004606Y008102D03*
X004546Y007682D03*
X005566Y006962D03*
X005926Y006842D03*
X005866Y006182D03*
X005146Y006182D03*
X004726Y005402D03*
X004546Y004442D03*
X004786Y003962D03*
X005146Y003602D03*
X006646Y004442D03*
X006406Y004742D03*
X006646Y005222D03*
X003286Y004202D03*
X002806Y004262D03*
X002926Y003122D03*
X003946Y002222D03*
X005686Y002042D03*
X003346Y008342D03*
X003286Y008942D03*
X002806Y009422D03*
X001786Y009062D03*
X001426Y009002D03*
X004546Y009422D03*
X003406Y011282D03*
D22*
X003593Y011490D02*
X006027Y011490D01*
X006027Y011331D02*
X005876Y011331D01*
X005756Y011452D02*
X005615Y011452D01*
X003631Y011452D01*
X003521Y011562D01*
X003290Y011562D01*
X003126Y011398D01*
X003126Y011166D01*
X003290Y011002D01*
X003521Y011002D01*
X003631Y011112D01*
X005615Y011112D01*
X007446Y009281D01*
X007446Y009186D01*
X007610Y009022D01*
X007765Y009022D01*
X007775Y009012D01*
X007916Y009012D01*
X011535Y009012D01*
X011535Y008928D01*
X011617Y008846D01*
X011901Y008846D01*
X012176Y008571D01*
X012176Y008472D01*
X012176Y008331D01*
X012176Y007432D01*
X012095Y007512D01*
X011996Y007612D01*
X010296Y007612D01*
X010378Y007694D01*
X010430Y007642D01*
X010661Y007642D01*
X010825Y007806D01*
X010825Y008038D01*
X010691Y008172D01*
X011100Y008172D01*
X011210Y008062D01*
X011441Y008062D01*
X011605Y008226D01*
X011605Y008458D01*
X011441Y008622D01*
X011210Y008622D01*
X011100Y008512D01*
X010676Y008512D01*
X010535Y008512D01*
X008347Y006323D01*
X008347Y006978D01*
X007247Y006978D01*
X007247Y007138D01*
X008347Y007138D01*
X008347Y008133D01*
X008241Y008238D01*
X007247Y008238D01*
X007247Y007138D01*
X007087Y007138D01*
X007087Y008238D01*
X006722Y008238D01*
X006896Y008412D01*
X007500Y008412D01*
X007610Y008302D01*
X007841Y008302D01*
X008005Y008466D01*
X008005Y008698D01*
X007841Y008862D01*
X007610Y008862D01*
X007500Y008752D01*
X006925Y008752D01*
X006925Y008801D01*
X007055Y008931D01*
X007055Y009072D01*
X007055Y009312D01*
X006956Y009412D01*
X006904Y009464D01*
X006925Y009486D01*
X006925Y009718D01*
X006761Y009882D01*
X006606Y009882D01*
X006536Y009952D01*
X006395Y009952D01*
X002075Y009952D01*
X001976Y009852D01*
X001405Y009282D01*
X001310Y009282D01*
X001146Y009118D01*
X001146Y008886D01*
X001310Y008722D01*
X001541Y008722D01*
X001635Y008816D01*
X001670Y008782D01*
X001901Y008782D01*
X002011Y008892D01*
X002015Y008892D01*
X002156Y008892D01*
X002756Y009492D01*
X005255Y009492D01*
X005455Y009292D01*
X005336Y009292D01*
X005195Y009292D01*
X004185Y008282D01*
X003565Y008902D01*
X003565Y009058D01*
X003401Y009222D01*
X003170Y009222D01*
X003006Y009058D01*
X003006Y008826D01*
X003170Y008662D01*
X003325Y008662D01*
X003365Y008622D01*
X003230Y008622D01*
X003066Y008458D01*
X003066Y008226D01*
X003176Y008116D01*
X003176Y007908D01*
X003126Y008028D01*
X002901Y008253D01*
X002901Y008253D01*
X002607Y008375D01*
X002522Y008375D01*
X002454Y008375D01*
X002448Y008375D01*
X002373Y008375D01*
X000885Y008375D01*
X000885Y012345D01*
X012456Y012345D01*
X012456Y012294D01*
X012442Y012308D01*
X011972Y012308D01*
X011890Y012226D01*
X011890Y012098D01*
X011816Y012172D01*
X011675Y012172D01*
X011463Y012172D01*
X011463Y012242D01*
X011381Y012324D01*
X010911Y012324D01*
X010829Y012242D01*
X010829Y011850D01*
X010861Y011818D01*
X010789Y011746D01*
X010789Y011534D01*
X011146Y011534D01*
X011146Y011534D01*
X010789Y011534D01*
X010789Y011322D01*
X010894Y011216D01*
X011146Y011216D01*
X011146Y011534D01*
X011146Y011534D01*
X011146Y011216D01*
X011398Y011216D01*
X011503Y011322D01*
X011503Y011534D01*
X011503Y011746D01*
X011431Y011818D01*
X011445Y011832D01*
X011675Y011832D01*
X011816Y011691D01*
X011850Y011657D01*
X011850Y011518D01*
X011850Y011306D01*
X011955Y011200D01*
X012206Y011200D01*
X012206Y011518D01*
X011850Y011518D01*
X012206Y011518D01*
X012206Y011518D01*
X012207Y011518D01*
X012207Y011200D01*
X012456Y011200D01*
X012456Y011177D01*
X012538Y011095D01*
X013087Y011095D01*
X013169Y011177D01*
X013169Y011232D01*
X013175Y011232D01*
X013506Y010901D01*
X013506Y010766D01*
X013325Y010766D01*
X013285Y010806D01*
X012944Y010806D01*
X012944Y010409D01*
X012828Y010409D01*
X012828Y010806D01*
X012487Y010806D01*
X012381Y010701D01*
X012381Y010409D01*
X012828Y010409D01*
X012828Y010293D01*
X012381Y010293D01*
X012381Y010001D01*
X012487Y009895D01*
X012828Y009895D01*
X012828Y010293D01*
X012944Y010293D01*
X012944Y009895D01*
X013285Y009895D01*
X013325Y009935D01*
X014018Y009935D01*
X014018Y009936D01*
X014767Y009936D01*
X015499Y009936D01*
X015500Y009935D01*
X016266Y009935D01*
X016267Y009936D01*
X016998Y009936D01*
X016999Y009936D01*
X017748Y009936D01*
X018513Y009936D01*
X018514Y009936D01*
X018716Y009936D01*
X018716Y009232D01*
X016676Y009232D01*
X016535Y009232D01*
X016345Y009042D01*
X016190Y009042D01*
X016048Y008900D01*
X015755Y009192D01*
X015656Y009292D01*
X013291Y009292D01*
X013181Y009402D01*
X012950Y009402D01*
X012786Y009238D01*
X012786Y009006D01*
X012950Y008842D01*
X013181Y008842D01*
X013291Y008952D01*
X015515Y008952D01*
X015955Y008512D01*
X014071Y008512D01*
X013961Y008622D01*
X013730Y008622D01*
X013566Y008458D01*
X013566Y008226D01*
X013730Y008062D01*
X013866Y008062D01*
X013866Y007926D01*
X014030Y007762D01*
X014185Y007762D01*
X014435Y007512D01*
X014576Y007512D01*
X015600Y007512D01*
X015710Y007402D01*
X015941Y007402D01*
X016105Y007566D01*
X016105Y007642D01*
X016165Y007642D01*
X016806Y007001D01*
X016806Y006846D01*
X016970Y006682D01*
X017201Y006682D01*
X017365Y006846D01*
X017365Y006921D01*
X018267Y006019D01*
X018180Y005932D01*
X017696Y005932D01*
X016465Y007162D01*
X016465Y007318D01*
X016301Y007482D01*
X016070Y007482D01*
X015906Y007318D01*
X015906Y007086D01*
X016070Y006922D01*
X016225Y006922D01*
X016495Y006652D01*
X013676Y006652D01*
X012925Y007402D01*
X012925Y007558D01*
X012761Y007722D01*
X012530Y007722D01*
X012515Y007708D01*
X012515Y007991D01*
X013386Y007121D01*
X013386Y006966D01*
X013550Y006802D01*
X013781Y006802D01*
X013945Y006966D01*
X013945Y007198D01*
X013781Y007362D01*
X013626Y007362D01*
X012515Y008472D01*
X012515Y008571D01*
X012515Y008712D01*
X012169Y009059D01*
X012169Y009320D01*
X012137Y009352D01*
X012209Y009423D01*
X012209Y009636D01*
X012209Y009848D01*
X012104Y009954D01*
X011852Y009954D01*
X011852Y009636D01*
X011852Y009636D01*
X011852Y009954D01*
X011600Y009954D01*
X011495Y009848D01*
X011495Y009636D01*
X011852Y009636D01*
X012209Y009636D01*
X011852Y009636D01*
X011852Y009636D01*
X011852Y009636D01*
X011495Y009636D01*
X011495Y009423D01*
X011567Y009352D01*
X008005Y009352D01*
X008005Y009418D01*
X007841Y009582D01*
X007626Y009582D01*
X006365Y010843D01*
X008225Y010843D01*
X008307Y010925D01*
X008307Y012041D01*
X008225Y012123D01*
X006109Y012123D01*
X006027Y012041D01*
X006027Y011181D01*
X005756Y011452D01*
X006027Y011649D02*
X000885Y011649D01*
X000885Y011807D02*
X006027Y011807D01*
X006027Y011966D02*
X000885Y011966D01*
X000885Y012124D02*
X010829Y012124D01*
X010829Y011966D02*
X008307Y011966D01*
X008307Y011807D02*
X010850Y011807D01*
X010789Y011649D02*
X008307Y011649D01*
X008307Y011490D02*
X010789Y011490D01*
X010789Y011331D02*
X008307Y011331D01*
X008307Y011173D02*
X012459Y011173D01*
X012207Y011331D02*
X012206Y011331D01*
X012206Y011490D02*
X012207Y011490D01*
X011850Y011490D02*
X011503Y011490D01*
X011503Y011534D02*
X011147Y011534D01*
X011503Y011534D01*
X011503Y011649D02*
X011850Y011649D01*
X011700Y011807D02*
X011443Y011807D01*
X011147Y011534D02*
X011147Y011534D01*
X011146Y011490D02*
X011146Y011490D01*
X011146Y011331D02*
X011146Y011331D01*
X011503Y011331D02*
X011850Y011331D01*
X012381Y010697D02*
X006510Y010697D01*
X006669Y010539D02*
X012381Y010539D01*
X012381Y010222D02*
X006986Y010222D01*
X006827Y010380D02*
X012828Y010380D01*
X012828Y010222D02*
X012944Y010222D01*
X012944Y010063D02*
X012828Y010063D01*
X012828Y009905D02*
X012944Y009905D01*
X013295Y009905D02*
X018716Y009905D01*
X018716Y009746D02*
X012209Y009746D01*
X012209Y009587D02*
X018716Y009587D01*
X018716Y009429D02*
X012209Y009429D01*
X012169Y009270D02*
X012818Y009270D01*
X012786Y009112D02*
X012169Y009112D01*
X012274Y008953D02*
X012838Y008953D01*
X012433Y008795D02*
X015672Y008795D01*
X015831Y008636D02*
X012515Y008636D01*
X012515Y008478D02*
X013585Y008478D01*
X013566Y008319D02*
X012669Y008319D01*
X012827Y008161D02*
X013631Y008161D01*
X013866Y008002D02*
X012986Y008002D01*
X013144Y007843D02*
X013948Y007843D01*
X014262Y007685D02*
X013303Y007685D01*
X013461Y007526D02*
X014420Y007526D01*
X013934Y007209D02*
X015906Y007209D01*
X015941Y007051D02*
X013945Y007051D01*
X013872Y006892D02*
X016255Y006892D01*
X016413Y006734D02*
X013594Y006734D01*
X013459Y006892D02*
X013435Y006892D01*
X013386Y007051D02*
X013277Y007051D01*
X013298Y007209D02*
X013118Y007209D01*
X013139Y007368D02*
X012960Y007368D01*
X012980Y007526D02*
X012925Y007526D01*
X012822Y007685D02*
X012798Y007685D01*
X012663Y007843D02*
X012515Y007843D01*
X012176Y007843D02*
X010825Y007843D01*
X010825Y008002D02*
X012176Y008002D01*
X012176Y008161D02*
X011540Y008161D01*
X011605Y008319D02*
X012176Y008319D01*
X012176Y008478D02*
X011586Y008478D01*
X011952Y008795D02*
X007908Y008795D01*
X008005Y008636D02*
X012111Y008636D01*
X011535Y008953D02*
X007055Y008953D01*
X006925Y008795D02*
X007543Y008795D01*
X008005Y008478D02*
X010501Y008478D01*
X010343Y008319D02*
X007859Y008319D01*
X007592Y008319D02*
X006803Y008319D01*
X007087Y008161D02*
X007247Y008161D01*
X007247Y008002D02*
X007087Y008002D01*
X007087Y007843D02*
X007247Y007843D01*
X007247Y007685D02*
X007087Y007685D01*
X007087Y007526D02*
X007247Y007526D01*
X007247Y007368D02*
X007087Y007368D01*
X007087Y007209D02*
X007247Y007209D01*
X007247Y007051D02*
X009074Y007051D01*
X009233Y007209D02*
X008347Y007209D01*
X008347Y007368D02*
X009391Y007368D01*
X009550Y007526D02*
X008347Y007526D01*
X008347Y007685D02*
X009708Y007685D01*
X009867Y007843D02*
X008347Y007843D01*
X008347Y008002D02*
X010025Y008002D01*
X010184Y008161D02*
X008319Y008161D01*
X007087Y007138D02*
X006095Y007138D01*
X006095Y007068D01*
X006185Y006978D01*
X007087Y006978D01*
X007087Y007138D01*
X007087Y007051D02*
X006112Y007051D01*
X005987Y006562D02*
X005810Y006562D01*
X005685Y006686D01*
X005681Y006682D01*
X005450Y006682D01*
X005286Y006846D01*
X005286Y007061D01*
X004803Y007544D01*
X004661Y007402D01*
X004430Y007402D01*
X004266Y007566D01*
X004266Y007721D01*
X004115Y007872D01*
X004016Y007971D01*
X003625Y008361D01*
X003625Y008226D01*
X003515Y008116D01*
X003515Y006852D01*
X004686Y005682D01*
X004796Y005682D01*
X004796Y005931D01*
X004736Y005991D01*
X004736Y006231D01*
X004736Y006372D01*
X004856Y006492D01*
X004955Y006592D01*
X005195Y006592D01*
X005336Y006592D01*
X005608Y006320D01*
X005750Y006462D01*
X005981Y006462D01*
X005987Y006456D01*
X005987Y006562D01*
X005796Y006575D02*
X005352Y006575D01*
X005398Y006734D02*
X003634Y006734D01*
X003515Y006892D02*
X005286Y006892D01*
X005286Y007051D02*
X003515Y007051D01*
X003515Y007209D02*
X005138Y007209D01*
X004979Y007368D02*
X003515Y007368D01*
X003515Y007526D02*
X004305Y007526D01*
X004266Y007685D02*
X003515Y007685D01*
X003515Y007843D02*
X004143Y007843D01*
X003985Y008002D02*
X003515Y008002D01*
X003560Y008161D02*
X003826Y008161D01*
X003668Y008319D02*
X003625Y008319D01*
X003831Y008636D02*
X004540Y008636D01*
X004698Y008795D02*
X003673Y008795D01*
X003565Y008953D02*
X004857Y008953D01*
X005015Y009112D02*
X003511Y009112D01*
X003060Y009112D02*
X002376Y009112D01*
X002535Y009270D02*
X005174Y009270D01*
X005318Y009429D02*
X002693Y009429D01*
X003006Y008953D02*
X002217Y008953D01*
X001914Y008795D02*
X003037Y008795D01*
X003085Y008478D02*
X000885Y008478D01*
X000885Y008636D02*
X003351Y008636D01*
X003066Y008319D02*
X002741Y008319D01*
X002607Y008375D02*
X002607Y008375D01*
X002522Y008375D02*
X002522Y008375D01*
X002993Y008161D02*
X003131Y008161D01*
X003126Y008028D02*
X003126Y008028D01*
X003137Y008002D02*
X003176Y008002D01*
X003990Y008478D02*
X004381Y008478D01*
X004222Y008319D02*
X004149Y008319D01*
X004786Y007526D02*
X004820Y007526D01*
X004939Y006575D02*
X003792Y006575D01*
X003951Y006417D02*
X004780Y006417D01*
X004736Y006258D02*
X004110Y006258D01*
X004268Y006099D02*
X004736Y006099D01*
X004786Y005941D02*
X004427Y005941D01*
X004585Y005782D02*
X004796Y005782D01*
X004446Y005441D02*
X004446Y005286D01*
X004610Y005122D01*
X004796Y005122D01*
X004796Y004588D01*
X004661Y004722D01*
X004430Y004722D01*
X004266Y004558D01*
X004266Y004402D01*
X004235Y004372D01*
X003511Y004372D01*
X003401Y004482D01*
X003170Y004482D01*
X003075Y004388D01*
X002921Y004542D01*
X002690Y004542D01*
X002526Y004378D01*
X002526Y004222D01*
X001198Y002894D01*
X000885Y002894D01*
X000885Y005652D01*
X002643Y005652D01*
X002703Y005652D01*
X002703Y005652D01*
X002953Y005756D01*
X003144Y005947D01*
X003248Y006197D01*
X003248Y006332D01*
X003248Y006407D01*
X003248Y006639D01*
X004446Y005441D01*
X004421Y005465D02*
X000885Y005465D01*
X000885Y005307D02*
X004446Y005307D01*
X004583Y005148D02*
X000885Y005148D01*
X000885Y004990D02*
X004796Y004990D01*
X004796Y004831D02*
X000885Y004831D01*
X000885Y004673D02*
X004380Y004673D01*
X004266Y004514D02*
X002949Y004514D01*
X002662Y004514D02*
X000885Y004514D01*
X000885Y004356D02*
X002526Y004356D01*
X002500Y004197D02*
X000885Y004197D01*
X000885Y004038D02*
X002342Y004038D01*
X002183Y003880D02*
X000885Y003880D01*
X000885Y003721D02*
X002025Y003721D01*
X001866Y003563D02*
X000885Y003563D01*
X000885Y003404D02*
X001708Y003404D01*
X001549Y003246D02*
X000885Y003246D01*
X000885Y003087D02*
X001391Y003087D01*
X001232Y002929D02*
X000885Y002929D01*
X001639Y002855D02*
X001639Y002579D01*
X001676Y002579D01*
X001676Y002892D01*
X001639Y002855D01*
X001639Y002770D02*
X001676Y002770D01*
X001676Y002612D02*
X001639Y002612D01*
X001676Y002579D02*
X001900Y002579D01*
X001900Y002576D01*
X002258Y002576D01*
X002258Y002539D01*
X002034Y002539D01*
X002034Y002542D01*
X001676Y002542D01*
X001676Y002579D01*
X001969Y002917D02*
X001929Y002957D01*
X001741Y002957D01*
X002766Y003982D01*
X002921Y003982D01*
X003015Y004076D01*
X003170Y003922D01*
X003401Y003922D01*
X003511Y004032D01*
X004015Y004032D01*
X003483Y003499D01*
X003322Y003499D01*
X003322Y003143D01*
X003321Y003143D01*
X003321Y003499D01*
X003109Y003499D01*
X003004Y003394D01*
X003004Y003142D01*
X003004Y002891D01*
X003100Y002794D01*
X002654Y002794D01*
X002654Y002849D01*
X002548Y002954D01*
X002295Y002954D01*
X002295Y002576D01*
X002258Y002576D01*
X002258Y002954D01*
X002006Y002954D01*
X001969Y002917D01*
X001957Y002929D02*
X001980Y002929D01*
X001871Y003087D02*
X003004Y003087D01*
X003004Y003142D02*
X003321Y003142D01*
X003321Y003142D01*
X003004Y003142D01*
X003004Y003246D02*
X002030Y003246D01*
X002188Y003404D02*
X003014Y003404D01*
X003321Y003404D02*
X003322Y003404D01*
X003321Y003246D02*
X003322Y003246D01*
X003322Y003142D02*
X003322Y002785D01*
X003416Y002785D01*
X003416Y002392D01*
X003395Y002392D01*
X003356Y002353D01*
X003356Y002355D01*
X003316Y002395D01*
X003316Y002712D01*
X003243Y002785D01*
X003321Y002785D01*
X003321Y003142D01*
X003322Y003142D01*
X003321Y003087D02*
X003322Y003087D01*
X003321Y002929D02*
X003322Y002929D01*
X003258Y002770D02*
X003416Y002770D01*
X003416Y002612D02*
X003316Y002612D01*
X003316Y002453D02*
X003416Y002453D01*
X003004Y002929D02*
X002574Y002929D01*
X002295Y002929D02*
X002258Y002929D01*
X002258Y002770D02*
X002295Y002770D01*
X002295Y002612D02*
X002258Y002612D01*
X002347Y003563D02*
X003546Y003563D01*
X003705Y003721D02*
X002505Y003721D01*
X002664Y003880D02*
X003863Y003880D01*
X003053Y004038D02*
X002978Y004038D01*
X004711Y004673D02*
X004796Y004673D01*
X004263Y005624D02*
X000885Y005624D01*
X002953Y005756D02*
X002953Y005756D01*
X002980Y005782D02*
X004104Y005782D01*
X003946Y005941D02*
X003138Y005941D01*
X003144Y005947D02*
X003144Y005947D01*
X003207Y006099D02*
X003787Y006099D01*
X003629Y006258D02*
X003248Y006258D01*
X003248Y006197D02*
X003248Y006197D01*
X003248Y006417D02*
X003470Y006417D01*
X003312Y006575D02*
X003248Y006575D01*
X005511Y006417D02*
X005704Y006417D01*
X008347Y006417D02*
X008440Y006417D01*
X008347Y006575D02*
X008599Y006575D01*
X008757Y006734D02*
X008347Y006734D01*
X008347Y006892D02*
X008916Y006892D01*
X010369Y007685D02*
X010386Y007685D01*
X010705Y007685D02*
X012176Y007685D01*
X012176Y007526D02*
X012081Y007526D01*
X011111Y008161D02*
X010703Y008161D01*
X011495Y009429D02*
X007994Y009429D01*
X007620Y009587D02*
X011495Y009587D01*
X011495Y009746D02*
X007462Y009746D01*
X007139Y009587D02*
X006925Y009587D01*
X006939Y009429D02*
X007298Y009429D01*
X007446Y009270D02*
X007055Y009270D01*
X007055Y009112D02*
X007519Y009112D01*
X006981Y009746D02*
X006897Y009746D01*
X006822Y009905D02*
X006583Y009905D01*
X006664Y010063D02*
X000885Y010063D01*
X000885Y009905D02*
X002028Y009905D01*
X001869Y009746D02*
X000885Y009746D01*
X000885Y009587D02*
X001711Y009587D01*
X001552Y009429D02*
X000885Y009429D01*
X000885Y009270D02*
X001298Y009270D01*
X001146Y009112D02*
X000885Y009112D01*
X000885Y008953D02*
X001146Y008953D01*
X001237Y008795D02*
X000885Y008795D01*
X001614Y008795D02*
X001657Y008795D01*
X000885Y010222D02*
X006505Y010222D01*
X006347Y010380D02*
X000885Y010380D01*
X000885Y010539D02*
X006188Y010539D01*
X006030Y010697D02*
X000885Y010697D01*
X000885Y010856D02*
X005871Y010856D01*
X005712Y011014D02*
X003534Y011014D01*
X003277Y011014D02*
X000885Y011014D01*
X000885Y011173D02*
X003126Y011173D01*
X003126Y011331D02*
X000885Y011331D01*
X000885Y011490D02*
X003218Y011490D01*
X000885Y012283D02*
X010870Y012283D01*
X011422Y012283D02*
X011947Y012283D01*
X011890Y012124D02*
X011863Y012124D01*
X013165Y011173D02*
X013234Y011173D01*
X013392Y011014D02*
X008307Y011014D01*
X008237Y010856D02*
X013506Y010856D01*
X012944Y010697D02*
X012828Y010697D01*
X012828Y010539D02*
X012944Y010539D01*
X012381Y010063D02*
X007144Y010063D01*
X007303Y009905D02*
X011551Y009905D01*
X011852Y009905D02*
X011852Y009905D01*
X012153Y009905D02*
X012477Y009905D01*
X011852Y009746D02*
X011852Y009746D01*
X015203Y011304D02*
X015203Y011652D01*
X015399Y011652D01*
X015399Y011543D01*
X015756Y011543D01*
X015756Y011542D01*
X015399Y011542D01*
X015399Y011330D01*
X015505Y011225D01*
X015756Y011225D01*
X015756Y011542D01*
X015757Y011542D01*
X015757Y011543D01*
X016114Y011543D01*
X016114Y011652D01*
X016305Y011652D01*
X016305Y011199D01*
X016387Y011117D01*
X016496Y011117D01*
X016496Y011031D01*
X016759Y010767D01*
X016251Y010767D01*
X016249Y010766D01*
X015742Y010766D01*
X015203Y011304D01*
X015203Y011331D02*
X015399Y011331D01*
X015399Y011490D02*
X015203Y011490D01*
X015203Y011649D02*
X015399Y011649D01*
X015757Y011542D02*
X015757Y011225D01*
X016008Y011225D01*
X016114Y011330D01*
X016114Y011542D01*
X015757Y011542D01*
X015756Y011490D02*
X015757Y011490D01*
X015756Y011331D02*
X015757Y011331D01*
X016114Y011331D02*
X016305Y011331D01*
X016305Y011490D02*
X016114Y011490D01*
X016114Y011649D02*
X016305Y011649D01*
X016332Y011173D02*
X015335Y011173D01*
X015493Y011014D02*
X016512Y011014D01*
X016671Y010856D02*
X015652Y010856D01*
X017748Y009936D02*
X017748Y009936D01*
X018716Y009270D02*
X015677Y009270D01*
X015836Y009112D02*
X016415Y009112D01*
X016101Y008953D02*
X015994Y008953D01*
X016066Y007526D02*
X016280Y007526D01*
X016415Y007368D02*
X016439Y007368D01*
X016465Y007209D02*
X016598Y007209D01*
X016577Y007051D02*
X016756Y007051D01*
X016735Y006892D02*
X016806Y006892D01*
X016894Y006734D02*
X016918Y006734D01*
X017052Y006575D02*
X017712Y006575D01*
X017553Y006734D02*
X017253Y006734D01*
X017365Y006892D02*
X017395Y006892D01*
X017211Y006417D02*
X017870Y006417D01*
X018029Y006258D02*
X017370Y006258D01*
X017528Y006099D02*
X018187Y006099D01*
X018189Y005941D02*
X017687Y005941D01*
X015956Y007368D02*
X013620Y007368D01*
X012985Y005232D02*
X014255Y005232D01*
X015526Y003961D01*
X015500Y003961D01*
X015498Y003959D01*
X014768Y003959D01*
X014767Y003959D01*
X014075Y003959D01*
X014065Y003969D01*
X014065Y004198D01*
X014001Y004262D01*
X014065Y004326D01*
X014065Y004546D01*
X014090Y004522D01*
X014321Y004522D01*
X014485Y004686D01*
X014485Y004918D01*
X014321Y005082D01*
X014166Y005082D01*
X014135Y005112D01*
X014036Y005212D01*
X013796Y005212D01*
X013655Y005212D01*
X013295Y004852D01*
X012685Y004852D01*
X012685Y004882D01*
X012821Y004882D01*
X012985Y005046D01*
X012985Y005232D01*
X012985Y005148D02*
X013592Y005148D01*
X013433Y004990D02*
X012929Y004990D01*
X014065Y004514D02*
X014973Y004514D01*
X015131Y004356D02*
X014065Y004356D01*
X014065Y004197D02*
X015290Y004197D01*
X015448Y004038D02*
X014065Y004038D01*
X013577Y003602D02*
X013396Y003602D01*
X013396Y003601D01*
X012949Y003601D01*
X012949Y003486D01*
X013130Y003486D01*
X013130Y003486D01*
X013577Y003486D01*
X013577Y003602D01*
X013577Y003563D02*
X012949Y003563D01*
X012833Y003563D02*
X011760Y003563D01*
X011741Y003582D02*
X011586Y003582D01*
X011576Y003592D01*
X011435Y003592D01*
X010595Y003592D01*
X010496Y003492D01*
X010448Y003444D01*
X010323Y003444D01*
X010322Y003443D01*
X010321Y003444D01*
X010063Y003444D01*
X010023Y003484D01*
X010009Y003484D01*
X010055Y003531D01*
X010055Y003672D01*
X010055Y004216D01*
X010143Y004304D01*
X010535Y003912D01*
X010676Y003912D01*
X012404Y003912D01*
X012386Y003894D01*
X012386Y003601D01*
X012833Y003601D01*
X012833Y003486D01*
X012386Y003486D01*
X012386Y003193D01*
X012399Y003181D01*
X012357Y003181D01*
X012252Y003076D01*
X012252Y002824D01*
X012569Y002824D01*
X012569Y002824D01*
X012252Y002824D01*
X012252Y002572D01*
X012357Y002467D01*
X012426Y002467D01*
X012426Y002286D01*
X012590Y002122D01*
X012821Y002122D01*
X012931Y002232D01*
X013415Y002232D01*
X013965Y001682D01*
X005656Y001682D01*
X005656Y001896D01*
X005278Y001896D01*
X005278Y001932D01*
X005656Y001932D01*
X005656Y002185D01*
X005635Y002206D01*
X005652Y002223D01*
X005652Y002496D01*
X005294Y002496D01*
X005294Y002533D01*
X005652Y002533D01*
X005652Y002805D01*
X005580Y002877D01*
X005612Y002909D01*
X005612Y003255D01*
X005876Y002991D01*
X005876Y002172D01*
X005876Y002031D01*
X005936Y001971D01*
X006035Y001872D01*
X009018Y001872D01*
X009063Y001826D01*
X009201Y001826D01*
X009236Y001791D01*
X009335Y001692D01*
X010535Y001692D01*
X010676Y001692D01*
X010810Y001826D01*
X010951Y001826D01*
X011033Y001908D01*
X011033Y002397D01*
X011128Y002397D01*
X011210Y002479D01*
X011210Y002722D01*
X011321Y002722D01*
X011385Y002786D01*
X011510Y002662D01*
X011741Y002662D01*
X011905Y002826D01*
X011905Y003058D01*
X011841Y003122D01*
X011905Y003186D01*
X011905Y003418D01*
X011741Y003582D01*
X011905Y003404D02*
X012386Y003404D01*
X012386Y003246D02*
X011905Y003246D01*
X011876Y003087D02*
X012263Y003087D01*
X012252Y002929D02*
X011905Y002929D01*
X011850Y002770D02*
X012252Y002770D01*
X012252Y002612D02*
X011210Y002612D01*
X011185Y002453D02*
X012426Y002453D01*
X012426Y002294D02*
X011033Y002294D01*
X011033Y002136D02*
X012575Y002136D01*
X012836Y002136D02*
X013511Y002136D01*
X013669Y001977D02*
X011033Y001977D01*
X010803Y001819D02*
X013828Y001819D01*
X015205Y002542D02*
X015205Y002698D01*
X015041Y002862D01*
X014841Y002862D01*
X014841Y003058D01*
X014771Y003128D01*
X015354Y003128D01*
X015282Y003056D01*
X015282Y002585D01*
X015311Y002557D01*
X015264Y002510D01*
X015264Y002483D01*
X015205Y002542D01*
X015205Y002612D02*
X015282Y002612D01*
X015282Y002770D02*
X015133Y002770D01*
X015282Y002929D02*
X014841Y002929D01*
X014812Y003087D02*
X015314Y003087D01*
X016277Y003128D02*
X016999Y003128D01*
X017765Y003128D01*
X017765Y003129D01*
X017876Y003129D01*
X017876Y002628D01*
X017849Y002601D01*
X017849Y003032D01*
X017767Y003114D01*
X017375Y003114D01*
X017315Y003054D01*
X017255Y003114D01*
X016863Y003114D01*
X016781Y003032D01*
X016781Y002932D01*
X016676Y002932D01*
X016535Y002932D01*
X016349Y002746D01*
X016349Y003056D01*
X016277Y003128D01*
X016318Y003087D02*
X016836Y003087D01*
X016532Y002929D02*
X016349Y002929D01*
X016349Y002770D02*
X016374Y002770D01*
X017282Y003087D02*
X017348Y003087D01*
X017794Y003087D02*
X017876Y003087D01*
X017876Y002929D02*
X017849Y002929D01*
X017849Y002770D02*
X017876Y002770D01*
X017859Y002612D02*
X017849Y002612D01*
X018215Y002767D02*
X018215Y003129D01*
X018497Y003129D01*
X019016Y003129D01*
X019016Y002763D01*
X018977Y002763D01*
X018895Y002681D01*
X018895Y002289D01*
X018927Y002258D01*
X018855Y002186D01*
X018855Y001974D01*
X019211Y001974D01*
X019211Y001973D01*
X018855Y001973D01*
X018855Y001761D01*
X018934Y001682D01*
X018466Y001682D01*
X018470Y001686D01*
X018728Y001686D01*
X018810Y001768D01*
X018810Y002159D01*
X018778Y002191D01*
X018850Y002263D01*
X018850Y002475D01*
X018494Y002475D01*
X018494Y002476D01*
X018850Y002476D01*
X018850Y002688D01*
X018745Y002793D01*
X018493Y002793D01*
X018241Y002793D01*
X018215Y002767D01*
X018215Y002770D02*
X018218Y002770D01*
X018215Y002929D02*
X019016Y002929D01*
X019016Y002770D02*
X018768Y002770D01*
X018850Y002612D02*
X018895Y002612D01*
X018895Y002453D02*
X018850Y002453D01*
X018850Y002294D02*
X018895Y002294D01*
X018855Y002136D02*
X018810Y002136D01*
X018810Y001977D02*
X018855Y001977D01*
X018855Y001819D02*
X018810Y001819D01*
X018493Y002476D02*
X018493Y002476D01*
X018493Y002793D01*
X018493Y002476D01*
X018493Y002612D02*
X018493Y002612D01*
X018493Y002770D02*
X018493Y002770D01*
X018215Y003087D02*
X019016Y003087D01*
X014814Y004673D02*
X014472Y004673D01*
X014485Y004831D02*
X014656Y004831D01*
X014497Y004990D02*
X014413Y004990D01*
X014339Y005148D02*
X014099Y005148D01*
X012386Y003880D02*
X010055Y003880D01*
X010055Y003721D02*
X012386Y003721D01*
X013330Y003088D02*
X013359Y003059D01*
X013359Y002992D01*
X013773Y002992D01*
X013773Y003058D01*
X013803Y003088D01*
X013693Y003088D01*
X013693Y003486D01*
X013577Y003486D01*
X013577Y003088D01*
X013330Y003088D01*
X013331Y003087D02*
X013802Y003087D01*
X013693Y003246D02*
X013577Y003246D01*
X013577Y003404D02*
X013693Y003404D01*
X011401Y002770D02*
X011370Y002770D01*
X010458Y002692D02*
X010458Y002618D01*
X010307Y002618D01*
X010267Y002578D01*
X010063Y002578D01*
X010023Y002618D01*
X009850Y002618D01*
X009850Y002202D01*
X009850Y002202D01*
X009850Y002618D01*
X009677Y002618D01*
X009557Y002618D01*
X009557Y002692D01*
X009637Y002692D01*
X009677Y002652D01*
X009850Y002652D01*
X010023Y002652D01*
X010063Y002692D01*
X010321Y002692D01*
X010322Y002693D01*
X010323Y002692D01*
X010458Y002692D01*
X010300Y002612D02*
X010029Y002612D01*
X009850Y002612D02*
X009850Y002612D01*
X009850Y002652D02*
X009850Y003068D01*
X009850Y003068D01*
X009850Y002652D01*
X009850Y002770D02*
X009850Y002770D01*
X009850Y002929D02*
X009850Y002929D01*
X009850Y002453D02*
X009850Y002453D01*
X009850Y002294D02*
X009850Y002294D01*
X009849Y002202D02*
X009849Y002202D01*
X009571Y002202D01*
X009849Y002202D01*
X009571Y002202D02*
X009535Y002202D01*
X009535Y002202D01*
X009571Y002202D01*
X009208Y001819D02*
X005656Y001819D01*
X005656Y001977D02*
X005929Y001977D01*
X005876Y002136D02*
X005656Y002136D01*
X005652Y002294D02*
X005876Y002294D01*
X005876Y002453D02*
X005652Y002453D01*
X005652Y002612D02*
X005876Y002612D01*
X005876Y002770D02*
X005652Y002770D01*
X005612Y002929D02*
X005876Y002929D01*
X005780Y003087D02*
X005612Y003087D01*
X005612Y003246D02*
X005621Y003246D01*
X004898Y002694D02*
X004898Y002533D01*
X005257Y002533D01*
X005257Y002496D01*
X005294Y002496D01*
X005294Y002291D01*
X005278Y002291D01*
X005278Y001933D01*
X005241Y001933D01*
X005241Y002118D01*
X005257Y002118D01*
X005257Y002496D01*
X004898Y002496D01*
X004898Y002223D01*
X004900Y002222D01*
X004896Y002219D01*
X004864Y002251D01*
X004775Y002251D01*
X004775Y002317D01*
X004787Y002317D01*
X004869Y002399D01*
X004869Y002665D01*
X004898Y002694D01*
X004898Y002612D02*
X004869Y002612D01*
X004869Y002453D02*
X004898Y002453D01*
X004898Y002294D02*
X004775Y002294D01*
X005257Y002294D02*
X005294Y002294D01*
X005294Y002453D02*
X005257Y002453D01*
X005257Y002136D02*
X005278Y002136D01*
X005278Y001977D02*
X005241Y001977D01*
X005241Y001895D02*
X005278Y001895D01*
X005278Y001682D01*
X005241Y001682D01*
X005241Y001895D01*
X005241Y001819D02*
X005278Y001819D01*
X010055Y003563D02*
X010566Y003563D01*
X010408Y004038D02*
X010055Y004038D01*
X010055Y004197D02*
X010250Y004197D01*
M02*
