G75*
G70*
%OFA0B0*%
%FSLAX24Y24*%
%IPPOS*%
%LPD*%
%AMOC8*
5,1,8,0,0,1.08239X$1,22.5*
%
%ADD10R,0.0474X0.0513*%
%ADD11R,0.0277X0.0552*%
%ADD12R,0.0552X0.0277*%
%ADD13R,0.0730X0.0631*%
%ADD14R,0.0356X0.0434*%
%ADD15R,0.0434X0.0356*%
%ADD16R,0.0513X0.0474*%
%ADD17R,0.0552X0.0297*%
%ADD18R,0.2080X0.1080*%
%ADD19R,0.2080X0.2080*%
%ADD20OC8,0.0360*%
D10*
X001093Y001869D03*
X001658Y001891D03*
X002277Y001888D03*
X002277Y002558D03*
X001658Y002560D03*
X001093Y002538D03*
X005275Y002514D03*
X005275Y003184D03*
X011787Y006109D03*
X011787Y006778D03*
D11*
X010795Y003068D03*
X010480Y003068D03*
X010165Y003068D03*
X009850Y003068D03*
X009535Y003068D03*
X009220Y003068D03*
X009220Y002202D03*
X009535Y002202D03*
X009850Y002202D03*
X010165Y002202D03*
X010480Y002202D03*
X010795Y002202D03*
D12*
X010834Y002635D03*
X009181Y002635D03*
D13*
X012891Y003544D03*
X013635Y003544D03*
X014384Y003544D03*
X015132Y003543D03*
X015883Y003545D03*
X016629Y003544D03*
X017382Y003544D03*
X018131Y003544D03*
X018880Y003544D03*
X018875Y010352D03*
X018131Y010351D03*
X017382Y010351D03*
X016634Y010352D03*
X015883Y010350D03*
X015137Y010351D03*
X014384Y010351D03*
X013635Y010351D03*
X012886Y010351D03*
D14*
X003833Y003142D03*
X003322Y003142D03*
X012570Y002824D03*
X013082Y002824D03*
X014051Y002823D03*
X014563Y002823D03*
X014556Y002339D03*
X014044Y002339D03*
X015582Y002258D03*
X016094Y002258D03*
X016072Y002820D03*
X015560Y002820D03*
X017059Y002797D03*
X017571Y002797D03*
D15*
X018493Y002475D03*
X018493Y001964D03*
X019212Y001973D03*
X019212Y002485D03*
X011852Y009124D03*
X011852Y009636D03*
X012207Y011518D03*
X012207Y012030D03*
X011146Y012046D03*
X011146Y011534D03*
X015757Y011542D03*
X015757Y012054D03*
X004552Y003106D03*
X004552Y002595D03*
D16*
X004590Y001914D03*
X005259Y001914D03*
X012812Y011432D03*
X012812Y012101D03*
X013743Y012124D03*
X013743Y011454D03*
X014847Y011461D03*
X014847Y012130D03*
X016662Y012123D03*
X016662Y011454D03*
X017795Y011473D03*
X017795Y012142D03*
X018970Y012127D03*
X018970Y011457D03*
D17*
X003964Y002546D03*
X002940Y002546D03*
X002940Y002172D03*
X002940Y001798D03*
X003964Y001798D03*
D18*
X007167Y002633D03*
X007167Y011483D03*
D19*
X007167Y007058D03*
D20*
X005926Y006842D03*
X005566Y006962D03*
X004546Y007682D03*
X004606Y008102D03*
X003346Y008342D03*
X003286Y008942D03*
X002806Y009422D03*
X001786Y009062D03*
X001426Y009002D03*
X004546Y009422D03*
X006286Y008402D03*
X006646Y008762D03*
X006646Y009122D03*
X006646Y009602D03*
X007726Y009662D03*
X007726Y009302D03*
X007726Y008582D03*
X010546Y007922D03*
X011326Y008342D03*
X012646Y007442D03*
X012346Y007202D03*
X011806Y007202D03*
X011386Y005942D03*
X010906Y005942D03*
X011986Y005402D03*
X012406Y004922D03*
X012706Y005162D03*
X013846Y004802D03*
X014206Y004802D03*
X013786Y004442D03*
X013786Y004082D03*
X015346Y004022D03*
X015886Y004082D03*
X015646Y004442D03*
X016366Y005102D03*
X016366Y005462D03*
X016666Y005702D03*
X015886Y005582D03*
X015166Y005702D03*
X013666Y007082D03*
X014146Y008042D03*
X013846Y008342D03*
X013066Y009122D03*
X013786Y010862D03*
X015286Y011522D03*
X017086Y012122D03*
X018226Y012122D03*
X018166Y011102D03*
X018886Y008702D03*
X017086Y006962D03*
X016186Y007202D03*
X015826Y007682D03*
X016126Y007922D03*
X016306Y008762D03*
X018406Y005762D03*
X017746Y005462D03*
X017446Y005222D03*
X017926Y005042D03*
X018526Y004922D03*
X018886Y004562D03*
X018646Y004022D03*
X017806Y004022D03*
X017446Y004022D03*
X016966Y004202D03*
X018646Y003062D03*
X018046Y002402D03*
X017566Y002342D03*
X015226Y002162D03*
X014926Y002582D03*
X014926Y002942D03*
X012706Y002402D03*
X011626Y002942D03*
X011626Y003302D03*
X011206Y003002D03*
X009046Y004202D03*
X008806Y004682D03*
X009106Y004922D03*
X009886Y004442D03*
X010006Y005042D03*
X011086Y004922D03*
X009706Y005942D03*
X009226Y006062D03*
X008866Y005702D03*
X007846Y005102D03*
X007726Y004742D03*
X007966Y004442D03*
X006646Y004442D03*
X006406Y004742D03*
X006646Y005222D03*
X005866Y006182D03*
X005146Y006182D03*
X004726Y005402D03*
X004546Y004442D03*
X004786Y003962D03*
X005146Y003602D03*
X003286Y004202D03*
X002806Y004262D03*
X002926Y003122D03*
X003946Y002222D03*
X005686Y002042D03*
X003406Y011282D03*
X011806Y011522D03*
M02*
