  0
SECTION
  2
HEADER
  9
$ACADVER
  1
AC1009
  9
$FILLMODE
 70
1
  9
$EXTMIN
 10
-1.5360
 20
-3.5584
 30
0.0000
  9
$EXTMAX
 10
49.7408
 20
29.9264
 30
0.0000
  0
ENDSEC
  0
SECTION
  2
TABLES
  0
TABLE
  2
LTYPE
 70
1
  0
LTYPE
  2
CONTINUOUS
 70
64
  3
Solid line
 72
65
 73
0
 40
0
  0
ENDTAB
  0
TABLE
  2
LAYER
 70
255
  0
LAYER
  2
22
 70
64
 62
251
  6
CONTINUOUS
  0
ENDTAB
  0
ENDSEC
  0
SECTION
  2
BLOCKS
  0
BLOCK
  8
0
  2
RECT
 70
64
 10
0.0000
 20
0.0000
 30
0.0000
  3
RECT
  0
SOLID
  8
0
 10
-0.5000
 20
-0.5000
 30
0.0000
 11
0.5000
 21
-0.5000
 31
0.0000
 12
-0.5000
 22
0.5000
 32
0.0000
 13
0.5000
 23
0.5000
 33
0.0000
  0
ENDBLK
  8
0
  0
BLOCK
  8
0
  2
PIE
 70
64
 10
0.0000
 20
0.0000
 30
0.0000
  3
PIE
  0
POLYLINE
  8
0
 66
1
 10
0.0000
 20
0.0000
 30
0.0000
 40
0.5000
 41
0.5000
 70
0
  0
VERTEX
  8
0
 10
0.0000
 20
-0.2500
 30
0.0000
 42
1.0000
  0
VERTEX
  8
0
 10
0.0000
 20
0.2500
 30
0.0000
 42
1.0000
  0
VERTEX
  8
0
 10
0.0000
 20
-0.2500
 30
0.0000
  0
SEQEND
  8
0
  0
ENDBLK
  8
0
  0
BLOCK
  8
0
  2
OCTAGONP
 70
64
 10
0.0000
 20
0.0000
 30
0.0000
  3
OCTAGONP
  0
POLYLINE
  8
0
 66
1
 10
0.0000
 20
0.0000
 30
0.0000
 40
0.5000
 41
0.5000
 70
0
  0
VERTEX
  8
0
 10
-0.2500
 20
-0.1036
 30
0.0000
  0
VERTEX
  8
0
 10
-0.2500
 20
0.1036
 30
0.0000
  0
VERTEX
  8
0
 10
-0.1036
 20
0.2500
 30
0.0000
  0
VERTEX
  8
0
 10
0.1036
 20
0.2500
 30
0.0000
  0
VERTEX
  8
0
 10
0.2500
 20
0.1036
 30
0.0000
  0
VERTEX
  8
0
 10
0.2500
 20
-0.1036
 30
0.0000
  0
VERTEX
  8
0
 10
0.1036
 20
-0.2500
 30
0.0000
  0
VERTEX
  8
0
 10
-0.1036
 20
-0.2500
 30
0.0000
  0
VERTEX
  8
0
 10
-0.2500
 20
-0.1036
 30
0.0000
  0
VERTEX
  8
0
 10
-0.2500
 20
0.1036
 30
0.0000
  0
SEQEND
  8
0
  0
ENDBLK
  8
0
  0
BLOCK
  8
0
  2
SQUAREP
 70
64
 10
0.0000
 20
0.0000
 30
0.0000
  3
SQUAREP
  0
SOLID
  8
0
 10
-0.5000
 20
-0.5000
 30
0.0000
 11
0.5000
 21
-0.5000
 31
0.0000
 12
-0.5000
 22
0.5000
 32
0.0000
 13
0.5000
 23
0.5000
 33
0.0000
  0
ENDBLK
  8
0
  0
BLOCK
  8
0
  2
ROUNDP
 70
64
 10
0.0000
 20
0.0000
 30
0.0000
  3
ROUNDP
  0
POLYLINE
  8
0
 66
1
 10
0.0000
 20
0.0000
 30
0.0000
 40
0.5000
 41
0.5000
 70
0
  0
VERTEX
  8
0
 10
0.0000
 20
-0.2500
 30
0.0000
 42
1.0000
  0
VERTEX
  8
0
 10
0.0000
 20
0.2500
 30
0.0000
 42
1.0000
  0
VERTEX
  8
0
 10
0.0000
 20
-0.2500
 30
0.0000
  0
SEQEND
  8
0
  0
ENDBLK
  8
0
  0
BLOCK
  8
0
  2
ANNULUSP
 70
64
 10
0.0000
 20
0.0000
 30
0.0000
  3
ANNULUSP
  0
POLYLINE
  8
0
 66
1
 10
0.0000
 20
0.0000
 30
0.0000
 40
0.5000
 41
0.5000
 70
0
  0
VERTEX
  8
0
 10
0.0000
 20
-0.2500
 30
0.0000
 42
1.0000
  0
VERTEX
  8
0
 10
0.0000
 20
0.2500
 30
0.0000
 42
1.0000
  0
VERTEX
  8
0
 10
0.0000
 20
-0.2500
 30
0.0000
  0
SEQEND
  8
0
  0
ENDBLK
  8
0
  0
BLOCK
  8
0
  2
THERMALP
 70
64
 10
0.0000
 20
0.0000
 30
0.0000
  3
THERMALP
  0
POLYLINE
  8
0
 66
1
 10
0.0000
 20
0.0000
 30
0.0000
 40
0.1000
 41
0.1000
 70
0
  0
VERTEX
  8
0
 10
-0.2379
 20
0.4500
 30
0.0000
  0
VERTEX
  8
0
 10
0.2379
 20
0.4500
 30
0.0000
  0
SEQEND
  8
0
  0
POLYLINE
  8
0
 66
1
 10
0.0000
 20
0.0000
 30
0.0000
 40
0.0500
 41
0.0500
 70
0
  0
VERTEX
  8
0
 10
0.2379
 20
0.4250
 30
0.0000
 42
1.0000
  0
VERTEX
  8
0
 10
0.2379
 20
0.4750
 30
0.0000
  0
SEQEND
  8
0
  0
POLYLINE
  8
0
 66
1
 10
0.0000
 20
0.0000
 30
0.0000
 40
0.0500
 41
0.0500
 70
0
  0
VERTEX
  8
0
 10
-0.2379
 20
0.4750
 30
0.0000
 42
1.0000
  0
VERTEX
  8
0
 10
-0.2379
 20
0.4250
 30
0.0000
  0
SEQEND
  8
0
  0
POLYLINE
  8
0
 66
1
 10
0.0000
 20
0.0000
 30
0.0000
 40
0.1000
 41
0.1000
 70
0
  0
VERTEX
  8
0
 10
0.4500
 20
0.2379
 30
0.0000
  0
VERTEX
  8
0
 10
0.4500
 20
-0.2379
 30
0.0000
  0
SEQEND
  8
0
  0
POLYLINE
  8
0
 66
1
 10
0.0000
 20
0.0000
 30
0.0000
 40
0.0500
 41
0.0500
 70
0
  0
VERTEX
  8
0
 10
0.4250
 20
-0.2379
 30
0.0000
 42
1.0000
  0
VERTEX
  8
0
 10
0.4750
 20
-0.2379
 30
0.0000
  0
SEQEND
  8
0
  0
POLYLINE
  8
0
 66
1
 10
0.0000
 20
0.0000
 30
0.0000
 40
0.0500
 41
0.0500
 70
0
  0
VERTEX
  8
0
 10
0.4750
 20
0.2379
 30
0.0000
 42
1.0000
  0
VERTEX
  8
0
 10
0.4250
 20
0.2379
 30
0.0000
  0
SEQEND
  8
0
  0
POLYLINE
  8
0
 66
1
 10
0.0000
 20
0.0000
 30
0.0000
 40
0.1000
 41
0.1000
 70
0
  0
VERTEX
  8
0
 10
0.2379
 20
-0.4500
 30
0.0000
  0
VERTEX
  8
0
 10
-0.2379
 20
-0.4500
 30
0.0000
  0
SEQEND
  8
0
  0
POLYLINE
  8
0
 66
1
 10
0.0000
 20
0.0000
 30
0.0000
 40
0.0500
 41
0.0500
 70
0
  0
VERTEX
  8
0
 10
-0.2379
 20
-0.4250
 30
0.0000
 42
1.0000
  0
VERTEX
  8
0
 10
-0.2379
 20
-0.4750
 30
0.0000
  0
SEQEND
  8
0
  0
POLYLINE
  8
0
 66
1
 10
0.0000
 20
0.0000
 30
0.0000
 40
0.0500
 41
0.0500
 70
0
  0
VERTEX
  8
0
 10
0.2379
 20
-0.4750
 30
0.0000
 42
1.0000
  0
VERTEX
  8
0
 10
0.2379
 20
-0.4250
 30
0.0000
  0
SEQEND
  8
0
  0
POLYLINE
  8
0
 66
1
 10
0.0000
 20
0.0000
 30
0.0000
 40
0.1000
 41
0.1000
 70
0
  0
VERTEX
  8
0
 10
-0.4500
 20
-0.2379
 30
0.0000
  0
VERTEX
  8
0
 10
-0.4500
 20
0.2379
 30
0.0000
  0
SEQEND
  8
0
  0
POLYLINE
  8
0
 66
1
 10
0.0000
 20
0.0000
 30
0.0000
 40
0.0500
 41
0.0500
 70
0
  0
VERTEX
  8
0
 10
-0.4250
 20
0.2379
 30
0.0000
 42
1.0000
  0
VERTEX
  8
0
 10
-0.4750
 20
0.2379
 30
0.0000
  0
SEQEND
  8
0
  0
POLYLINE
  8
0
 66
1
 10
0.0000
 20
0.0000
 30
0.0000
 40
0.0500
 41
0.0500
 70
0
  0
VERTEX
  8
0
 10
-0.4750
 20
-0.2379
 30
0.0000
 42
1.0000
  0
VERTEX
  8
0
 10
-0.4250
 20
-0.2379
 30
0.0000
  0
SEQEND
  8
0
  0
ENDBLK
  8
0
  0
BLOCK
  8
0
  2
OCTAGONV
 70
64
 10
0.0000
 20
0.0000
 30
0.0000
  3
OCTAGONV
  0
POLYLINE
  8
0
 66
1
 10
0.0000
 20
0.0000
 30
0.0000
 40
0.5000
 41
0.5000
 70
0
  0
VERTEX
  8
0
 10
-0.2500
 20
-0.1036
 30
0.0000
  0
VERTEX
  8
0
 10
-0.2500
 20
0.1036
 30
0.0000
  0
VERTEX
  8
0
 10
-0.1036
 20
0.2500
 30
0.0000
  0
VERTEX
  8
0
 10
0.1036
 20
0.2500
 30
0.0000
  0
VERTEX
  8
0
 10
0.2500
 20
0.1036
 30
0.0000
  0
VERTEX
  8
0
 10
0.2500
 20
-0.1036
 30
0.0000
  0
VERTEX
  8
0
 10
0.1036
 20
-0.2500
 30
0.0000
  0
VERTEX
  8
0
 10
-0.1036
 20
-0.2500
 30
0.0000
  0
VERTEX
  8
0
 10
-0.2500
 20
-0.1036
 30
0.0000
  0
VERTEX
  8
0
 10
-0.2500
 20
0.1036
 30
0.0000
  0
SEQEND
  8
0
  0
ENDBLK
  8
0
  0
BLOCK
  8
0
  2
SQUAREV
 70
64
 10
0.0000
 20
0.0000
 30
0.0000
  3
SQUAREV
  0
SOLID
  8
0
 10
-0.5000
 20
-0.5000
 30
0.0000
 11
0.5000
 21
-0.5000
 31
0.0000
 12
-0.5000
 22
0.5000
 32
0.0000
 13
0.5000
 23
0.5000
 33
0.0000
  0
ENDBLK
  8
0
  0
BLOCK
  8
0
  2
ROUNDV
 70
64
 10
0.0000
 20
0.0000
 30
0.0000
  3
ROUNDV
  0
POLYLINE
  8
0
 66
1
 10
0.0000
 20
0.0000
 30
0.0000
 40
0.5000
 41
0.5000
 70
0
  0
VERTEX
  8
0
 10
0.0000
 20
-0.2500
 30
0.0000
 42
1.0000
  0
VERTEX
  8
0
 10
0.0000
 20
0.2500
 30
0.0000
 42
1.0000
  0
VERTEX
  8
0
 10
0.0000
 20
-0.2500
 30
0.0000
  0
SEQEND
  8
0
  0
ENDBLK
  8
0
  0
BLOCK
  8
0
  2
ANNULUSV
 70
64
 10
0.0000
 20
0.0000
 30
0.0000
  3
ANNULUSV
  0
POLYLINE
  8
0
 66
1
 10
0.0000
 20
0.0000
 30
0.0000
 40
0.5000
 41
0.5000
 70
0
  0
VERTEX
  8
0
 10
0.0000
 20
-0.2500
 30
0.0000
 42
1.0000
  0
VERTEX
  8
0
 10
0.0000
 20
0.2500
 30
0.0000
 42
1.0000
  0
VERTEX
  8
0
 10
0.0000
 20
-0.2500
 30
0.0000
  0
SEQEND
  8
0
  0
ENDBLK
  8
0
  0
BLOCK
  8
0
  2
THERMALV
 70
64
 10
0.0000
 20
0.0000
 30
0.0000
  3
THERMALV
  0
POLYLINE
  8
0
 66
1
 10
0.0000
 20
0.0000
 30
0.0000
 40
0.1000
 41
0.1000
 70
0
  0
VERTEX
  8
0
 10
-0.2379
 20
0.4500
 30
0.0000
  0
VERTEX
  8
0
 10
0.2379
 20
0.4500
 30
0.0000
  0
SEQEND
  8
0
  0
POLYLINE
  8
0
 66
1
 10
0.0000
 20
0.0000
 30
0.0000
 40
0.0500
 41
0.0500
 70
0
  0
VERTEX
  8
0
 10
0.2379
 20
0.4250
 30
0.0000
 42
1.0000
  0
VERTEX
  8
0
 10
0.2379
 20
0.4750
 30
0.0000
  0
SEQEND
  8
0
  0
POLYLINE
  8
0
 66
1
 10
0.0000
 20
0.0000
 30
0.0000
 40
0.0500
 41
0.0500
 70
0
  0
VERTEX
  8
0
 10
-0.2379
 20
0.4750
 30
0.0000
 42
1.0000
  0
VERTEX
  8
0
 10
-0.2379
 20
0.4250
 30
0.0000
  0
SEQEND
  8
0
  0
POLYLINE
  8
0
 66
1
 10
0.0000
 20
0.0000
 30
0.0000
 40
0.1000
 41
0.1000
 70
0
  0
VERTEX
  8
0
 10
0.4500
 20
0.2379
 30
0.0000
  0
VERTEX
  8
0
 10
0.4500
 20
-0.2379
 30
0.0000
  0
SEQEND
  8
0
  0
POLYLINE
  8
0
 66
1
 10
0.0000
 20
0.0000
 30
0.0000
 40
0.0500
 41
0.0500
 70
0
  0
VERTEX
  8
0
 10
0.4250
 20
-0.2379
 30
0.0000
 42
1.0000
  0
VERTEX
  8
0
 10
0.4750
 20
-0.2379
 30
0.0000
  0
SEQEND
  8
0
  0
POLYLINE
  8
0
 66
1
 10
0.0000
 20
0.0000
 30
0.0000
 40
0.0500
 41
0.0500
 70
0
  0
VERTEX
  8
0
 10
0.4750
 20
0.2379
 30
0.0000
 42
1.0000
  0
VERTEX
  8
0
 10
0.4250
 20
0.2379
 30
0.0000
  0
SEQEND
  8
0
  0
POLYLINE
  8
0
 66
1
 10
0.0000
 20
0.0000
 30
0.0000
 40
0.1000
 41
0.1000
 70
0
  0
VERTEX
  8
0
 10
0.2379
 20
-0.4500
 30
0.0000
  0
VERTEX
  8
0
 10
-0.2379
 20
-0.4500
 30
0.0000
  0
SEQEND
  8
0
  0
POLYLINE
  8
0
 66
1
 10
0.0000
 20
0.0000
 30
0.0000
 40
0.0500
 41
0.0500
 70
0
  0
VERTEX
  8
0
 10
-0.2379
 20
-0.4250
 30
0.0000
 42
1.0000
  0
VERTEX
  8
0
 10
-0.2379
 20
-0.4750
 30
0.0000
  0
SEQEND
  8
0
  0
POLYLINE
  8
0
 66
1
 10
0.0000
 20
0.0000
 30
0.0000
 40
0.0500
 41
0.0500
 70
0
  0
VERTEX
  8
0
 10
0.2379
 20
-0.4750
 30
0.0000
 42
1.0000
  0
VERTEX
  8
0
 10
0.2379
 20
-0.4250
 30
0.0000
  0
SEQEND
  8
0
  0
POLYLINE
  8
0
 66
1
 10
0.0000
 20
0.0000
 30
0.0000
 40
0.1000
 41
0.1000
 70
0
  0
VERTEX
  8
0
 10
-0.4500
 20
-0.2379
 30
0.0000
  0
VERTEX
  8
0
 10
-0.4500
 20
0.2379
 30
0.0000
  0
SEQEND
  8
0
  0
POLYLINE
  8
0
 66
1
 10
0.0000
 20
0.0000
 30
0.0000
 40
0.0500
 41
0.0500
 70
0
  0
VERTEX
  8
0
 10
-0.4250
 20
0.2379
 30
0.0000
 42
1.0000
  0
VERTEX
  8
0
 10
-0.4750
 20
0.2379
 30
0.0000
  0
SEQEND
  8
0
  0
POLYLINE
  8
0
 66
1
 10
0.0000
 20
0.0000
 30
0.0000
 40
0.0500
 41
0.0500
 70
0
  0
VERTEX
  8
0
 10
-0.4750
 20
-0.2379
 30
0.0000
 42
1.0000
  0
VERTEX
  8
0
 10
-0.4250
 20
-0.2379
 30
0.0000
  0
SEQEND
  8
0
  0
ENDBLK
  8
0
  0
ENDSEC
  0
SECTION
  2
ENTITIES
  0
POLYLINE
  8
22
 66
1
 10
0.0000
 20
0.0000
 30
0.0000
 40
0.1270
 41
0.1270
 70
0
  0
VERTEX
  8
22
 10
6.4115
 20
24.1130
 30
0.0000
  0
VERTEX
  8
22
 10
6.4115
 20
4.1130
 30
0.0000
  0
SEQEND
  8
0
  0
POLYLINE
  8
22
 66
1
 10
0.0000
 20
0.0000
 30
0.0000
 40
0.0635
 41
0.0635
 70
0
  0
VERTEX
  8
22
 10
6.3798
 20
4.1130
 30
0.0000
 42
1.0000
  0
VERTEX
  8
22
 10
6.4432
 20
4.1130
 30
0.0000
  0
SEQEND
  8
0
  0
POLYLINE
  8
22
 66
1
 10
0.0000
 20
0.0000
 30
0.0000
 40
0.0635
 41
0.0635
 70
0
  0
VERTEX
  8
22
 10
6.4432
 20
24.1130
 30
0.0000
 42
1.0000
  0
VERTEX
  8
22
 10
6.3798
 20
24.1130
 30
0.0000
  0
SEQEND
  8
0
  0
POLYLINE
  8
22
 66
1
 10
0.0000
 20
0.0000
 30
0.0000
 40
0.1270
 41
0.1270
 70
0
  0
VERTEX
  8
22
 10
6.4115
 20
4.1130
 30
0.0000
  0
VERTEX
  8
22
 10
26.4115
 20
4.1130
 30
0.0000
  0
SEQEND
  8
0
  0
POLYLINE
  8
22
 66
1
 10
0.0000
 20
0.0000
 30
0.0000
 40
0.0635
 41
0.0635
 70
0
  0
VERTEX
  8
22
 10
26.4115
 20
4.0813
 30
0.0000
 42
1.0000
  0
VERTEX
  8
22
 10
26.4115
 20
4.1448
 30
0.0000
  0
SEQEND
  8
0
  0
POLYLINE
  8
22
 66
1
 10
0.0000
 20
0.0000
 30
0.0000
 40
0.0635
 41
0.0635
 70
0
  0
VERTEX
  8
22
 10
6.4115
 20
4.1448
 30
0.0000
 42
1.0000
  0
VERTEX
  8
22
 10
6.4115
 20
4.0813
 30
0.0000
  0
SEQEND
  8
0
  0
POLYLINE
  8
22
 66
1
 10
0.0000
 20
0.0000
 30
0.0000
 40
0.1270
 41
0.1270
 70
0
  0
VERTEX
  8
22
 10
26.4115
 20
4.1130
 30
0.0000
  0
VERTEX
  8
22
 10
26.4115
 20
24.1130
 30
0.0000
  0
SEQEND
  8
0
  0
POLYLINE
  8
22
 66
1
 10
0.0000
 20
0.0000
 30
0.0000
 40
0.0635
 41
0.0635
 70
0
  0
VERTEX
  8
22
 10
26.4432
 20
24.1130
 30
0.0000
 42
1.0000
  0
VERTEX
  8
22
 10
26.3798
 20
24.1130
 30
0.0000
  0
SEQEND
  8
0
  0
POLYLINE
  8
22
 66
1
 10
0.0000
 20
0.0000
 30
0.0000
 40
0.0635
 41
0.0635
 70
0
  0
VERTEX
  8
22
 10
26.3798
 20
4.1130
 30
0.0000
 42
1.0000
  0
VERTEX
  8
22
 10
26.4432
 20
4.1130
 30
0.0000
  0
SEQEND
  8
0
  0
POLYLINE
  8
22
 66
1
 10
0.0000
 20
0.0000
 30
0.0000
 40
0.1270
 41
0.1270
 70
0
  0
VERTEX
  8
22
 10
26.4115
 20
24.1130
 30
0.0000
  0
VERTEX
  8
22
 10
6.4115
 20
24.1130
 30
0.0000
  0
SEQEND
  8
0
  0
POLYLINE
  8
22
 66
1
 10
0.0000
 20
0.0000
 30
0.0000
 40
0.0635
 41
0.0635
 70
0
  0
VERTEX
  8
22
 10
6.4115
 20
24.1447
 30
0.0000
 42
1.0000
  0
VERTEX
  8
22
 10
6.4115
 20
24.0813
 30
0.0000
  0
SEQEND
  8
0
  0
POLYLINE
  8
22
 66
1
 10
0.0000
 20
0.0000
 30
0.0000
 40
0.0635
 41
0.0635
 70
0
  0
VERTEX
  8
22
 10
26.4115
 20
24.0813
 30
0.0000
 42
1.0000
  0
VERTEX
  8
22
 10
26.4115
 20
24.1447
 30
0.0000
  0
SEQEND
  8
0
  0
POLYLINE
  8
22
 66
1
 10
0.0000
 20
0.0000
 30
0.0000
 40
0.1270
 41
0.1270
 70
0
  0
VERTEX
  8
22
 10
16.4115
 20
4.1130
 30
0.0000
 42
1.0000
  0
VERTEX
  8
22
 10
16.4115
 20
24.1130
 30
0.0000
 42
1.0000
  0
VERTEX
  8
22
 10
16.4115
 20
4.1130
 30
0.0000
  0
SEQEND
  8
0
  0
POLYLINE
  8
22
 66
1
 10
0.0000
 20
0.0000
 30
0.0000
 40
0.1270
 41
0.1270
 70
0
  0
VERTEX
  8
22
 10
45.8806
 20
0.2232
 30
0.0000
  0
VERTEX
  8
22
 10
45.8806
 20
3.5232
 30
0.0000
  0
SEQEND
  8
0
  0
POLYLINE
  8
22
 66
1
 10
0.0000
 20
0.0000
 30
0.0000
 40
0.0635
 41
0.0635
 70
0
  0
VERTEX
  8
22
 10
45.9124
 20
3.5232
 30
0.0000
 42
1.0000
  0
VERTEX
  8
22
 10
45.8488
 20
3.5232
 30
0.0000
  0
SEQEND
  8
0
  0
POLYLINE
  8
22
 66
1
 10
0.0000
 20
0.0000
 30
0.0000
 40
0.0635
 41
0.0635
 70
0
  0
VERTEX
  8
22
 10
45.8488
 20
0.2232
 30
0.0000
 42
1.0000
  0
VERTEX
  8
22
 10
45.9124
 20
0.2232
 30
0.0000
  0
SEQEND
  8
0
  0
POLYLINE
  8
22
 66
1
 10
0.0000
 20
0.0000
 30
0.0000
 40
0.1270
 41
0.1270
 70
0
  0
VERTEX
  8
22
 10
45.8806
 20
3.5232
 30
0.0000
  0
VERTEX
  8
22
 10
44.4806
 20
3.5232
 30
0.0000
  0
SEQEND
  8
0
  0
POLYLINE
  8
22
 66
1
 10
0.0000
 20
0.0000
 30
0.0000
 40
0.0635
 41
0.0635
 70
0
  0
VERTEX
  8
22
 10
44.4806
 20
3.5550
 30
0.0000
 42
1.0000
  0
VERTEX
  8
22
 10
44.4806
 20
3.4914
 30
0.0000
  0
SEQEND
  8
0
  0
POLYLINE
  8
22
 66
1
 10
0.0000
 20
0.0000
 30
0.0000
 40
0.0635
 41
0.0635
 70
0
  0
VERTEX
  8
22
 10
45.8806
 20
3.4914
 30
0.0000
 42
1.0000
  0
VERTEX
  8
22
 10
45.8806
 20
3.5550
 30
0.0000
  0
SEQEND
  8
0
  0
POLYLINE
  8
22
 66
1
 10
0.0000
 20
0.0000
 30
0.0000
 40
0.1270
 41
0.1270
 70
0
  0
VERTEX
  8
22
 10
44.4806
 20
3.5232
 30
0.0000
  0
VERTEX
  8
22
 10
44.4806
 20
0.2232
 30
0.0000
  0
SEQEND
  8
0
  0
POLYLINE
  8
22
 66
1
 10
0.0000
 20
0.0000
 30
0.0000
 40
0.0635
 41
0.0635
 70
0
  0
VERTEX
  8
22
 10
44.4489
 20
0.2232
 30
0.0000
 42
1.0000
  0
VERTEX
  8
22
 10
44.5124
 20
0.2232
 30
0.0000
  0
SEQEND
  8
0
  0
POLYLINE
  8
22
 66
1
 10
0.0000
 20
0.0000
 30
0.0000
 40
0.0635
 41
0.0635
 70
0
  0
VERTEX
  8
22
 10
44.5124
 20
3.5232
 30
0.0000
 42
1.0000
  0
VERTEX
  8
22
 10
44.4489
 20
3.5232
 30
0.0000
  0
SEQEND
  8
0
  0
POLYLINE
  8
22
 66
1
 10
0.0000
 20
0.0000
 30
0.0000
 40
0.1270
 41
0.1270
 70
0
  0
VERTEX
  8
22
 10
44.4806
 20
0.2232
 30
0.0000
  0
VERTEX
  8
22
 10
45.8806
 20
0.2232
 30
0.0000
  0
SEQEND
  8
0
  0
POLYLINE
  8
22
 66
1
 10
0.0000
 20
0.0000
 30
0.0000
 40
0.0635
 41
0.0635
 70
0
  0
VERTEX
  8
22
 10
45.8806
 20
0.1915
 30
0.0000
 42
1.0000
  0
VERTEX
  8
22
 10
45.8806
 20
0.2550
 30
0.0000
  0
SEQEND
  8
0
  0
POLYLINE
  8
22
 66
1
 10
0.0000
 20
0.0000
 30
0.0000
 40
0.0635
 41
0.0635
 70
0
  0
VERTEX
  8
22
 10
44.4806
 20
0.2550
 30
0.0000
 42
1.0000
  0
VERTEX
  8
22
 10
44.4806
 20
0.1915
 30
0.0000
  0
SEQEND
  8
0
  0
POLYLINE
  8
22
 66
1
 10
0.0000
 20
0.0000
 30
0.0000
 40
0.0634
 41
0.0634
 70
0
  0
VERTEX
  8
22
 10
9.2163
 20
0.4472
 30
0.0000
  0
VERTEX
  8
22
 10
12.2163
 20
0.4472
 30
0.0000
  0
SEQEND
  8
0
  0
POLYLINE
  8
22
 66
1
 10
0.0000
 20
0.0000
 30
0.0000
 40
0.0317
 41
0.0317
 70
0
  0
VERTEX
  8
22
 10
12.2163
 20
0.4314
 30
0.0000
 42
1.0000
  0
VERTEX
  8
22
 10
12.2163
 20
0.4631
 30
0.0000
  0
SEQEND
  8
0
  0
POLYLINE
  8
22
 66
1
 10
0.0000
 20
0.0000
 30
0.0000
 40
0.0317
 41
0.0317
 70
0
  0
VERTEX
  8
22
 10
9.2163
 20
0.4631
 30
0.0000
 42
1.0000
  0
VERTEX
  8
22
 10
9.2163
 20
0.4314
 30
0.0000
  0
SEQEND
  8
0
  0
POLYLINE
  8
22
 66
1
 10
0.0000
 20
0.0000
 30
0.0000
 40
0.0634
 41
0.0634
 70
0
  0
VERTEX
  8
22
 10
12.2163
 20
0.4472
 30
0.0000
  0
VERTEX
  8
22
 10
12.2163
 20
1.6472
 30
0.0000
  0
SEQEND
  8
0
  0
POLYLINE
  8
22
 66
1
 10
0.0000
 20
0.0000
 30
0.0000
 40
0.0317
 41
0.0317
 70
0
  0
VERTEX
  8
22
 10
12.2322
 20
1.6472
 30
0.0000
 42
1.0000
  0
VERTEX
  8
22
 10
12.2005
 20
1.6472
 30
0.0000
  0
SEQEND
  8
0
  0
POLYLINE
  8
22
 66
1
 10
0.0000
 20
0.0000
 30
0.0000
 40
0.0317
 41
0.0317
 70
0
  0
VERTEX
  8
22
 10
12.2005
 20
0.4472
 30
0.0000
 42
1.0000
  0
VERTEX
  8
22
 10
12.2322
 20
0.4472
 30
0.0000
  0
SEQEND
  8
0
  0
POLYLINE
  8
22
 66
1
 10
0.0000
 20
0.0000
 30
0.0000
 40
0.0634
 41
0.0634
 70
0
  0
VERTEX
  8
22
 10
12.2163
 20
1.6472
 30
0.0000
  0
VERTEX
  8
22
 10
9.2163
 20
1.6472
 30
0.0000
  0
SEQEND
  8
0
  0
POLYLINE
  8
22
 66
1
 10
0.0000
 20
0.0000
 30
0.0000
 40
0.0317
 41
0.0317
 70
0
  0
VERTEX
  8
22
 10
9.2163
 20
1.6630
 30
0.0000
 42
1.0000
  0
VERTEX
  8
22
 10
9.2163
 20
1.6314
 30
0.0000
  0
SEQEND
  8
0
  0
POLYLINE
  8
22
 66
1
 10
0.0000
 20
0.0000
 30
0.0000
 40
0.0317
 41
0.0317
 70
0
  0
VERTEX
  8
22
 10
12.2163
 20
1.6314
 30
0.0000
 42
1.0000
  0
VERTEX
  8
22
 10
12.2163
 20
1.6630
 30
0.0000
  0
SEQEND
  8
0
  0
POLYLINE
  8
22
 66
1
 10
0.0000
 20
0.0000
 30
0.0000
 40
0.0634
 41
0.0634
 70
0
  0
VERTEX
  8
22
 10
9.2163
 20
1.6472
 30
0.0000
  0
VERTEX
  8
22
 10
9.2163
 20
0.4472
 30
0.0000
  0
SEQEND
  8
0
  0
POLYLINE
  8
22
 66
1
 10
0.0000
 20
0.0000
 30
0.0000
 40
0.0317
 41
0.0317
 70
0
  0
VERTEX
  8
22
 10
9.2005
 20
0.4472
 30
0.0000
 42
1.0000
  0
VERTEX
  8
22
 10
9.2322
 20
0.4472
 30
0.0000
  0
SEQEND
  8
0
  0
POLYLINE
  8
22
 66
1
 10
0.0000
 20
0.0000
 30
0.0000
 40
0.0317
 41
0.0317
 70
0
  0
VERTEX
  8
22
 10
9.2322
 20
1.6472
 30
0.0000
 42
1.0000
  0
VERTEX
  8
22
 10
9.2005
 20
1.6472
 30
0.0000
  0
SEQEND
  8
0
  0
POLYLINE
  8
22
 66
1
 10
0.0000
 20
0.0000
 30
0.0000
 40
0.0634
 41
0.0634
 70
0
  0
VERTEX
  8
22
 10
11.0072
 20
4.9222
 30
0.0000
  0
VERTEX
  8
22
 10
11.0072
 20
1.9222
 30
0.0000
  0
SEQEND
  8
0
  0
POLYLINE
  8
22
 66
1
 10
0.0000
 20
0.0000
 30
0.0000
 40
0.0317
 41
0.0317
 70
0
  0
VERTEX
  8
22
 10
10.9914
 20
1.9222
 30
0.0000
 42
1.0000
  0
VERTEX
  8
22
 10
11.0231
 20
1.9222
 30
0.0000
  0
SEQEND
  8
0
  0
POLYLINE
  8
22
 66
1
 10
0.0000
 20
0.0000
 30
0.0000
 40
0.0317
 41
0.0317
 70
0
  0
VERTEX
  8
22
 10
11.0231
 20
4.9222
 30
0.0000
 42
1.0000
  0
VERTEX
  8
22
 10
10.9914
 20
4.9222
 30
0.0000
  0
SEQEND
  8
0
  0
POLYLINE
  8
22
 66
1
 10
0.0000
 20
0.0000
 30
0.0000
 40
0.0634
 41
0.0634
 70
0
  0
VERTEX
  8
22
 10
11.0072
 20
1.9222
 30
0.0000
  0
VERTEX
  8
22
 10
12.2072
 20
1.9222
 30
0.0000
  0
SEQEND
  8
0
  0
POLYLINE
  8
22
 66
1
 10
0.0000
 20
0.0000
 30
0.0000
 40
0.0317
 41
0.0317
 70
0
  0
VERTEX
  8
22
 10
12.2072
 20
1.9064
 30
0.0000
 42
1.0000
  0
VERTEX
  8
22
 10
12.2072
 20
1.9381
 30
0.0000
  0
SEQEND
  8
0
  0
POLYLINE
  8
22
 66
1
 10
0.0000
 20
0.0000
 30
0.0000
 40
0.0317
 41
0.0317
 70
0
  0
VERTEX
  8
22
 10
11.0072
 20
1.9381
 30
0.0000
 42
1.0000
  0
VERTEX
  8
22
 10
11.0072
 20
1.9064
 30
0.0000
  0
SEQEND
  8
0
  0
POLYLINE
  8
22
 66
1
 10
0.0000
 20
0.0000
 30
0.0000
 40
0.0634
 41
0.0634
 70
0
  0
VERTEX
  8
22
 10
12.2072
 20
1.9222
 30
0.0000
  0
VERTEX
  8
22
 10
12.2072
 20
4.9222
 30
0.0000
  0
SEQEND
  8
0
  0
POLYLINE
  8
22
 66
1
 10
0.0000
 20
0.0000
 30
0.0000
 40
0.0317
 41
0.0317
 70
0
  0
VERTEX
  8
22
 10
12.2231
 20
4.9222
 30
0.0000
 42
1.0000
  0
VERTEX
  8
22
 10
12.1913
 20
4.9222
 30
0.0000
  0
SEQEND
  8
0
  0
POLYLINE
  8
22
 66
1
 10
0.0000
 20
0.0000
 30
0.0000
 40
0.0317
 41
0.0317
 70
0
  0
VERTEX
  8
22
 10
12.1913
 20
1.9222
 30
0.0000
 42
1.0000
  0
VERTEX
  8
22
 10
12.2231
 20
1.9222
 30
0.0000
  0
SEQEND
  8
0
  0
POLYLINE
  8
22
 66
1
 10
0.0000
 20
0.0000
 30
0.0000
 40
0.0634
 41
0.0634
 70
0
  0
VERTEX
  8
22
 10
12.2072
 20
4.9222
 30
0.0000
  0
VERTEX
  8
22
 10
11.0072
 20
4.9222
 30
0.0000
  0
SEQEND
  8
0
  0
POLYLINE
  8
22
 66
1
 10
0.0000
 20
0.0000
 30
0.0000
 40
0.0317
 41
0.0317
 70
0
  0
VERTEX
  8
22
 10
11.0072
 20
4.9381
 30
0.0000
 42
1.0000
  0
VERTEX
  8
22
 10
11.0072
 20
4.9063
 30
0.0000
  0
SEQEND
  8
0
  0
POLYLINE
  8
22
 66
1
 10
0.0000
 20
0.0000
 30
0.0000
 40
0.0317
 41
0.0317
 70
0
  0
VERTEX
  8
22
 10
12.2072
 20
4.9063
 30
0.0000
 42
1.0000
  0
VERTEX
  8
22
 10
12.2072
 20
4.9381
 30
0.0000
  0
SEQEND
  8
0
  0
POLYLINE
  8
22
 66
1
 10
0.0000
 20
0.0000
 30
0.0000
 40
0.0634
 41
0.0634
 70
0
  0
VERTEX
  8
22
 10
4.5915
 20
0.3321
 30
0.0000
  0
VERTEX
  8
22
 10
4.5915
 20
3.3321
 30
0.0000
  0
SEQEND
  8
0
  0
POLYLINE
  8
22
 66
1
 10
0.0000
 20
0.0000
 30
0.0000
 40
0.0317
 41
0.0317
 70
0
  0
VERTEX
  8
22
 10
4.6074
 20
3.3321
 30
0.0000
 42
1.0000
  0
VERTEX
  8
22
 10
4.5756
 20
3.3321
 30
0.0000
  0
SEQEND
  8
0
  0
POLYLINE
  8
22
 66
1
 10
0.0000
 20
0.0000
 30
0.0000
 40
0.0317
 41
0.0317
 70
0
  0
VERTEX
  8
22
 10
4.5756
 20
0.3321
 30
0.0000
 42
1.0000
  0
VERTEX
  8
22
 10
4.6074
 20
0.3321
 30
0.0000
  0
SEQEND
  8
0
  0
POLYLINE
  8
22
 66
1
 10
0.0000
 20
0.0000
 30
0.0000
 40
0.0634
 41
0.0634
 70
0
  0
VERTEX
  8
22
 10
4.5915
 20
3.3321
 30
0.0000
  0
VERTEX
  8
22
 10
3.3915
 20
3.3321
 30
0.0000
  0
SEQEND
  8
0
  0
POLYLINE
  8
22
 66
1
 10
0.0000
 20
0.0000
 30
0.0000
 40
0.0317
 41
0.0317
 70
0
  0
VERTEX
  8
22
 10
3.3915
 20
3.3479
 30
0.0000
 42
1.0000
  0
VERTEX
  8
22
 10
3.3915
 20
3.3163
 30
0.0000
  0
SEQEND
  8
0
  0
POLYLINE
  8
22
 66
1
 10
0.0000
 20
0.0000
 30
0.0000
 40
0.0317
 41
0.0317
 70
0
  0
VERTEX
  8
22
 10
4.5915
 20
3.3163
 30
0.0000
 42
1.0000
  0
VERTEX
  8
22
 10
4.5915
 20
3.3479
 30
0.0000
  0
SEQEND
  8
0
  0
POLYLINE
  8
22
 66
1
 10
0.0000
 20
0.0000
 30
0.0000
 40
0.0634
 41
0.0634
 70
0
  0
VERTEX
  8
22
 10
3.3915
 20
3.3321
 30
0.0000
  0
VERTEX
  8
22
 10
3.3915
 20
0.3321
 30
0.0000
  0
SEQEND
  8
0
  0
POLYLINE
  8
22
 66
1
 10
0.0000
 20
0.0000
 30
0.0000
 40
0.0317
 41
0.0317
 70
0
  0
VERTEX
  8
22
 10
3.3757
 20
0.3321
 30
0.0000
 42
1.0000
  0
VERTEX
  8
22
 10
3.4074
 20
0.3321
 30
0.0000
  0
SEQEND
  8
0
  0
POLYLINE
  8
22
 66
1
 10
0.0000
 20
0.0000
 30
0.0000
 40
0.0317
 41
0.0317
 70
0
  0
VERTEX
  8
22
 10
3.4074
 20
3.3321
 30
0.0000
 42
1.0000
  0
VERTEX
  8
22
 10
3.3757
 20
3.3321
 30
0.0000
  0
SEQEND
  8
0
  0
POLYLINE
  8
22
 66
1
 10
0.0000
 20
0.0000
 30
0.0000
 40
0.0634
 41
0.0634
 70
0
  0
VERTEX
  8
22
 10
3.3915
 20
0.3321
 30
0.0000
  0
VERTEX
  8
22
 10
4.5915
 20
0.3321
 30
0.0000
  0
SEQEND
  8
0
  0
POLYLINE
  8
22
 66
1
 10
0.0000
 20
0.0000
 30
0.0000
 40
0.0317
 41
0.0317
 70
0
  0
VERTEX
  8
22
 10
4.5915
 20
0.3163
 30
0.0000
 42
1.0000
  0
VERTEX
  8
22
 10
4.5915
 20
0.3479
 30
0.0000
  0
SEQEND
  8
0
  0
POLYLINE
  8
22
 66
1
 10
0.0000
 20
0.0000
 30
0.0000
 40
0.0317
 41
0.0317
 70
0
  0
VERTEX
  8
22
 10
3.3915
 20
0.3479
 30
0.0000
 42
1.0000
  0
VERTEX
  8
22
 10
3.3915
 20
0.3163
 30
0.0000
  0
SEQEND
  8
0
  0
POLYLINE
  8
22
 66
1
 10
0.0000
 20
0.0000
 30
0.0000
 40
0.0634
 41
0.0634
 70
0
  0
VERTEX
  8
22
 10
3.0182
 20
0.3391
 30
0.0000
  0
VERTEX
  8
22
 10
3.0182
 20
3.3391
 30
0.0000
  0
SEQEND
  8
0
  0
POLYLINE
  8
22
 66
1
 10
0.0000
 20
0.0000
 30
0.0000
 40
0.0317
 41
0.0317
 70
0
  0
VERTEX
  8
22
 10
3.0341
 20
3.3391
 30
0.0000
 42
1.0000
  0
VERTEX
  8
22
 10
3.0024
 20
3.3391
 30
0.0000
  0
SEQEND
  8
0
  0
POLYLINE
  8
22
 66
1
 10
0.0000
 20
0.0000
 30
0.0000
 40
0.0317
 41
0.0317
 70
0
  0
VERTEX
  8
22
 10
3.0024
 20
0.3391
 30
0.0000
 42
1.0000
  0
VERTEX
  8
22
 10
3.0341
 20
0.3391
 30
0.0000
  0
SEQEND
  8
0
  0
POLYLINE
  8
22
 66
1
 10
0.0000
 20
0.0000
 30
0.0000
 40
0.0634
 41
0.0634
 70
0
  0
VERTEX
  8
22
 10
3.0182
 20
3.3391
 30
0.0000
  0
VERTEX
  8
22
 10
1.8182
 20
3.3391
 30
0.0000
  0
SEQEND
  8
0
  0
POLYLINE
  8
22
 66
1
 10
0.0000
 20
0.0000
 30
0.0000
 40
0.0317
 41
0.0317
 70
0
  0
VERTEX
  8
22
 10
1.8182
 20
3.3550
 30
0.0000
 42
1.0000
  0
VERTEX
  8
22
 10
1.8182
 20
3.3233
 30
0.0000
  0
SEQEND
  8
0
  0
POLYLINE
  8
22
 66
1
 10
0.0000
 20
0.0000
 30
0.0000
 40
0.0317
 41
0.0317
 70
0
  0
VERTEX
  8
22
 10
3.0182
 20
3.3233
 30
0.0000
 42
1.0000
  0
VERTEX
  8
22
 10
3.0182
 20
3.3550
 30
0.0000
  0
SEQEND
  8
0
  0
POLYLINE
  8
22
 66
1
 10
0.0000
 20
0.0000
 30
0.0000
 40
0.0634
 41
0.0634
 70
0
  0
VERTEX
  8
22
 10
1.8182
 20
3.3391
 30
0.0000
  0
VERTEX
  8
22
 10
1.8182
 20
0.3391
 30
0.0000
  0
SEQEND
  8
0
  0
POLYLINE
  8
22
 66
1
 10
0.0000
 20
0.0000
 30
0.0000
 40
0.0317
 41
0.0317
 70
0
  0
VERTEX
  8
22
 10
1.8024
 20
0.3391
 30
0.0000
 42
1.0000
  0
VERTEX
  8
22
 10
1.8340
 20
0.3391
 30
0.0000
  0
SEQEND
  8
0
  0
POLYLINE
  8
22
 66
1
 10
0.0000
 20
0.0000
 30
0.0000
 40
0.0317
 41
0.0317
 70
0
  0
VERTEX
  8
22
 10
1.8340
 20
3.3391
 30
0.0000
 42
1.0000
  0
VERTEX
  8
22
 10
1.8024
 20
3.3391
 30
0.0000
  0
SEQEND
  8
0
  0
POLYLINE
  8
22
 66
1
 10
0.0000
 20
0.0000
 30
0.0000
 40
0.0634
 41
0.0634
 70
0
  0
VERTEX
  8
22
 10
1.8182
 20
0.3391
 30
0.0000
  0
VERTEX
  8
22
 10
3.0182
 20
0.3391
 30
0.0000
  0
SEQEND
  8
0
  0
POLYLINE
  8
22
 66
1
 10
0.0000
 20
0.0000
 30
0.0000
 40
0.0317
 41
0.0317
 70
0
  0
VERTEX
  8
22
 10
3.0182
 20
0.3233
 30
0.0000
 42
1.0000
  0
VERTEX
  8
22
 10
3.0182
 20
0.3549
 30
0.0000
  0
SEQEND
  8
0
  0
POLYLINE
  8
22
 66
1
 10
0.0000
 20
0.0000
 30
0.0000
 40
0.0317
 41
0.0317
 70
0
  0
VERTEX
  8
22
 10
1.8182
 20
0.3549
 30
0.0000
 42
1.0000
  0
VERTEX
  8
22
 10
1.8182
 20
0.3233
 30
0.0000
  0
SEQEND
  8
0
  0
POLYLINE
  8
22
 66
1
 10
0.0000
 20
0.0000
 30
0.0000
 40
0.0634
 41
0.0634
 70
0
  0
VERTEX
  8
22
 10
0.3852
 20
3.2816
 30
0.0000
  0
VERTEX
  8
22
 10
0.3852
 20
0.2816
 30
0.0000
  0
SEQEND
  8
0
  0
POLYLINE
  8
22
 66
1
 10
0.0000
 20
0.0000
 30
0.0000
 40
0.0317
 41
0.0317
 70
0
  0
VERTEX
  8
22
 10
0.3694
 20
0.2816
 30
0.0000
 42
1.0000
  0
VERTEX
  8
22
 10
0.4011
 20
0.2816
 30
0.0000
  0
SEQEND
  8
0
  0
POLYLINE
  8
22
 66
1
 10
0.0000
 20
0.0000
 30
0.0000
 40
0.0317
 41
0.0317
 70
0
  0
VERTEX
  8
22
 10
0.4011
 20
3.2816
 30
0.0000
 42
1.0000
  0
VERTEX
  8
22
 10
0.3694
 20
3.2816
 30
0.0000
  0
SEQEND
  8
0
  0
POLYLINE
  8
22
 66
1
 10
0.0000
 20
0.0000
 30
0.0000
 40
0.0634
 41
0.0634
 70
0
  0
VERTEX
  8
22
 10
0.3852
 20
0.2816
 30
0.0000
  0
VERTEX
  8
22
 10
1.5852
 20
0.2816
 30
0.0000
  0
SEQEND
  8
0
  0
POLYLINE
  8
22
 66
1
 10
0.0000
 20
0.0000
 30
0.0000
 40
0.0317
 41
0.0317
 70
0
  0
VERTEX
  8
22
 10
1.5852
 20
0.2658
 30
0.0000
 42
1.0000
  0
VERTEX
  8
22
 10
1.5852
 20
0.2974
 30
0.0000
  0
SEQEND
  8
0
  0
POLYLINE
  8
22
 66
1
 10
0.0000
 20
0.0000
 30
0.0000
 40
0.0317
 41
0.0317
 70
0
  0
VERTEX
  8
22
 10
0.3852
 20
0.2974
 30
0.0000
 42
1.0000
  0
VERTEX
  8
22
 10
0.3852
 20
0.2658
 30
0.0000
  0
SEQEND
  8
0
  0
POLYLINE
  8
22
 66
1
 10
0.0000
 20
0.0000
 30
0.0000
 40
0.0634
 41
0.0634
 70
0
  0
VERTEX
  8
22
 10
1.5852
 20
0.2816
 30
0.0000
  0
VERTEX
  8
22
 10
1.5852
 20
3.2816
 30
0.0000
  0
SEQEND
  8
0
  0
POLYLINE
  8
22
 66
1
 10
0.0000
 20
0.0000
 30
0.0000
 40
0.0317
 41
0.0317
 70
0
  0
VERTEX
  8
22
 10
1.6011
 20
3.2816
 30
0.0000
 42
1.0000
  0
VERTEX
  8
22
 10
1.5694
 20
3.2816
 30
0.0000
  0
SEQEND
  8
0
  0
POLYLINE
  8
22
 66
1
 10
0.0000
 20
0.0000
 30
0.0000
 40
0.0317
 41
0.0317
 70
0
  0
VERTEX
  8
22
 10
1.5694
 20
0.2816
 30
0.0000
 42
1.0000
  0
VERTEX
  8
22
 10
1.6011
 20
0.2816
 30
0.0000
  0
SEQEND
  8
0
  0
POLYLINE
  8
22
 66
1
 10
0.0000
 20
0.0000
 30
0.0000
 40
0.0634
 41
0.0634
 70
0
  0
VERTEX
  8
22
 10
1.5852
 20
3.2816
 30
0.0000
  0
VERTEX
  8
22
 10
0.3852
 20
3.2816
 30
0.0000
  0
SEQEND
  8
0
  0
POLYLINE
  8
22
 66
1
 10
0.0000
 20
0.0000
 30
0.0000
 40
0.0317
 41
0.0317
 70
0
  0
VERTEX
  8
22
 10
0.3852
 20
3.2974
 30
0.0000
 42
1.0000
  0
VERTEX
  8
22
 10
0.3852
 20
3.2658
 30
0.0000
  0
SEQEND
  8
0
  0
POLYLINE
  8
22
 66
1
 10
0.0000
 20
0.0000
 30
0.0000
 40
0.0317
 41
0.0317
 70
0
  0
VERTEX
  8
22
 10
1.5852
 20
3.2658
 30
0.0000
 42
1.0000
  0
VERTEX
  8
22
 10
1.5852
 20
3.2974
 30
0.0000
  0
SEQEND
  8
0
  0
POLYLINE
  8
22
 66
1
 10
0.0000
 20
0.0000
 30
0.0000
 40
0.2032
 41
0.2032
 70
0
  0
VERTEX
  8
22
 10
26.1265
 20
1.3788
 30
0.0000
  0
VERTEX
  8
22
 10
26.1265
 20
2.1788
 30
0.0000
  0
SEQEND
  8
0
  0
POLYLINE
  8
22
 66
1
 10
0.0000
 20
0.0000
 30
0.0000
 40
0.1016
 41
0.1016
 70
0
  0
VERTEX
  8
22
 10
26.1773
 20
2.1788
 30
0.0000
 42
1.0000
  0
VERTEX
  8
22
 10
26.0757
 20
2.1788
 30
0.0000
  0
SEQEND
  8
0
  0
POLYLINE
  8
22
 66
1
 10
0.0000
 20
0.0000
 30
0.0000
 40
0.1016
 41
0.1016
 70
0
  0
VERTEX
  8
22
 10
26.0757
 20
1.3788
 30
0.0000
 42
1.0000
  0
VERTEX
  8
22
 10
26.1773
 20
1.3788
 30
0.0000
  0
SEQEND
  8
0
  0
POLYLINE
  8
22
 66
1
 10
0.0000
 20
0.0000
 30
0.0000
 40
0.2032
 41
0.2032
 70
0
  0
VERTEX
  8
22
 10
26.1265
 20
3.5788
 30
0.0000
  0
VERTEX
  8
22
 10
26.1265
 20
4.3788
 30
0.0000
  0
SEQEND
  8
0
  0
POLYLINE
  8
22
 66
1
 10
0.0000
 20
0.0000
 30
0.0000
 40
0.1016
 41
0.1016
 70
0
  0
VERTEX
  8
22
 10
26.1773
 20
4.3788
 30
0.0000
 42
1.0000
  0
VERTEX
  8
22
 10
26.0757
 20
4.3788
 30
0.0000
  0
SEQEND
  8
0
  0
POLYLINE
  8
22
 66
1
 10
0.0000
 20
0.0000
 30
0.0000
 40
0.1016
 41
0.1016
 70
0
  0
VERTEX
  8
22
 10
26.0757
 20
3.5788
 30
0.0000
 42
1.0000
  0
VERTEX
  8
22
 10
26.1773
 20
3.5788
 30
0.0000
  0
SEQEND
  8
0
  0
POLYLINE
  8
22
 66
1
 10
0.0000
 20
0.0000
 30
0.0000
 40
0.2032
 41
0.2032
 70
0
  0
VERTEX
  8
22
 10
21.1265
 20
4.3788
 30
0.0000
  0
VERTEX
  8
22
 10
21.1265
 20
3.5788
 30
0.0000
  0
SEQEND
  8
0
  0
POLYLINE
  8
22
 66
1
 10
0.0000
 20
0.0000
 30
0.0000
 40
0.1016
 41
0.1016
 70
0
  0
VERTEX
  8
22
 10
21.0757
 20
3.5788
 30
0.0000
 42
1.0000
  0
VERTEX
  8
22
 10
21.1773
 20
3.5788
 30
0.0000
  0
SEQEND
  8
0
  0
POLYLINE
  8
22
 66
1
 10
0.0000
 20
0.0000
 30
0.0000
 40
0.1016
 41
0.1016
 70
0
  0
VERTEX
  8
22
 10
21.1773
 20
4.3788
 30
0.0000
 42
1.0000
  0
VERTEX
  8
22
 10
21.0757
 20
4.3788
 30
0.0000
  0
SEQEND
  8
0
  0
POLYLINE
  8
22
 66
1
 10
0.0000
 20
0.0000
 30
0.0000
 40
0.2032
 41
0.2032
 70
0
  0
VERTEX
  8
22
 10
21.1265
 20
2.1788
 30
0.0000
  0
VERTEX
  8
22
 10
21.1265
 20
1.3788
 30
0.0000
  0
SEQEND
  8
0
  0
POLYLINE
  8
22
 66
1
 10
0.0000
 20
0.0000
 30
0.0000
 40
0.1016
 41
0.1016
 70
0
  0
VERTEX
  8
22
 10
21.0757
 20
1.3788
 30
0.0000
 42
1.0000
  0
VERTEX
  8
22
 10
21.1773
 20
1.3788
 30
0.0000
  0
SEQEND
  8
0
  0
POLYLINE
  8
22
 66
1
 10
0.0000
 20
0.0000
 30
0.0000
 40
0.1016
 41
0.1016
 70
0
  0
VERTEX
  8
22
 10
21.1773
 20
2.1788
 30
0.0000
 42
1.0000
  0
VERTEX
  8
22
 10
21.0757
 20
2.1788
 30
0.0000
  0
SEQEND
  8
0
  0
POLYLINE
  8
22
 66
1
 10
0.0000
 20
0.0000
 30
0.0000
 40
0.2032
 41
0.2032
 70
0
  0
VERTEX
  8
22
 10
24.6265
 20
2.7788
 30
0.0000
 42
1.0000
  0
VERTEX
  8
22
 10
24.6265
 20
2.9788
 30
0.0000
 42
1.0000
  0
VERTEX
  8
22
 10
24.6265
 20
2.7788
 30
0.0000
  0
SEQEND
  8
0
  0
POLYLINE
  8
22
 66
1
 10
0.0000
 20
0.0000
 30
0.0000
 40
0.1524
 41
0.1524
 70
0
  0
VERTEX
  8
22
 10
7.7861
 20
3.1245
 30
0.0000
  0
VERTEX
  8
22
 10
6.1653
 20
3.1245
 30
0.0000
  0
SEQEND
  8
0
  0
POLYLINE
  8
22
 66
1
 10
0.0000
 20
0.0000
 30
0.0000
 40
0.0762
 41
0.0762
 70
0
  0
VERTEX
  8
22
 10
6.1653
 20
3.1626
 30
0.0000
 42
1.0000
  0
VERTEX
  8
22
 10
6.1653
 20
3.0864
 30
0.0000
  0
SEQEND
  8
0
  0
POLYLINE
  8
22
 66
1
 10
0.0000
 20
0.0000
 30
0.0000
 40
0.0762
 41
0.0762
 70
0
  0
VERTEX
  8
22
 10
7.7861
 20
3.0864
 30
0.0000
 42
1.0000
  0
VERTEX
  8
22
 10
7.7861
 20
3.1626
 30
0.0000
  0
SEQEND
  8
0
  0
POLYLINE
  8
22
 66
1
 10
0.0000
 20
0.0000
 30
0.0000
 40
0.1524
 41
0.1524
 70
0
  0
VERTEX
  8
22
 10
6.1653
 20
0.2797
 30
0.0000
  0
VERTEX
  8
22
 10
7.7861
 20
0.2797
 30
0.0000
  0
SEQEND
  8
0
  0
POLYLINE
  8
22
 66
1
 10
0.0000
 20
0.0000
 30
0.0000
 40
0.0762
 41
0.0762
 70
0
  0
VERTEX
  8
22
 10
7.7861
 20
0.2416
 30
0.0000
 42
1.0000
  0
VERTEX
  8
22
 10
7.7861
 20
0.3178
 30
0.0000
  0
SEQEND
  8
0
  0
POLYLINE
  8
22
 66
1
 10
0.0000
 20
0.0000
 30
0.0000
 40
0.0762
 41
0.0762
 70
0
  0
VERTEX
  8
22
 10
6.1653
 20
0.3178
 30
0.0000
 42
1.0000
  0
VERTEX
  8
22
 10
6.1653
 20
0.2416
 30
0.0000
  0
SEQEND
  8
0
  0
POLYLINE
  8
22
 66
1
 10
0.0000
 20
0.0000
 30
0.0000
 40
0.1524
 41
0.1524
 70
0
  0
VERTEX
  8
22
 10
7.7861
 20
1.1797
 30
0.0000
  0
VERTEX
  8
22
 10
7.7861
 20
2.2245
 30
0.0000
  0
SEQEND
  8
0
  0
POLYLINE
  8
22
 66
1
 10
0.0000
 20
0.0000
 30
0.0000
 40
0.0762
 41
0.0762
 70
0
  0
VERTEX
  8
22
 10
7.8242
 20
2.2245
 30
0.0000
 42
1.0000
  0
VERTEX
  8
22
 10
7.7480
 20
2.2245
 30
0.0000
  0
SEQEND
  8
0
  0
POLYLINE
  8
22
 66
1
 10
0.0000
 20
0.0000
 30
0.0000
 40
0.0762
 41
0.0762
 70
0
  0
VERTEX
  8
22
 10
7.7480
 20
1.1797
 30
0.0000
 42
1.0000
  0
VERTEX
  8
22
 10
7.8242
 20
1.1797
 30
0.0000
  0
SEQEND
  8
0
  0
POLYLINE
  8
22
 66
1
 10
0.0000
 20
0.0000
 30
0.0000
 40
0.1524
 41
0.1524
 70
0
  0
VERTEX
  8
22
 10
6.1653
 20
1.2745
 30
0.0000
  0
VERTEX
  8
22
 10
6.1653
 20
1.1797
 30
0.0000
  0
SEQEND
  8
0
  0
POLYLINE
  8
22
 66
1
 10
0.0000
 20
0.0000
 30
0.0000
 40
0.0762
 41
0.0762
 70
0
  0
VERTEX
  8
22
 10
6.1272
 20
1.1797
 30
0.0000
 42
1.0000
  0
VERTEX
  8
22
 10
6.2034
 20
1.1797
 30
0.0000
  0
SEQEND
  8
0
  0
POLYLINE
  8
22
 66
1
 10
0.0000
 20
0.0000
 30
0.0000
 40
0.0762
 41
0.0762
 70
0
  0
VERTEX
  8
22
 10
6.2034
 20
1.2745
 30
0.0000
 42
1.0000
  0
VERTEX
  8
22
 10
6.1272
 20
1.2745
 30
0.0000
  0
SEQEND
  8
0
  0
POLYLINE
  8
22
 66
1
 10
0.0000
 20
0.0000
 30
0.0000
 40
0.1524
 41
0.1524
 70
0
  0
VERTEX
  8
22
 10
6.1653
 20
2.2245
 30
0.0000
  0
VERTEX
  8
22
 10
6.1653
 20
2.1297
 30
0.0000
  0
SEQEND
  8
0
  0
POLYLINE
  8
22
 66
1
 10
0.0000
 20
0.0000
 30
0.0000
 40
0.0762
 41
0.0762
 70
0
  0
VERTEX
  8
22
 10
6.1272
 20
2.1297
 30
0.0000
 42
1.0000
  0
VERTEX
  8
22
 10
6.2034
 20
2.1297
 30
0.0000
  0
SEQEND
  8
0
  0
POLYLINE
  8
22
 66
1
 10
0.0000
 20
0.0000
 30
0.0000
 40
0.0762
 41
0.0762
 70
0
  0
VERTEX
  8
22
 10
6.2034
 20
2.2245
 30
0.0000
 42
1.0000
  0
VERTEX
  8
22
 10
6.1272
 20
2.2245
 30
0.0000
  0
SEQEND
  8
0
  0
POLYLINE
  8
22
 66
1
 10
0.0000
 20
0.0000
 30
0.0000
 40
0.1524
 41
0.1524
 70
0
  0
VERTEX
  8
22
 10
6.1653
 20
0.3745
 30
0.0000
  0
VERTEX
  8
22
 10
6.1653
 20
0.2797
 30
0.0000
  0
SEQEND
  8
0
  0
POLYLINE
  8
22
 66
1
 10
0.0000
 20
0.0000
 30
0.0000
 40
0.0762
 41
0.0762
 70
0
  0
VERTEX
  8
22
 10
6.1272
 20
0.2797
 30
0.0000
 42
1.0000
  0
VERTEX
  8
22
 10
6.2034
 20
0.2797
 30
0.0000
  0
SEQEND
  8
0
  0
POLYLINE
  8
22
 66
1
 10
0.0000
 20
0.0000
 30
0.0000
 40
0.0762
 41
0.0762
 70
0
  0
VERTEX
  8
22
 10
6.2034
 20
0.3745
 30
0.0000
 42
1.0000
  0
VERTEX
  8
22
 10
6.1272
 20
0.3745
 30
0.0000
  0
SEQEND
  8
0
  0
POLYLINE
  8
22
 66
1
 10
0.0000
 20
0.0000
 30
0.0000
 40
0.1524
 41
0.1524
 70
0
  0
VERTEX
  8
22
 10
6.1653
 20
3.1245
 30
0.0000
  0
VERTEX
  8
22
 10
6.1653
 20
3.0297
 30
0.0000
  0
SEQEND
  8
0
  0
POLYLINE
  8
22
 66
1
 10
0.0000
 20
0.0000
 30
0.0000
 40
0.0762
 41
0.0762
 70
0
  0
VERTEX
  8
22
 10
6.1272
 20
3.0297
 30
0.0000
 42
1.0000
  0
VERTEX
  8
22
 10
6.2034
 20
3.0297
 30
0.0000
  0
SEQEND
  8
0
  0
POLYLINE
  8
22
 66
1
 10
0.0000
 20
0.0000
 30
0.0000
 40
0.0762
 41
0.0762
 70
0
  0
VERTEX
  8
22
 10
6.2034
 20
3.1245
 30
0.0000
 42
1.0000
  0
VERTEX
  8
22
 10
6.1272
 20
3.1245
 30
0.0000
  0
SEQEND
  8
0
  0
POLYLINE
  8
22
 66
1
 10
0.0000
 20
0.0000
 30
0.0000
 40
0.1524
 41
0.1524
 70
0
  0
VERTEX
  8
22
 10
7.7861
 20
3.0297
 30
0.0000
  0
VERTEX
  8
22
 10
7.7861
 20
3.1245
 30
0.0000
  0
SEQEND
  8
0
  0
POLYLINE
  8
22
 66
1
 10
0.0000
 20
0.0000
 30
0.0000
 40
0.0762
 41
0.0762
 70
0
  0
VERTEX
  8
22
 10
7.8242
 20
3.1245
 30
0.0000
 42
1.0000
  0
VERTEX
  8
22
 10
7.7480
 20
3.1245
 30
0.0000
  0
SEQEND
  8
0
  0
POLYLINE
  8
22
 66
1
 10
0.0000
 20
0.0000
 30
0.0000
 40
0.0762
 41
0.0762
 70
0
  0
VERTEX
  8
22
 10
7.7480
 20
3.0297
 30
0.0000
 42
1.0000
  0
VERTEX
  8
22
 10
7.8242
 20
3.0297
 30
0.0000
  0
SEQEND
  8
0
  0
POLYLINE
  8
22
 66
1
 10
0.0000
 20
0.0000
 30
0.0000
 40
0.1524
 41
0.1524
 70
0
  0
VERTEX
  8
22
 10
7.7861
 20
0.2797
 30
0.0000
  0
VERTEX
  8
22
 10
7.7861
 20
0.3745
 30
0.0000
  0
SEQEND
  8
0
  0
POLYLINE
  8
22
 66
1
 10
0.0000
 20
0.0000
 30
0.0000
 40
0.0762
 41
0.0762
 70
0
  0
VERTEX
  8
22
 10
7.8242
 20
0.3745
 30
0.0000
 42
1.0000
  0
VERTEX
  8
22
 10
7.7480
 20
0.3745
 30
0.0000
  0
SEQEND
  8
0
  0
POLYLINE
  8
22
 66
1
 10
0.0000
 20
0.0000
 30
0.0000
 40
0.0762
 41
0.0762
 70
0
  0
VERTEX
  8
22
 10
7.7480
 20
0.2797
 30
0.0000
 42
1.0000
  0
VERTEX
  8
22
 10
7.8242
 20
0.2797
 30
0.0000
  0
SEQEND
  8
0
  0
ENDSEC
  0
EOF
