  0
SECTION
  2
HEADER
  9
$ACADVER
  1
AC1009
  9
$FILLMODE
 70
1
  9
$EXTMIN
 10
-1.5360
 20
-3.5584
 30
0.0000
  9
$EXTMAX
 10
49.7408
 20
29.9264
 30
0.0000
  0
ENDSEC
  0
SECTION
  2
TABLES
  0
TABLE
  2
LTYPE
 70
1
  0
LTYPE
  2
CONTINUOUS
 70
64
  3
Solid line
 72
65
 73
0
 40
0
  0
ENDTAB
  0
TABLE
  2
LAYER
 70
255
  0
LAYER
  2
31
 70
64
 62
251
  6
CONTINUOUS
  0
ENDTAB
  0
ENDSEC
  0
SECTION
  2
BLOCKS
  0
BLOCK
  8
0
  2
RECT
 70
64
 10
0.0000
 20
0.0000
 30
0.0000
  3
RECT
  0
SOLID
  8
0
 10
-0.5000
 20
-0.5000
 30
0.0000
 11
0.5000
 21
-0.5000
 31
0.0000
 12
-0.5000
 22
0.5000
 32
0.0000
 13
0.5000
 23
0.5000
 33
0.0000
  0
ENDBLK
  8
0
  0
BLOCK
  8
0
  2
PIE
 70
64
 10
0.0000
 20
0.0000
 30
0.0000
  3
PIE
  0
POLYLINE
  8
0
 66
1
 10
0.0000
 20
0.0000
 30
0.0000
 40
0.5000
 41
0.5000
 70
0
  0
VERTEX
  8
0
 10
0.0000
 20
-0.2500
 30
0.0000
 42
1.0000
  0
VERTEX
  8
0
 10
0.0000
 20
0.2500
 30
0.0000
 42
1.0000
  0
VERTEX
  8
0
 10
0.0000
 20
-0.2500
 30
0.0000
  0
SEQEND
  8
0
  0
ENDBLK
  8
0
  0
BLOCK
  8
0
  2
OCTAGONP
 70
64
 10
0.0000
 20
0.0000
 30
0.0000
  3
OCTAGONP
  0
POLYLINE
  8
0
 66
1
 10
0.0000
 20
0.0000
 30
0.0000
 40
0.5000
 41
0.5000
 70
0
  0
VERTEX
  8
0
 10
-0.2500
 20
-0.1036
 30
0.0000
  0
VERTEX
  8
0
 10
-0.2500
 20
0.1036
 30
0.0000
  0
VERTEX
  8
0
 10
-0.1036
 20
0.2500
 30
0.0000
  0
VERTEX
  8
0
 10
0.1036
 20
0.2500
 30
0.0000
  0
VERTEX
  8
0
 10
0.2500
 20
0.1036
 30
0.0000
  0
VERTEX
  8
0
 10
0.2500
 20
-0.1036
 30
0.0000
  0
VERTEX
  8
0
 10
0.1036
 20
-0.2500
 30
0.0000
  0
VERTEX
  8
0
 10
-0.1036
 20
-0.2500
 30
0.0000
  0
VERTEX
  8
0
 10
-0.2500
 20
-0.1036
 30
0.0000
  0
VERTEX
  8
0
 10
-0.2500
 20
0.1036
 30
0.0000
  0
SEQEND
  8
0
  0
ENDBLK
  8
0
  0
BLOCK
  8
0
  2
SQUAREP
 70
64
 10
0.0000
 20
0.0000
 30
0.0000
  3
SQUAREP
  0
SOLID
  8
0
 10
-0.5000
 20
-0.5000
 30
0.0000
 11
0.5000
 21
-0.5000
 31
0.0000
 12
-0.5000
 22
0.5000
 32
0.0000
 13
0.5000
 23
0.5000
 33
0.0000
  0
ENDBLK
  8
0
  0
BLOCK
  8
0
  2
ROUNDP
 70
64
 10
0.0000
 20
0.0000
 30
0.0000
  3
ROUNDP
  0
POLYLINE
  8
0
 66
1
 10
0.0000
 20
0.0000
 30
0.0000
 40
0.5000
 41
0.5000
 70
0
  0
VERTEX
  8
0
 10
0.0000
 20
-0.2500
 30
0.0000
 42
1.0000
  0
VERTEX
  8
0
 10
0.0000
 20
0.2500
 30
0.0000
 42
1.0000
  0
VERTEX
  8
0
 10
0.0000
 20
-0.2500
 30
0.0000
  0
SEQEND
  8
0
  0
ENDBLK
  8
0
  0
BLOCK
  8
0
  2
ANNULUSP
 70
64
 10
0.0000
 20
0.0000
 30
0.0000
  3
ANNULUSP
  0
POLYLINE
  8
0
 66
1
 10
0.0000
 20
0.0000
 30
0.0000
 40
0.5000
 41
0.5000
 70
0
  0
VERTEX
  8
0
 10
0.0000
 20
-0.2500
 30
0.0000
 42
1.0000
  0
VERTEX
  8
0
 10
0.0000
 20
0.2500
 30
0.0000
 42
1.0000
  0
VERTEX
  8
0
 10
0.0000
 20
-0.2500
 30
0.0000
  0
SEQEND
  8
0
  0
ENDBLK
  8
0
  0
BLOCK
  8
0
  2
THERMALP
 70
64
 10
0.0000
 20
0.0000
 30
0.0000
  3
THERMALP
  0
POLYLINE
  8
0
 66
1
 10
0.0000
 20
0.0000
 30
0.0000
 40
0.1000
 41
0.1000
 70
0
  0
VERTEX
  8
0
 10
-0.2379
 20
0.4500
 30
0.0000
  0
VERTEX
  8
0
 10
0.2379
 20
0.4500
 30
0.0000
  0
SEQEND
  8
0
  0
POLYLINE
  8
0
 66
1
 10
0.0000
 20
0.0000
 30
0.0000
 40
0.0500
 41
0.0500
 70
0
  0
VERTEX
  8
0
 10
0.2379
 20
0.4250
 30
0.0000
 42
1.0000
  0
VERTEX
  8
0
 10
0.2379
 20
0.4750
 30
0.0000
  0
SEQEND
  8
0
  0
POLYLINE
  8
0
 66
1
 10
0.0000
 20
0.0000
 30
0.0000
 40
0.0500
 41
0.0500
 70
0
  0
VERTEX
  8
0
 10
-0.2379
 20
0.4750
 30
0.0000
 42
1.0000
  0
VERTEX
  8
0
 10
-0.2379
 20
0.4250
 30
0.0000
  0
SEQEND
  8
0
  0
POLYLINE
  8
0
 66
1
 10
0.0000
 20
0.0000
 30
0.0000
 40
0.1000
 41
0.1000
 70
0
  0
VERTEX
  8
0
 10
0.4500
 20
0.2379
 30
0.0000
  0
VERTEX
  8
0
 10
0.4500
 20
-0.2379
 30
0.0000
  0
SEQEND
  8
0
  0
POLYLINE
  8
0
 66
1
 10
0.0000
 20
0.0000
 30
0.0000
 40
0.0500
 41
0.0500
 70
0
  0
VERTEX
  8
0
 10
0.4250
 20
-0.2379
 30
0.0000
 42
1.0000
  0
VERTEX
  8
0
 10
0.4750
 20
-0.2379
 30
0.0000
  0
SEQEND
  8
0
  0
POLYLINE
  8
0
 66
1
 10
0.0000
 20
0.0000
 30
0.0000
 40
0.0500
 41
0.0500
 70
0
  0
VERTEX
  8
0
 10
0.4750
 20
0.2379
 30
0.0000
 42
1.0000
  0
VERTEX
  8
0
 10
0.4250
 20
0.2379
 30
0.0000
  0
SEQEND
  8
0
  0
POLYLINE
  8
0
 66
1
 10
0.0000
 20
0.0000
 30
0.0000
 40
0.1000
 41
0.1000
 70
0
  0
VERTEX
  8
0
 10
0.2379
 20
-0.4500
 30
0.0000
  0
VERTEX
  8
0
 10
-0.2379
 20
-0.4500
 30
0.0000
  0
SEQEND
  8
0
  0
POLYLINE
  8
0
 66
1
 10
0.0000
 20
0.0000
 30
0.0000
 40
0.0500
 41
0.0500
 70
0
  0
VERTEX
  8
0
 10
-0.2379
 20
-0.4250
 30
0.0000
 42
1.0000
  0
VERTEX
  8
0
 10
-0.2379
 20
-0.4750
 30
0.0000
  0
SEQEND
  8
0
  0
POLYLINE
  8
0
 66
1
 10
0.0000
 20
0.0000
 30
0.0000
 40
0.0500
 41
0.0500
 70
0
  0
VERTEX
  8
0
 10
0.2379
 20
-0.4750
 30
0.0000
 42
1.0000
  0
VERTEX
  8
0
 10
0.2379
 20
-0.4250
 30
0.0000
  0
SEQEND
  8
0
  0
POLYLINE
  8
0
 66
1
 10
0.0000
 20
0.0000
 30
0.0000
 40
0.1000
 41
0.1000
 70
0
  0
VERTEX
  8
0
 10
-0.4500
 20
-0.2379
 30
0.0000
  0
VERTEX
  8
0
 10
-0.4500
 20
0.2379
 30
0.0000
  0
SEQEND
  8
0
  0
POLYLINE
  8
0
 66
1
 10
0.0000
 20
0.0000
 30
0.0000
 40
0.0500
 41
0.0500
 70
0
  0
VERTEX
  8
0
 10
-0.4250
 20
0.2379
 30
0.0000
 42
1.0000
  0
VERTEX
  8
0
 10
-0.4750
 20
0.2379
 30
0.0000
  0
SEQEND
  8
0
  0
POLYLINE
  8
0
 66
1
 10
0.0000
 20
0.0000
 30
0.0000
 40
0.0500
 41
0.0500
 70
0
  0
VERTEX
  8
0
 10
-0.4750
 20
-0.2379
 30
0.0000
 42
1.0000
  0
VERTEX
  8
0
 10
-0.4250
 20
-0.2379
 30
0.0000
  0
SEQEND
  8
0
  0
ENDBLK
  8
0
  0
BLOCK
  8
0
  2
OCTAGONV
 70
64
 10
0.0000
 20
0.0000
 30
0.0000
  3
OCTAGONV
  0
POLYLINE
  8
0
 66
1
 10
0.0000
 20
0.0000
 30
0.0000
 40
0.5000
 41
0.5000
 70
0
  0
VERTEX
  8
0
 10
-0.2500
 20
-0.1036
 30
0.0000
  0
VERTEX
  8
0
 10
-0.2500
 20
0.1036
 30
0.0000
  0
VERTEX
  8
0
 10
-0.1036
 20
0.2500
 30
0.0000
  0
VERTEX
  8
0
 10
0.1036
 20
0.2500
 30
0.0000
  0
VERTEX
  8
0
 10
0.2500
 20
0.1036
 30
0.0000
  0
VERTEX
  8
0
 10
0.2500
 20
-0.1036
 30
0.0000
  0
VERTEX
  8
0
 10
0.1036
 20
-0.2500
 30
0.0000
  0
VERTEX
  8
0
 10
-0.1036
 20
-0.2500
 30
0.0000
  0
VERTEX
  8
0
 10
-0.2500
 20
-0.1036
 30
0.0000
  0
VERTEX
  8
0
 10
-0.2500
 20
0.1036
 30
0.0000
  0
SEQEND
  8
0
  0
ENDBLK
  8
0
  0
BLOCK
  8
0
  2
SQUAREV
 70
64
 10
0.0000
 20
0.0000
 30
0.0000
  3
SQUAREV
  0
SOLID
  8
0
 10
-0.5000
 20
-0.5000
 30
0.0000
 11
0.5000
 21
-0.5000
 31
0.0000
 12
-0.5000
 22
0.5000
 32
0.0000
 13
0.5000
 23
0.5000
 33
0.0000
  0
ENDBLK
  8
0
  0
BLOCK
  8
0
  2
ROUNDV
 70
64
 10
0.0000
 20
0.0000
 30
0.0000
  3
ROUNDV
  0
POLYLINE
  8
0
 66
1
 10
0.0000
 20
0.0000
 30
0.0000
 40
0.5000
 41
0.5000
 70
0
  0
VERTEX
  8
0
 10
0.0000
 20
-0.2500
 30
0.0000
 42
1.0000
  0
VERTEX
  8
0
 10
0.0000
 20
0.2500
 30
0.0000
 42
1.0000
  0
VERTEX
  8
0
 10
0.0000
 20
-0.2500
 30
0.0000
  0
SEQEND
  8
0
  0
ENDBLK
  8
0
  0
BLOCK
  8
0
  2
ANNULUSV
 70
64
 10
0.0000
 20
0.0000
 30
0.0000
  3
ANNULUSV
  0
POLYLINE
  8
0
 66
1
 10
0.0000
 20
0.0000
 30
0.0000
 40
0.5000
 41
0.5000
 70
0
  0
VERTEX
  8
0
 10
0.0000
 20
-0.2500
 30
0.0000
 42
1.0000
  0
VERTEX
  8
0
 10
0.0000
 20
0.2500
 30
0.0000
 42
1.0000
  0
VERTEX
  8
0
 10
0.0000
 20
-0.2500
 30
0.0000
  0
SEQEND
  8
0
  0
ENDBLK
  8
0
  0
BLOCK
  8
0
  2
THERMALV
 70
64
 10
0.0000
 20
0.0000
 30
0.0000
  3
THERMALV
  0
POLYLINE
  8
0
 66
1
 10
0.0000
 20
0.0000
 30
0.0000
 40
0.1000
 41
0.1000
 70
0
  0
VERTEX
  8
0
 10
-0.2379
 20
0.4500
 30
0.0000
  0
VERTEX
  8
0
 10
0.2379
 20
0.4500
 30
0.0000
  0
SEQEND
  8
0
  0
POLYLINE
  8
0
 66
1
 10
0.0000
 20
0.0000
 30
0.0000
 40
0.0500
 41
0.0500
 70
0
  0
VERTEX
  8
0
 10
0.2379
 20
0.4250
 30
0.0000
 42
1.0000
  0
VERTEX
  8
0
 10
0.2379
 20
0.4750
 30
0.0000
  0
SEQEND
  8
0
  0
POLYLINE
  8
0
 66
1
 10
0.0000
 20
0.0000
 30
0.0000
 40
0.0500
 41
0.0500
 70
0
  0
VERTEX
  8
0
 10
-0.2379
 20
0.4750
 30
0.0000
 42
1.0000
  0
VERTEX
  8
0
 10
-0.2379
 20
0.4250
 30
0.0000
  0
SEQEND
  8
0
  0
POLYLINE
  8
0
 66
1
 10
0.0000
 20
0.0000
 30
0.0000
 40
0.1000
 41
0.1000
 70
0
  0
VERTEX
  8
0
 10
0.4500
 20
0.2379
 30
0.0000
  0
VERTEX
  8
0
 10
0.4500
 20
-0.2379
 30
0.0000
  0
SEQEND
  8
0
  0
POLYLINE
  8
0
 66
1
 10
0.0000
 20
0.0000
 30
0.0000
 40
0.0500
 41
0.0500
 70
0
  0
VERTEX
  8
0
 10
0.4250
 20
-0.2379
 30
0.0000
 42
1.0000
  0
VERTEX
  8
0
 10
0.4750
 20
-0.2379
 30
0.0000
  0
SEQEND
  8
0
  0
POLYLINE
  8
0
 66
1
 10
0.0000
 20
0.0000
 30
0.0000
 40
0.0500
 41
0.0500
 70
0
  0
VERTEX
  8
0
 10
0.4750
 20
0.2379
 30
0.0000
 42
1.0000
  0
VERTEX
  8
0
 10
0.4250
 20
0.2379
 30
0.0000
  0
SEQEND
  8
0
  0
POLYLINE
  8
0
 66
1
 10
0.0000
 20
0.0000
 30
0.0000
 40
0.1000
 41
0.1000
 70
0
  0
VERTEX
  8
0
 10
0.2379
 20
-0.4500
 30
0.0000
  0
VERTEX
  8
0
 10
-0.2379
 20
-0.4500
 30
0.0000
  0
SEQEND
  8
0
  0
POLYLINE
  8
0
 66
1
 10
0.0000
 20
0.0000
 30
0.0000
 40
0.0500
 41
0.0500
 70
0
  0
VERTEX
  8
0
 10
-0.2379
 20
-0.4250
 30
0.0000
 42
1.0000
  0
VERTEX
  8
0
 10
-0.2379
 20
-0.4750
 30
0.0000
  0
SEQEND
  8
0
  0
POLYLINE
  8
0
 66
1
 10
0.0000
 20
0.0000
 30
0.0000
 40
0.0500
 41
0.0500
 70
0
  0
VERTEX
  8
0
 10
0.2379
 20
-0.4750
 30
0.0000
 42
1.0000
  0
VERTEX
  8
0
 10
0.2379
 20
-0.4250
 30
0.0000
  0
SEQEND
  8
0
  0
POLYLINE
  8
0
 66
1
 10
0.0000
 20
0.0000
 30
0.0000
 40
0.1000
 41
0.1000
 70
0
  0
VERTEX
  8
0
 10
-0.4500
 20
-0.2379
 30
0.0000
  0
VERTEX
  8
0
 10
-0.4500
 20
0.2379
 30
0.0000
  0
SEQEND
  8
0
  0
POLYLINE
  8
0
 66
1
 10
0.0000
 20
0.0000
 30
0.0000
 40
0.0500
 41
0.0500
 70
0
  0
VERTEX
  8
0
 10
-0.4250
 20
0.2379
 30
0.0000
 42
1.0000
  0
VERTEX
  8
0
 10
-0.4750
 20
0.2379
 30
0.0000
  0
SEQEND
  8
0
  0
POLYLINE
  8
0
 66
1
 10
0.0000
 20
0.0000
 30
0.0000
 40
0.0500
 41
0.0500
 70
0
  0
VERTEX
  8
0
 10
-0.4750
 20
-0.2379
 30
0.0000
 42
1.0000
  0
VERTEX
  8
0
 10
-0.4250
 20
-0.2379
 30
0.0000
  0
SEQEND
  8
0
  0
ENDBLK
  8
0
  0
BLOCK
  8
0
  2
RECT3500X1500R50
 70
64
 10
0.0000
 20
0.0000
 30
0.0000
  3
RECT3500X1500R50
  0
POLYLINE
  8
0
 66
1
 10
0.0000
 20
0.0000
 30
0.0000
 40
0.0750
 41
0.0750
 70
1
  0
VERTEX
  8
0
 10
0.3125
 20
-0.0750
 30
0.0000
  0
VERTEX
  8
0
 10
0.3125
 20
0.0750
 30
0.0000
 42
0.4142
  0
VERTEX
  8
0
 10
0.2750
 20
0.1125
 30
0.0000
  0
VERTEX
  8
0
 10
-0.2750
 20
0.1125
 30
0.0000
 42
0.4142
  0
VERTEX
  8
0
 10
-0.3125
 20
0.0750
 30
0.0000
  0
VERTEX
  8
0
 10
-0.3125
 20
-0.0750
 30
0.0000
 42
0.4142
  0
VERTEX
  8
0
 10
-0.2750
 20
-0.1125
 30
0.0000
  0
VERTEX
  8
0
 10
0.2750
 20
-0.1125
 30
0.0000
 42
0.4142
  0
SEQEND
  8
0
  0
SOLID
  8
0
 10
-0.2937
 20
-0.0937
 30
0.0000
 11
0.2937
 21
-0.0937
 31
0.0000
 12
-0.2937
 22
0.0937
 32
0.0000
 13
0.2937
 23
0.0937
 33
0.0000
  0
ENDBLK
  8
0
  0
BLOCK
  8
0
  2
RECT1500X3500R50
 70
64
 10
0.0000
 20
0.0000
 30
0.0000
  3
RECT1500X3500R50
  0
POLYLINE
  8
0
 66
1
 10
0.0000
 20
0.0000
 30
0.0000
 40
0.0750
 41
0.0750
 70
1
  0
VERTEX
  8
0
 10
0.1125
 20
-0.2750
 30
0.0000
  0
VERTEX
  8
0
 10
0.1125
 20
0.2750
 30
0.0000
 42
0.4142
  0
VERTEX
  8
0
 10
0.0750
 20
0.3125
 30
0.0000
  0
VERTEX
  8
0
 10
-0.0750
 20
0.3125
 30
0.0000
 42
0.4142
  0
VERTEX
  8
0
 10
-0.1125
 20
0.2750
 30
0.0000
  0
VERTEX
  8
0
 10
-0.1125
 20
-0.2750
 30
0.0000
 42
0.4142
  0
VERTEX
  8
0
 10
-0.0750
 20
-0.3125
 30
0.0000
  0
VERTEX
  8
0
 10
0.0750
 20
-0.3125
 30
0.0000
 42
0.4142
  0
SEQEND
  8
0
  0
SOLID
  8
0
 10
-0.0937
 20
-0.2937
 30
0.0000
 11
0.0937
 21
-0.2937
 31
0.0000
 12
-0.0937
 22
0.2937
 32
0.0000
 13
0.0937
 23
0.2937
 33
0.0000
  0
ENDBLK
  8
0
  0
BLOCK
  8
0
  2
RECT0X0R100
 70
64
 10
0.0000
 20
0.0000
 30
0.0000
  3
RECT0X0R100
  0
POLYLINE
  8
0
 66
1
 10
0.0000
 20
0.0000
 30
0.0000
 40
0.0000
 41
0.0000
 70
1
  0
VERTEX
  8
0
 10
0.0000
 20
0.0000
 30
0.0000
  0
VERTEX
  8
0
 10
0.0000
 20
0.0000
 30
0.0000
 42
0.4142
  0
VERTEX
  8
0
 10
0.0000
 20
0.0000
 30
0.0000
  0
VERTEX
  8
0
 10
0.0000
 20
0.0000
 30
0.0000
 42
0.4142
  0
VERTEX
  8
0
 10
0.0000
 20
0.0000
 30
0.0000
  0
VERTEX
  8
0
 10
0.0000
 20
0.0000
 30
0.0000
 42
0.4142
  0
VERTEX
  8
0
 10
0.0000
 20
0.0000
 30
0.0000
  0
VERTEX
  8
0
 10
0.0000
 20
0.0000
 30
0.0000
 42
0.4142
  0
SEQEND
  8
0
  0
SOLID
  8
0
 10
0.0000
 20
0.0000
 30
0.0000
 11
0.0000
 21
0.0000
 31
0.0000
 12
0.0000
 22
0.0000
 32
0.0000
 13
0.0000
 23
0.0000
 33
0.0000
  0
ENDBLK
  8
0
  0
ENDSEC
  0
SECTION
  2
ENTITIES
  0
INSERT
  8
31
  2
RECT
 10
7.5432
 20
26.8127
 30
0.0000
 41
1.1000
 42
1.0000
 43
1.0000
 50
0.0000
  0
INSERT
  8
31
  2
RECT
 10
9.2432
 20
26.8127
 30
0.0000
 41
1.1000
 42
1.0000
 43
1.0000
 50
0.0000
  0
INSERT
  8
31
  2
RECT
 10
7.7783
 20
25.3238
 30
0.0000
 41
0.7000
 42
0.9000
 43
1.0000
 50
0.0000
  0
INSERT
  8
31
  2
RECT
 10
9.0783
 20
25.3238
 30
0.0000
 41
0.7000
 42
0.9000
 43
1.0000
 50
0.0000
  0
INSERT
  8
31
  2
RECT
 10
7.5080
 20
23.7998
 30
0.0000
 41
1.1000
 42
1.0000
 43
1.0000
 50
0.0000
  0
INSERT
  8
31
  2
RECT
 10
9.2080
 20
23.7998
 30
0.0000
 41
1.1000
 42
1.0000
 43
1.0000
 50
0.0000
  0
INSERT
  8
31
  2
RECT
 10
7.5170
 20
15.4079
 30
0.0000
 41
0.7000
 42
0.9000
 43
1.0000
 50
0.0000
  0
INSERT
  8
31
  2
RECT
 10
8.8170
 20
15.4079
 30
0.0000
 41
0.7000
 42
0.9000
 43
1.0000
 50
0.0000
  0
INSERT
  8
31
  2
RECT
 10
8.7454
 20
21.9119
 30
0.0000
 41
1.1000
 42
1.0000
 43
1.0000
 50
270.0000
  0
INSERT
  8
31
  2
RECT
 10
8.7454
 20
20.2119
 30
0.0000
 41
1.1000
 42
1.0000
 43
1.0000
 50
270.0000
  0
INSERT
  8
31
  2
RECT
 10
7.5752
 20
18.9559
 30
0.0000
 41
0.7000
 42
0.9000
 43
1.0000
 50
0.0000
  0
INSERT
  8
31
  2
RECT
 10
8.8752
 20
18.9559
 30
0.0000
 41
0.7000
 42
0.9000
 43
1.0000
 50
0.0000
  0
INSERT
  8
31
  2
RECT
 10
5.5522
 20
19.0500
 30
0.0000
 41
0.7000
 42
0.9000
 43
1.0000
 50
180.0000
  0
INSERT
  8
31
  2
RECT
 10
4.2522
 20
19.0500
 30
0.0000
 41
0.7000
 42
0.9000
 43
1.0000
 50
180.0000
  0
INSERT
  8
31
  2
RECT
 10
7.2892
 20
12.7837
 30
0.0000
 41
1.1000
 42
1.0000
 43
1.0000
 50
0.0000
  0
INSERT
  8
31
  2
RECT
 10
8.9892
 20
12.7837
 30
0.0000
 41
1.1000
 42
1.0000
 43
1.0000
 50
0.0000
  0
INSERT
  8
31
  2
RECT
 10
9.0382
 20
11.3143
 30
0.0000
 41
1.1000
 42
1.0000
 43
1.0000
 50
180.0000
  0
INSERT
  8
31
  2
RECT
 10
7.3382
 20
11.3143
 30
0.0000
 41
1.1000
 42
1.0000
 43
1.0000
 50
180.0000
  0
INSERT
  8
31
  2
RECT
 10
7.3286
 20
9.8181
 30
0.0000
 41
1.1000
 42
1.0000
 43
1.0000
 50
0.0000
  0
INSERT
  8
31
  2
RECT
 10
9.0286
 20
9.8181
 30
0.0000
 41
1.1000
 42
1.0000
 43
1.0000
 50
0.0000
  0
INSERT
  8
31
  2
RECT
 10
3.7315
 20
20.4148
 30
0.0000
 41
1.5000
 42
1.2000
 43
1.0000
 50
180.0000
  0
INSERT
  8
31
  2
RECT
 10
6.6315
 20
20.4148
 30
0.0000
 41
1.5000
 42
1.2000
 43
1.0000
 50
180.0000
  0
INSERT
  8
31
  2
RECT3500X1500R50
 10
44.4557
 20
3.7676
 30
0.0000
 41
1.0000
 42
1.0000
 43
1.0000
 50
180.0000
  0
INSERT
  8
31
  2
RECT3500X1500R50
 10
44.4557
 20
4.2676
 30
0.0000
 41
1.0000
 42
1.0000
 43
1.0000
 50
180.0000
  0
INSERT
  8
31
  2
RECT3500X1500R50
 10
44.4557
 20
4.7676
 30
0.0000
 41
1.0000
 42
1.0000
 43
1.0000
 50
180.0000
  0
INSERT
  8
31
  2
RECT3500X1500R50
 10
44.4557
 20
5.2676
 30
0.0000
 41
1.0000
 42
1.0000
 43
1.0000
 50
180.0000
  0
INSERT
  8
31
  2
RECT3500X1500R50
 10
44.4557
 20
5.7676
 30
0.0000
 41
1.0000
 42
1.0000
 43
1.0000
 50
180.0000
  0
INSERT
  8
31
  2
RECT3500X1500R50
 10
44.4557
 20
6.2676
 30
0.0000
 41
1.0000
 42
1.0000
 43
1.0000
 50
180.0000
  0
INSERT
  8
31
  2
RECT3500X1500R50
 10
44.4557
 20
6.7676
 30
0.0000
 41
1.0000
 42
1.0000
 43
1.0000
 50
180.0000
  0
INSERT
  8
31
  2
RECT3500X1500R50
 10
44.4557
 20
7.2676
 30
0.0000
 41
1.0000
 42
1.0000
 43
1.0000
 50
180.0000
  0
INSERT
  8
31
  2
RECT1500X3500R50
 10
43.8557
 20
7.8676
 30
0.0000
 41
1.0000
 42
1.0000
 43
1.0000
 50
180.0000
  0
INSERT
  8
31
  2
RECT1500X3500R50
 10
43.3557
 20
7.8676
 30
0.0000
 41
1.0000
 42
1.0000
 43
1.0000
 50
180.0000
  0
INSERT
  8
31
  2
RECT1500X3500R50
 10
42.8557
 20
7.8676
 30
0.0000
 41
1.0000
 42
1.0000
 43
1.0000
 50
180.0000
  0
INSERT
  8
31
  2
RECT1500X3500R50
 10
42.3557
 20
7.8676
 30
0.0000
 41
1.0000
 42
1.0000
 43
1.0000
 50
180.0000
  0
INSERT
  8
31
  2
RECT1500X3500R50
 10
41.8557
 20
7.8676
 30
0.0000
 41
1.0000
 42
1.0000
 43
1.0000
 50
180.0000
  0
INSERT
  8
31
  2
RECT1500X3500R50
 10
41.3557
 20
7.8676
 30
0.0000
 41
1.0000
 42
1.0000
 43
1.0000
 50
180.0000
  0
INSERT
  8
31
  2
RECT1500X3500R50
 10
40.8557
 20
7.8676
 30
0.0000
 41
1.0000
 42
1.0000
 43
1.0000
 50
180.0000
  0
INSERT
  8
31
  2
RECT1500X3500R50
 10
40.3557
 20
7.8676
 30
0.0000
 41
1.0000
 42
1.0000
 43
1.0000
 50
180.0000
  0
INSERT
  8
31
  2
RECT3500X1500R50
 10
39.7557
 20
7.2676
 30
0.0000
 41
1.0000
 42
1.0000
 43
1.0000
 50
180.0000
  0
INSERT
  8
31
  2
RECT3500X1500R50
 10
39.7557
 20
6.7676
 30
0.0000
 41
1.0000
 42
1.0000
 43
1.0000
 50
180.0000
  0
INSERT
  8
31
  2
RECT3500X1500R50
 10
39.7557
 20
6.2676
 30
0.0000
 41
1.0000
 42
1.0000
 43
1.0000
 50
180.0000
  0
INSERT
  8
31
  2
RECT3500X1500R50
 10
39.7557
 20
5.7676
 30
0.0000
 41
1.0000
 42
1.0000
 43
1.0000
 50
180.0000
  0
INSERT
  8
31
  2
RECT3500X1500R50
 10
39.7557
 20
5.2676
 30
0.0000
 41
1.0000
 42
1.0000
 43
1.0000
 50
180.0000
  0
INSERT
  8
31
  2
RECT3500X1500R50
 10
39.7557
 20
4.7676
 30
0.0000
 41
1.0000
 42
1.0000
 43
1.0000
 50
180.0000
  0
INSERT
  8
31
  2
RECT3500X1500R50
 10
39.7557
 20
4.2676
 30
0.0000
 41
1.0000
 42
1.0000
 43
1.0000
 50
180.0000
  0
INSERT
  8
31
  2
RECT3500X1500R50
 10
39.7557
 20
3.7676
 30
0.0000
 41
1.0000
 42
1.0000
 43
1.0000
 50
180.0000
  0
INSERT
  8
31
  2
RECT1500X3500R50
 10
40.3557
 20
3.1676
 30
0.0000
 41
1.0000
 42
1.0000
 43
1.0000
 50
180.0000
  0
INSERT
  8
31
  2
RECT1500X3500R50
 10
40.8557
 20
3.1676
 30
0.0000
 41
1.0000
 42
1.0000
 43
1.0000
 50
180.0000
  0
INSERT
  8
31
  2
RECT1500X3500R50
 10
41.3557
 20
3.1676
 30
0.0000
 41
1.0000
 42
1.0000
 43
1.0000
 50
180.0000
  0
INSERT
  8
31
  2
RECT1500X3500R50
 10
41.8557
 20
3.1676
 30
0.0000
 41
1.0000
 42
1.0000
 43
1.0000
 50
180.0000
  0
INSERT
  8
31
  2
RECT1500X3500R50
 10
42.3557
 20
3.1676
 30
0.0000
 41
1.0000
 42
1.0000
 43
1.0000
 50
180.0000
  0
INSERT
  8
31
  2
RECT1500X3500R50
 10
42.8557
 20
3.1676
 30
0.0000
 41
1.0000
 42
1.0000
 43
1.0000
 50
180.0000
  0
INSERT
  8
31
  2
RECT1500X3500R50
 10
43.3557
 20
3.1676
 30
0.0000
 41
1.0000
 42
1.0000
 43
1.0000
 50
180.0000
  0
INSERT
  8
31
  2
RECT1500X3500R50
 10
43.8557
 20
3.1676
 30
0.0000
 41
1.0000
 42
1.0000
 43
1.0000
 50
180.0000
  0
INSERT
  8
31
  2
RECT
 10
3.4969
 20
26.5960
 30
0.0000
 41
6.3000
 42
2.1500
 43
1.0000
 50
0.0000
  0
INSERT
  8
31
  2
RECT
 10
3.4969
 20
22.4460
 30
0.0000
 41
6.3000
 42
2.1500
 43
1.0000
 50
0.0000
  0
INSERT
  8
31
  2
RECT
 10
8.9912
 20
1.0092
 30
0.0000
 41
0.8000
 42
0.8000
 43
1.0000
 50
90.0000
  0
INSERT
  8
31
  2
RECT
 10
7.4912
 20
1.0092
 30
0.0000
 41
0.8000
 42
0.8000
 43
1.0000
 50
90.0000
  0
INSERT
  8
31
  2
RECT
 10
0.8025
 20
17.9870
 30
0.0000
 41
0.9000
 42
1.2000
 43
1.0000
 50
0.0000
  0
INSERT
  8
31
  2
RECT
 10
2.7025
 20
17.9870
 30
0.0000
 41
0.9000
 42
1.2000
 43
1.0000
 50
0.0000
  0
INSERT
  8
31
  2
RECT
 10
1.7525
 20
20.3870
 30
0.0000
 41
0.9000
 42
1.2000
 43
1.0000
 50
0.0000
  0
INSERT
  8
31
  2
RECT
 10
5.8232
 20
1.1274
 30
0.0000
 41
0.7000
 42
0.9000
 43
1.0000
 50
90.0000
  0
INSERT
  8
31
  2
RECT
 10
5.8232
 20
2.4274
 30
0.0000
 41
0.7000
 42
0.9000
 43
1.0000
 50
90.0000
  0
INSERT
  8
31
  2
RECT
 10
42.3827
 20
0.9737
 30
0.0000
 41
0.7000
 42
0.9000
 43
1.0000
 50
180.0000
  0
INSERT
  8
31
  2
RECT
 10
41.0827
 20
0.9737
 30
0.0000
 41
0.7000
 42
0.9000
 43
1.0000
 50
180.0000
  0
INSERT
  8
31
  2
RECT
 10
8.7902
 20
14.2421
 30
0.0000
 41
0.7000
 42
0.9000
 43
1.0000
 50
180.0000
  0
INSERT
  8
31
  2
RECT
 10
7.4902
 20
14.2421
 30
0.0000
 41
0.7000
 42
0.9000
 43
1.0000
 50
180.0000
  0
INSERT
  8
31
  2
RECT
 10
7.5533
 20
16.6334
 30
0.0000
 41
0.7000
 42
0.9000
 43
1.0000
 50
0.0000
  0
INSERT
  8
31
  2
RECT
 10
8.8533
 20
16.6334
 30
0.0000
 41
0.7000
 42
0.9000
 43
1.0000
 50
0.0000
  0
INSERT
  8
31
  2
RECT
 10
5.5522
 20
17.8816
 30
0.0000
 41
0.7000
 42
0.9000
 43
1.0000
 50
180.0000
  0
INSERT
  8
31
  2
RECT
 10
4.2522
 20
17.8816
 30
0.0000
 41
0.7000
 42
0.9000
 43
1.0000
 50
180.0000
  0
INSERT
  8
31
  2
RECT
 10
7.5436
 20
8.2161
 30
0.0000
 41
0.7000
 42
0.9000
 43
1.0000
 50
0.0000
  0
INSERT
  8
31
  2
RECT
 10
8.8436
 20
8.2161
 30
0.0000
 41
0.7000
 42
0.9000
 43
1.0000
 50
0.0000
  0
INSERT
  8
31
  2
RECT
 10
7.5379
 20
7.0832
 30
0.0000
 41
0.7000
 42
0.9000
 43
1.0000
 50
0.0000
  0
INSERT
  8
31
  2
RECT
 10
8.8379
 20
7.0832
 30
0.0000
 41
0.7000
 42
0.9000
 43
1.0000
 50
0.0000
  0
INSERT
  8
31
  2
RECT
 10
8.8654
 20
17.8179
 30
0.0000
 41
0.7000
 42
0.9000
 43
1.0000
 50
180.0000
  0
INSERT
  8
31
  2
RECT
 10
7.5654
 20
17.8179
 30
0.0000
 41
0.7000
 42
0.9000
 43
1.0000
 50
180.0000
  0
INSERT
  8
31
  2
RECT
 10
42.8343
 20
12.0765
 30
0.0000
 41
0.8000
 42
1.5000
 43
1.0000
 50
0.0000
  0
INSERT
  8
31
  2
RECT
 10
41.7343
 20
12.0765
 30
0.0000
 41
0.8000
 42
1.5000
 43
1.0000
 50
0.0000
  0
INSERT
  8
31
  2
RECT
 10
40.6343
 20
12.0765
 30
0.0000
 41
0.8000
 42
1.5000
 43
1.0000
 50
0.0000
  0
INSERT
  8
31
  2
RECT
 10
39.5343
 20
12.0765
 30
0.0000
 41
0.8000
 42
1.5000
 43
1.0000
 50
0.0000
  0
INSERT
  8
31
  2
RECT
 10
38.4343
 20
12.0765
 30
0.0000
 41
0.8000
 42
1.5000
 43
1.0000
 50
0.0000
  0
INSERT
  8
31
  2
RECT
 10
37.3343
 20
12.0765
 30
0.0000
 41
0.8000
 42
1.5000
 43
1.0000
 50
0.0000
  0
INSERT
  8
31
  2
RECT
 10
36.2343
 20
12.0765
 30
0.0000
 41
0.8000
 42
1.5000
 43
1.0000
 50
0.0000
  0
INSERT
  8
31
  2
RECT
 10
35.1343
 20
12.0765
 30
0.0000
 41
0.8000
 42
1.5000
 43
1.0000
 50
0.0000
  0
INSERT
  8
31
  2
RECT
 10
33.1843
 20
26.8365
 30
0.0000
 41
1.7000
 42
1.5000
 43
1.0000
 50
0.0000
  0
INSERT
  8
31
  2
RECT
 10
46.6843
 20
26.8365
 30
0.0000
 41
1.7000
 42
1.5000
 43
1.0000
 50
0.0000
  0
INSERT
  8
31
  2
RECT
 10
33.1843
 20
20.9865
 30
0.0000
 41
1.7000
 42
1.5000
 43
1.0000
 50
0.0000
  0
INSERT
  8
31
  2
RECT
 10
46.3843
 20
11.8965
 30
0.0000
 41
1.7000
 42
1.5000
 43
1.0000
 50
0.0000
  0
INSERT
  8
31
  2
RECT
 10
33.5881
 20
11.7886
 30
0.0000
 41
1.5000
 42
1.5000
 43
1.0000
 50
0.0000
  0
INSERT
  8
31
  2
RECT
 10
16.4492
 20
21.7629
 30
0.0000
 41
1.5000
 42
0.3000
 43
1.0000
 50
0.0000
  0
INSERT
  8
31
  2
RECT
 10
16.4492
 20
21.1629
 30
0.0000
 41
1.5000
 42
0.3000
 43
1.0000
 50
0.0000
  0
INSERT
  8
31
  2
RECT
 10
16.4492
 20
20.5629
 30
0.0000
 41
1.5000
 42
0.3000
 43
1.0000
 50
0.0000
  0
INSERT
  8
31
  2
RECT
 10
16.4492
 20
19.9629
 30
0.0000
 41
1.5000
 42
0.3000
 43
1.0000
 50
0.0000
  0
INSERT
  8
31
  2
RECT
 10
16.4492
 20
19.3629
 30
0.0000
 41
1.5000
 42
0.3000
 43
1.0000
 50
0.0000
  0
INSERT
  8
31
  2
RECT
 10
16.4492
 20
18.7629
 30
0.0000
 41
1.5000
 42
0.3000
 43
1.0000
 50
0.0000
  0
INSERT
  8
31
  2
RECT
 10
16.4492
 20
18.1629
 30
0.0000
 41
1.5000
 42
0.3000
 43
1.0000
 50
0.0000
  0
INSERT
  8
31
  2
RECT
 10
16.4492
 20
17.5629
 30
0.0000
 41
1.5000
 42
0.3000
 43
1.0000
 50
0.0000
  0
INSERT
  8
31
  2
RECT
 10
16.4492
 20
16.9629
 30
0.0000
 41
1.5000
 42
0.3000
 43
1.0000
 50
0.0000
  0
INSERT
  8
31
  2
RECT
 10
16.4492
 20
16.3629
 30
0.0000
 41
1.5000
 42
0.3000
 43
1.0000
 50
0.0000
  0
INSERT
  8
31
  2
RECT
 10
16.4492
 20
15.7629
 30
0.0000
 41
1.5000
 42
0.3000
 43
1.0000
 50
0.0000
  0
INSERT
  8
31
  2
RECT
 10
16.4492
 20
15.1629
 30
0.0000
 41
1.5000
 42
0.3000
 43
1.0000
 50
0.0000
  0
INSERT
  8
31
  2
RECT
 10
16.4492
 20
14.5629
 30
0.0000
 41
1.5000
 42
0.3000
 43
1.0000
 50
0.0000
  0
INSERT
  8
31
  2
RECT
 10
16.4492
 20
13.9629
 30
0.0000
 41
1.5000
 42
0.3000
 43
1.0000
 50
0.0000
  0
INSERT
  8
31
  2
RECT
 10
16.4492
 20
13.3629
 30
0.0000
 41
1.5000
 42
0.3000
 43
1.0000
 50
0.0000
  0
INSERT
  8
31
  2
RECT
 10
16.4492
 20
12.7629
 30
0.0000
 41
1.5000
 42
0.3000
 43
1.0000
 50
0.0000
  0
INSERT
  8
31
  2
RECT
 10
16.4492
 20
12.1629
 30
0.0000
 41
1.5000
 42
0.3000
 43
1.0000
 50
0.0000
  0
INSERT
  8
31
  2
RECT
 10
16.4492
 20
11.5629
 30
0.0000
 41
1.5000
 42
0.3000
 43
1.0000
 50
0.0000
  0
INSERT
  8
31
  2
RECT
 10
16.4492
 20
10.9629
 30
0.0000
 41
1.5000
 42
0.3000
 43
1.0000
 50
0.0000
  0
INSERT
  8
31
  2
RECT
 10
16.4492
 20
10.3629
 30
0.0000
 41
1.5000
 42
0.3000
 43
1.0000
 50
0.0000
  0
INSERT
  8
31
  2
RECT
 10
16.4492
 20
9.7629
 30
0.0000
 41
1.5000
 42
0.3000
 43
1.0000
 50
0.0000
  0
INSERT
  8
31
  2
RECT
 10
16.4492
 20
9.1629
 30
0.0000
 41
1.5000
 42
0.3000
 43
1.0000
 50
0.0000
  0
INSERT
  8
31
  2
RECT
 10
16.4492
 20
8.5629
 30
0.0000
 41
1.5000
 42
0.3000
 43
1.0000
 50
0.0000
  0
INSERT
  8
31
  2
RECT
 10
16.4492
 20
7.9629
 30
0.0000
 41
1.5000
 42
0.3000
 43
1.0000
 50
0.0000
  0
INSERT
  8
31
  2
RECT
 10
16.4492
 20
7.3629
 30
0.0000
 41
1.5000
 42
0.3000
 43
1.0000
 50
0.0000
  0
INSERT
  8
31
  2
RECT
 10
16.4492
 20
6.7629
 30
0.0000
 41
1.5000
 42
0.3000
 43
1.0000
 50
0.0000
  0
INSERT
  8
31
  2
RECT
 10
16.4492
 20
6.1629
 30
0.0000
 41
1.5000
 42
0.3000
 43
1.0000
 50
0.0000
  0
INSERT
  8
31
  2
RECT
 10
7.2889
 20
2.9487
 30
0.0000
 41
0.5500
 42
1.2000
 43
1.0000
 50
0.0000
  0
INSERT
  8
31
  2
RECT
 10
8.2389
 20
2.9487
 30
0.0000
 41
0.5500
 42
1.2000
 43
1.0000
 50
0.0000
  0
INSERT
  8
31
  2
RECT
 10
9.1889
 20
2.9487
 30
0.0000
 41
0.5500
 42
1.2000
 43
1.0000
 50
0.0000
  0
INSERT
  8
31
  2
RECT
 10
9.1889
 20
5.5487
 30
0.0000
 41
0.5500
 42
1.2000
 43
1.0000
 50
0.0000
  0
INSERT
  8
31
  2
RECT
 10
7.2889
 20
5.5487
 30
0.0000
 41
0.5500
 42
1.2000
 43
1.0000
 50
0.0000
  0
INSERT
  8
31
  2
RECT
 10
4.0204
 20
6.7957
 30
0.0000
 41
0.4000
 42
1.4000
 43
1.0000
 50
270.0000
  0
INSERT
  8
31
  2
RECT
 10
4.0204
 20
6.1457
 30
0.0000
 41
0.4000
 42
1.4000
 43
1.0000
 50
270.0000
  0
INSERT
  8
31
  2
RECT
 10
4.0204
 20
5.4957
 30
0.0000
 41
0.4000
 42
1.4000
 43
1.0000
 50
270.0000
  0
INSERT
  8
31
  2
RECT
 10
4.0204
 20
4.8457
 30
0.0000
 41
0.4000
 42
1.4000
 43
1.0000
 50
270.0000
  0
INSERT
  8
31
  2
RECT
 10
4.0204
 20
4.1957
 30
0.0000
 41
0.4000
 42
1.4000
 43
1.0000
 50
270.0000
  0
INSERT
  8
31
  2
RECT
 10
1.3704
 20
1.5457
 30
0.0000
 41
1.9000
 42
1.9000
 43
1.0000
 50
270.0000
  0
INSERT
  8
31
  2
RECT
 10
1.3704
 20
9.4457
 30
0.0000
 41
1.9000
 42
1.9000
 43
1.0000
 50
270.0000
  0
INSERT
  8
31
  2
RECT
 10
1.3704
 20
6.6957
 30
0.0000
 41
1.9000
 42
1.9000
 43
1.0000
 50
270.0000
  0
INSERT
  8
31
  2
RECT
 10
1.3704
 20
4.2957
 30
0.0000
 41
1.9000
 42
1.9000
 43
1.0000
 50
270.0000
  0
ENDSEC
  0
EOF
