  0
SECTION
  2
HEADER
  9
$ACADVER
  1
AC1009
  9
$FILLMODE
 70
1
  9
$EXTMIN
 10
-1.5360
 20
-3.5584
 30
0.0000
  9
$EXTMAX
 10
49.7408
 20
29.9264
 30
0.0000
  0
ENDSEC
  0
SECTION
  2
TABLES
  0
TABLE
  2
LTYPE
 70
1
  0
LTYPE
  2
CONTINUOUS
 70
64
  3
Solid line
 72
65
 73
0
 40
0
  0
ENDTAB
  0
TABLE
  2
LAYER
 70
255
  0
LAYER
  2
30
 70
64
 62
251
  6
CONTINUOUS
  0
ENDTAB
  0
ENDSEC
  0
SECTION
  2
BLOCKS
  0
BLOCK
  8
0
  2
RECT
 70
64
 10
0.0000
 20
0.0000
 30
0.0000
  3
RECT
  0
SOLID
  8
0
 10
-0.5000
 20
-0.5000
 30
0.0000
 11
0.5000
 21
-0.5000
 31
0.0000
 12
-0.5000
 22
0.5000
 32
0.0000
 13
0.5000
 23
0.5000
 33
0.0000
  0
ENDBLK
  8
0
  0
BLOCK
  8
0
  2
PIE
 70
64
 10
0.0000
 20
0.0000
 30
0.0000
  3
PIE
  0
POLYLINE
  8
0
 66
1
 10
0.0000
 20
0.0000
 30
0.0000
 40
0.5000
 41
0.5000
 70
0
  0
VERTEX
  8
0
 10
0.0000
 20
-0.2500
 30
0.0000
 42
1.0000
  0
VERTEX
  8
0
 10
0.0000
 20
0.2500
 30
0.0000
 42
1.0000
  0
VERTEX
  8
0
 10
0.0000
 20
-0.2500
 30
0.0000
  0
SEQEND
  8
0
  0
ENDBLK
  8
0
  0
BLOCK
  8
0
  2
OCTAGONP
 70
64
 10
0.0000
 20
0.0000
 30
0.0000
  3
OCTAGONP
  0
POLYLINE
  8
0
 66
1
 10
0.0000
 20
0.0000
 30
0.0000
 40
0.5000
 41
0.5000
 70
0
  0
VERTEX
  8
0
 10
-0.2500
 20
-0.1036
 30
0.0000
  0
VERTEX
  8
0
 10
-0.2500
 20
0.1036
 30
0.0000
  0
VERTEX
  8
0
 10
-0.1036
 20
0.2500
 30
0.0000
  0
VERTEX
  8
0
 10
0.1036
 20
0.2500
 30
0.0000
  0
VERTEX
  8
0
 10
0.2500
 20
0.1036
 30
0.0000
  0
VERTEX
  8
0
 10
0.2500
 20
-0.1036
 30
0.0000
  0
VERTEX
  8
0
 10
0.1036
 20
-0.2500
 30
0.0000
  0
VERTEX
  8
0
 10
-0.1036
 20
-0.2500
 30
0.0000
  0
VERTEX
  8
0
 10
-0.2500
 20
-0.1036
 30
0.0000
  0
VERTEX
  8
0
 10
-0.2500
 20
0.1036
 30
0.0000
  0
SEQEND
  8
0
  0
ENDBLK
  8
0
  0
BLOCK
  8
0
  2
SQUAREP
 70
64
 10
0.0000
 20
0.0000
 30
0.0000
  3
SQUAREP
  0
SOLID
  8
0
 10
-0.5000
 20
-0.5000
 30
0.0000
 11
0.5000
 21
-0.5000
 31
0.0000
 12
-0.5000
 22
0.5000
 32
0.0000
 13
0.5000
 23
0.5000
 33
0.0000
  0
ENDBLK
  8
0
  0
BLOCK
  8
0
  2
ROUNDP
 70
64
 10
0.0000
 20
0.0000
 30
0.0000
  3
ROUNDP
  0
POLYLINE
  8
0
 66
1
 10
0.0000
 20
0.0000
 30
0.0000
 40
0.5000
 41
0.5000
 70
0
  0
VERTEX
  8
0
 10
0.0000
 20
-0.2500
 30
0.0000
 42
1.0000
  0
VERTEX
  8
0
 10
0.0000
 20
0.2500
 30
0.0000
 42
1.0000
  0
VERTEX
  8
0
 10
0.0000
 20
-0.2500
 30
0.0000
  0
SEQEND
  8
0
  0
ENDBLK
  8
0
  0
BLOCK
  8
0
  2
ANNULUSP
 70
64
 10
0.0000
 20
0.0000
 30
0.0000
  3
ANNULUSP
  0
POLYLINE
  8
0
 66
1
 10
0.0000
 20
0.0000
 30
0.0000
 40
0.5000
 41
0.5000
 70
0
  0
VERTEX
  8
0
 10
0.0000
 20
-0.2500
 30
0.0000
 42
1.0000
  0
VERTEX
  8
0
 10
0.0000
 20
0.2500
 30
0.0000
 42
1.0000
  0
VERTEX
  8
0
 10
0.0000
 20
-0.2500
 30
0.0000
  0
SEQEND
  8
0
  0
ENDBLK
  8
0
  0
BLOCK
  8
0
  2
THERMALP
 70
64
 10
0.0000
 20
0.0000
 30
0.0000
  3
THERMALP
  0
POLYLINE
  8
0
 66
1
 10
0.0000
 20
0.0000
 30
0.0000
 40
0.1000
 41
0.1000
 70
0
  0
VERTEX
  8
0
 10
-0.2379
 20
0.4500
 30
0.0000
  0
VERTEX
  8
0
 10
0.2379
 20
0.4500
 30
0.0000
  0
SEQEND
  8
0
  0
POLYLINE
  8
0
 66
1
 10
0.0000
 20
0.0000
 30
0.0000
 40
0.0500
 41
0.0500
 70
0
  0
VERTEX
  8
0
 10
0.2379
 20
0.4250
 30
0.0000
 42
1.0000
  0
VERTEX
  8
0
 10
0.2379
 20
0.4750
 30
0.0000
  0
SEQEND
  8
0
  0
POLYLINE
  8
0
 66
1
 10
0.0000
 20
0.0000
 30
0.0000
 40
0.0500
 41
0.0500
 70
0
  0
VERTEX
  8
0
 10
-0.2379
 20
0.4750
 30
0.0000
 42
1.0000
  0
VERTEX
  8
0
 10
-0.2379
 20
0.4250
 30
0.0000
  0
SEQEND
  8
0
  0
POLYLINE
  8
0
 66
1
 10
0.0000
 20
0.0000
 30
0.0000
 40
0.1000
 41
0.1000
 70
0
  0
VERTEX
  8
0
 10
0.4500
 20
0.2379
 30
0.0000
  0
VERTEX
  8
0
 10
0.4500
 20
-0.2379
 30
0.0000
  0
SEQEND
  8
0
  0
POLYLINE
  8
0
 66
1
 10
0.0000
 20
0.0000
 30
0.0000
 40
0.0500
 41
0.0500
 70
0
  0
VERTEX
  8
0
 10
0.4250
 20
-0.2379
 30
0.0000
 42
1.0000
  0
VERTEX
  8
0
 10
0.4750
 20
-0.2379
 30
0.0000
  0
SEQEND
  8
0
  0
POLYLINE
  8
0
 66
1
 10
0.0000
 20
0.0000
 30
0.0000
 40
0.0500
 41
0.0500
 70
0
  0
VERTEX
  8
0
 10
0.4750
 20
0.2379
 30
0.0000
 42
1.0000
  0
VERTEX
  8
0
 10
0.4250
 20
0.2379
 30
0.0000
  0
SEQEND
  8
0
  0
POLYLINE
  8
0
 66
1
 10
0.0000
 20
0.0000
 30
0.0000
 40
0.1000
 41
0.1000
 70
0
  0
VERTEX
  8
0
 10
0.2379
 20
-0.4500
 30
0.0000
  0
VERTEX
  8
0
 10
-0.2379
 20
-0.4500
 30
0.0000
  0
SEQEND
  8
0
  0
POLYLINE
  8
0
 66
1
 10
0.0000
 20
0.0000
 30
0.0000
 40
0.0500
 41
0.0500
 70
0
  0
VERTEX
  8
0
 10
-0.2379
 20
-0.4250
 30
0.0000
 42
1.0000
  0
VERTEX
  8
0
 10
-0.2379
 20
-0.4750
 30
0.0000
  0
SEQEND
  8
0
  0
POLYLINE
  8
0
 66
1
 10
0.0000
 20
0.0000
 30
0.0000
 40
0.0500
 41
0.0500
 70
0
  0
VERTEX
  8
0
 10
0.2379
 20
-0.4750
 30
0.0000
 42
1.0000
  0
VERTEX
  8
0
 10
0.2379
 20
-0.4250
 30
0.0000
  0
SEQEND
  8
0
  0
POLYLINE
  8
0
 66
1
 10
0.0000
 20
0.0000
 30
0.0000
 40
0.1000
 41
0.1000
 70
0
  0
VERTEX
  8
0
 10
-0.4500
 20
-0.2379
 30
0.0000
  0
VERTEX
  8
0
 10
-0.4500
 20
0.2379
 30
0.0000
  0
SEQEND
  8
0
  0
POLYLINE
  8
0
 66
1
 10
0.0000
 20
0.0000
 30
0.0000
 40
0.0500
 41
0.0500
 70
0
  0
VERTEX
  8
0
 10
-0.4250
 20
0.2379
 30
0.0000
 42
1.0000
  0
VERTEX
  8
0
 10
-0.4750
 20
0.2379
 30
0.0000
  0
SEQEND
  8
0
  0
POLYLINE
  8
0
 66
1
 10
0.0000
 20
0.0000
 30
0.0000
 40
0.0500
 41
0.0500
 70
0
  0
VERTEX
  8
0
 10
-0.4750
 20
-0.2379
 30
0.0000
 42
1.0000
  0
VERTEX
  8
0
 10
-0.4250
 20
-0.2379
 30
0.0000
  0
SEQEND
  8
0
  0
ENDBLK
  8
0
  0
BLOCK
  8
0
  2
OCTAGONV
 70
64
 10
0.0000
 20
0.0000
 30
0.0000
  3
OCTAGONV
  0
POLYLINE
  8
0
 66
1
 10
0.0000
 20
0.0000
 30
0.0000
 40
0.5000
 41
0.5000
 70
0
  0
VERTEX
  8
0
 10
-0.2500
 20
-0.1036
 30
0.0000
  0
VERTEX
  8
0
 10
-0.2500
 20
0.1036
 30
0.0000
  0
VERTEX
  8
0
 10
-0.1036
 20
0.2500
 30
0.0000
  0
VERTEX
  8
0
 10
0.1036
 20
0.2500
 30
0.0000
  0
VERTEX
  8
0
 10
0.2500
 20
0.1036
 30
0.0000
  0
VERTEX
  8
0
 10
0.2500
 20
-0.1036
 30
0.0000
  0
VERTEX
  8
0
 10
0.1036
 20
-0.2500
 30
0.0000
  0
VERTEX
  8
0
 10
-0.1036
 20
-0.2500
 30
0.0000
  0
VERTEX
  8
0
 10
-0.2500
 20
-0.1036
 30
0.0000
  0
VERTEX
  8
0
 10
-0.2500
 20
0.1036
 30
0.0000
  0
SEQEND
  8
0
  0
ENDBLK
  8
0
  0
BLOCK
  8
0
  2
SQUAREV
 70
64
 10
0.0000
 20
0.0000
 30
0.0000
  3
SQUAREV
  0
SOLID
  8
0
 10
-0.5000
 20
-0.5000
 30
0.0000
 11
0.5000
 21
-0.5000
 31
0.0000
 12
-0.5000
 22
0.5000
 32
0.0000
 13
0.5000
 23
0.5000
 33
0.0000
  0
ENDBLK
  8
0
  0
BLOCK
  8
0
  2
ROUNDV
 70
64
 10
0.0000
 20
0.0000
 30
0.0000
  3
ROUNDV
  0
POLYLINE
  8
0
 66
1
 10
0.0000
 20
0.0000
 30
0.0000
 40
0.5000
 41
0.5000
 70
0
  0
VERTEX
  8
0
 10
0.0000
 20
-0.2500
 30
0.0000
 42
1.0000
  0
VERTEX
  8
0
 10
0.0000
 20
0.2500
 30
0.0000
 42
1.0000
  0
VERTEX
  8
0
 10
0.0000
 20
-0.2500
 30
0.0000
  0
SEQEND
  8
0
  0
ENDBLK
  8
0
  0
BLOCK
  8
0
  2
ANNULUSV
 70
64
 10
0.0000
 20
0.0000
 30
0.0000
  3
ANNULUSV
  0
POLYLINE
  8
0
 66
1
 10
0.0000
 20
0.0000
 30
0.0000
 40
0.5000
 41
0.5000
 70
0
  0
VERTEX
  8
0
 10
0.0000
 20
-0.2500
 30
0.0000
 42
1.0000
  0
VERTEX
  8
0
 10
0.0000
 20
0.2500
 30
0.0000
 42
1.0000
  0
VERTEX
  8
0
 10
0.0000
 20
-0.2500
 30
0.0000
  0
SEQEND
  8
0
  0
ENDBLK
  8
0
  0
BLOCK
  8
0
  2
THERMALV
 70
64
 10
0.0000
 20
0.0000
 30
0.0000
  3
THERMALV
  0
POLYLINE
  8
0
 66
1
 10
0.0000
 20
0.0000
 30
0.0000
 40
0.1000
 41
0.1000
 70
0
  0
VERTEX
  8
0
 10
-0.2379
 20
0.4500
 30
0.0000
  0
VERTEX
  8
0
 10
0.2379
 20
0.4500
 30
0.0000
  0
SEQEND
  8
0
  0
POLYLINE
  8
0
 66
1
 10
0.0000
 20
0.0000
 30
0.0000
 40
0.0500
 41
0.0500
 70
0
  0
VERTEX
  8
0
 10
0.2379
 20
0.4250
 30
0.0000
 42
1.0000
  0
VERTEX
  8
0
 10
0.2379
 20
0.4750
 30
0.0000
  0
SEQEND
  8
0
  0
POLYLINE
  8
0
 66
1
 10
0.0000
 20
0.0000
 30
0.0000
 40
0.0500
 41
0.0500
 70
0
  0
VERTEX
  8
0
 10
-0.2379
 20
0.4750
 30
0.0000
 42
1.0000
  0
VERTEX
  8
0
 10
-0.2379
 20
0.4250
 30
0.0000
  0
SEQEND
  8
0
  0
POLYLINE
  8
0
 66
1
 10
0.0000
 20
0.0000
 30
0.0000
 40
0.1000
 41
0.1000
 70
0
  0
VERTEX
  8
0
 10
0.4500
 20
0.2379
 30
0.0000
  0
VERTEX
  8
0
 10
0.4500
 20
-0.2379
 30
0.0000
  0
SEQEND
  8
0
  0
POLYLINE
  8
0
 66
1
 10
0.0000
 20
0.0000
 30
0.0000
 40
0.0500
 41
0.0500
 70
0
  0
VERTEX
  8
0
 10
0.4250
 20
-0.2379
 30
0.0000
 42
1.0000
  0
VERTEX
  8
0
 10
0.4750
 20
-0.2379
 30
0.0000
  0
SEQEND
  8
0
  0
POLYLINE
  8
0
 66
1
 10
0.0000
 20
0.0000
 30
0.0000
 40
0.0500
 41
0.0500
 70
0
  0
VERTEX
  8
0
 10
0.4750
 20
0.2379
 30
0.0000
 42
1.0000
  0
VERTEX
  8
0
 10
0.4250
 20
0.2379
 30
0.0000
  0
SEQEND
  8
0
  0
POLYLINE
  8
0
 66
1
 10
0.0000
 20
0.0000
 30
0.0000
 40
0.1000
 41
0.1000
 70
0
  0
VERTEX
  8
0
 10
0.2379
 20
-0.4500
 30
0.0000
  0
VERTEX
  8
0
 10
-0.2379
 20
-0.4500
 30
0.0000
  0
SEQEND
  8
0
  0
POLYLINE
  8
0
 66
1
 10
0.0000
 20
0.0000
 30
0.0000
 40
0.0500
 41
0.0500
 70
0
  0
VERTEX
  8
0
 10
-0.2379
 20
-0.4250
 30
0.0000
 42
1.0000
  0
VERTEX
  8
0
 10
-0.2379
 20
-0.4750
 30
0.0000
  0
SEQEND
  8
0
  0
POLYLINE
  8
0
 66
1
 10
0.0000
 20
0.0000
 30
0.0000
 40
0.0500
 41
0.0500
 70
0
  0
VERTEX
  8
0
 10
0.2379
 20
-0.4750
 30
0.0000
 42
1.0000
  0
VERTEX
  8
0
 10
0.2379
 20
-0.4250
 30
0.0000
  0
SEQEND
  8
0
  0
POLYLINE
  8
0
 66
1
 10
0.0000
 20
0.0000
 30
0.0000
 40
0.1000
 41
0.1000
 70
0
  0
VERTEX
  8
0
 10
-0.4500
 20
-0.2379
 30
0.0000
  0
VERTEX
  8
0
 10
-0.4500
 20
0.2379
 30
0.0000
  0
SEQEND
  8
0
  0
POLYLINE
  8
0
 66
1
 10
0.0000
 20
0.0000
 30
0.0000
 40
0.0500
 41
0.0500
 70
0
  0
VERTEX
  8
0
 10
-0.4250
 20
0.2379
 30
0.0000
 42
1.0000
  0
VERTEX
  8
0
 10
-0.4750
 20
0.2379
 30
0.0000
  0
SEQEND
  8
0
  0
POLYLINE
  8
0
 66
1
 10
0.0000
 20
0.0000
 30
0.0000
 40
0.0500
 41
0.0500
 70
0
  0
VERTEX
  8
0
 10
-0.4750
 20
-0.2379
 30
0.0000
 42
1.0000
  0
VERTEX
  8
0
 10
-0.4250
 20
-0.2379
 30
0.0000
  0
SEQEND
  8
0
  0
ENDBLK
  8
0
  0
ENDSEC
  0
SECTION
  2
ENTITIES
  0
INSERT
  8
30
  2
RECT
 10
16.4115
 20
14.1130
 30
0.0000
 41
5.2832
 42
5.2832
 43
1.0000
 50
270.0000
  0
INSERT
  8
30
  2
RECT
 10
16.4115
 20
2.8735
 30
0.0000
 41
2.7432
 42
5.2832
 43
1.0000
 50
270.0000
  0
INSERT
  8
30
  2
RECT
 10
16.4115
 20
25.3525
 30
0.0000
 41
2.7432
 42
5.2832
 43
1.0000
 50
270.0000
  0
INSERT
  8
30
  2
RECT
 10
45.1806
 20
1.1732
 30
0.0000
 41
0.9032
 42
1.1032
 43
1.0000
 50
90.0000
  0
INSERT
  8
30
  2
RECT
 10
45.1806
 20
2.4732
 30
0.0000
 41
0.9032
 42
1.1032
 43
1.0000
 50
90.0000
  0
INSERT
  8
30
  2
RECT
 10
9.8663
 20
1.0472
 30
0.0000
 41
1.3032
 42
1.2032
 43
1.0000
 50
0.0000
  0
INSERT
  8
30
  2
RECT
 10
11.5663
 20
1.0472
 30
0.0000
 41
1.3032
 42
1.2032
 43
1.0000
 50
0.0000
  0
INSERT
  8
30
  2
RECT
 10
11.6072
 20
4.2722
 30
0.0000
 41
1.3032
 42
1.2032
 43
1.0000
 50
270.0000
  0
INSERT
  8
30
  2
RECT
 10
11.6072
 20
2.5722
 30
0.0000
 41
1.3032
 42
1.2032
 43
1.0000
 50
270.0000
  0
INSERT
  8
30
  2
RECT
 10
3.9915
 20
0.9821
 30
0.0000
 41
1.3032
 42
1.2032
 43
1.0000
 50
90.0000
  0
INSERT
  8
30
  2
RECT
 10
3.9915
 20
2.6821
 30
0.0000
 41
1.3032
 42
1.2032
 43
1.0000
 50
90.0000
  0
INSERT
  8
30
  2
RECT
 10
28.3120
 20
19.3605
 30
0.0000
 41
0.9032
 42
1.1032
 43
1.0000
 50
90.0000
  0
INSERT
  8
30
  2
RECT
 10
28.3120
 20
20.6605
 30
0.0000
 41
0.9032
 42
1.1032
 43
1.0000
 50
90.0000
  0
INSERT
  8
30
  2
RECT
 10
47.0062
 20
2.4979
 30
0.0000
 41
0.9032
 42
1.1032
 43
1.0000
 50
270.0000
  0
INSERT
  8
30
  2
RECT
 10
47.0062
 20
1.1979
 30
0.0000
 41
0.9032
 42
1.1032
 43
1.0000
 50
270.0000
  0
INSERT
  8
30
  2
RECT
 10
2.4182
 20
0.9891
 30
0.0000
 41
1.3032
 42
1.2032
 43
1.0000
 50
90.0000
  0
INSERT
  8
30
  2
RECT
 10
2.4182
 20
2.6891
 30
0.0000
 41
1.3032
 42
1.2032
 43
1.0000
 50
90.0000
  0
INSERT
  8
30
  2
RECT
 10
0.9852
 20
2.6316
 30
0.0000
 41
1.3032
 42
1.2032
 43
1.0000
 50
270.0000
  0
INSERT
  8
30
  2
RECT
 10
0.9852
 20
0.9316
 30
0.0000
 41
1.3032
 42
1.2032
 43
1.0000
 50
270.0000
  0
INSERT
  8
30
  2
RECT
 10
39.0862
 20
1.9220
 30
0.0000
 41
0.9032
 42
1.1032
 43
1.0000
 50
180.0000
  0
INSERT
  8
30
  2
RECT
 10
37.7862
 20
1.9220
 30
0.0000
 41
0.9032
 42
1.1032
 43
1.0000
 50
180.0000
  0
INSERT
  8
30
  2
RECT
 10
28.1465
 20
11.7028
 30
0.0000
 41
1.3032
 42
1.2032
 43
1.0000
 50
90.0000
  0
INSERT
  8
30
  2
RECT
 10
28.1465
 20
13.4028
 30
0.0000
 41
1.3032
 42
1.2032
 43
1.0000
 50
90.0000
  0
INSERT
  8
30
  2
RECT
 10
31.4352
 20
3.3585
 30
0.0000
 41
0.9032
 42
1.1032
 43
1.0000
 50
180.0000
  0
INSERT
  8
30
  2
RECT
 10
30.1352
 20
3.3585
 30
0.0000
 41
0.9032
 42
1.1032
 43
1.0000
 50
180.0000
  0
INSERT
  8
30
  2
RECT
 10
29.2131
 20
26.7416
 30
0.0000
 41
0.9032
 42
1.1032
 43
1.0000
 50
270.0000
  0
INSERT
  8
30
  2
RECT
 10
29.2131
 20
25.4416
 30
0.0000
 41
0.9032
 42
1.1032
 43
1.0000
 50
270.0000
  0
INSERT
  8
30
  2
RECT
 10
26.5192
 20
26.7820
 30
0.0000
 41
0.9032
 42
1.1032
 43
1.0000
 50
270.0000
  0
INSERT
  8
30
  2
RECT
 10
26.5192
 20
25.4820
 30
0.0000
 41
0.9032
 42
1.1032
 43
1.0000
 50
270.0000
  0
INSERT
  8
30
  2
RECT
 10
38.2299
 20
26.8032
 30
0.0000
 41
0.9032
 42
1.1032
 43
1.0000
 50
270.0000
  0
INSERT
  8
30
  2
RECT
 10
38.2299
 20
25.5032
 30
0.0000
 41
0.9032
 42
1.1032
 43
1.0000
 50
270.0000
  0
INSERT
  8
30
  2
RECT
 10
46.3927
 20
25.2875
 30
0.0000
 41
1.2032
 42
1.3032
 43
1.0000
 50
90.0000
  0
INSERT
  8
30
  2
RECT
 10
46.3927
 20
26.9875
 30
0.0000
 41
1.2032
 42
1.3032
 43
1.0000
 50
90.0000
  0
INSERT
  8
30
  2
RECT
 10
9.7692
 20
4.0757
 30
0.0000
 41
0.9032
 42
1.1032
 43
1.0000
 50
270.0000
  0
INSERT
  8
30
  2
RECT
 10
9.7692
 20
2.7757
 30
0.0000
 41
0.9032
 42
1.1032
 43
1.0000
 50
270.0000
  0
INSERT
  8
30
  2
RECT
 10
6.6450
 20
4.1669
 30
0.0000
 41
0.9032
 42
1.1032
 43
1.0000
 50
0.0000
  0
INSERT
  8
30
  2
RECT
 10
7.9450
 20
4.1669
 30
0.0000
 41
0.9032
 42
1.1032
 43
1.0000
 50
0.0000
  0
INSERT
  8
30
  2
RECT
 10
42.8381
 20
3.2905
 30
0.0000
 41
0.9032
 42
1.1032
 43
1.0000
 50
180.0000
  0
INSERT
  8
30
  2
RECT
 10
41.5381
 20
3.2905
 30
0.0000
 41
0.9032
 42
1.1032
 43
1.0000
 50
180.0000
  0
INSERT
  8
30
  2
RECT
 10
35.1793
 20
2.1265
 30
0.0000
 41
0.9032
 42
1.1032
 43
1.0000
 50
180.0000
  0
INSERT
  8
30
  2
RECT
 10
33.8793
 20
2.1265
 30
0.0000
 41
0.9032
 42
1.1032
 43
1.0000
 50
180.0000
  0
INSERT
  8
30
  2
RECT
 10
30.7507
 20
25.2219
 30
0.0000
 41
1.2032
 42
1.3032
 43
1.0000
 50
90.0000
  0
INSERT
  8
30
  2
RECT
 10
30.7507
 20
26.9219
 30
0.0000
 41
1.2032
 42
1.3032
 43
1.0000
 50
90.0000
  0
INSERT
  8
30
  2
RECT
 10
43.4077
 20
25.3274
 30
0.0000
 41
1.2032
 42
1.3032
 43
1.0000
 50
90.0000
  0
INSERT
  8
30
  2
RECT
 10
43.4077
 20
27.0274
 30
0.0000
 41
1.2032
 42
1.3032
 43
1.0000
 50
90.0000
  0
INSERT
  8
30
  2
RECT
 10
37.7300
 20
3.3494
 30
0.0000
 41
0.9032
 42
1.1032
 43
1.0000
 50
0.0000
  0
INSERT
  8
30
  2
RECT
 10
39.0300
 20
3.3494
 30
0.0000
 41
0.9032
 42
1.1032
 43
1.0000
 50
0.0000
  0
INSERT
  8
30
  2
RECT
 10
33.8976
 20
3.3562
 30
0.0000
 41
0.9032
 42
1.1032
 43
1.0000
 50
0.0000
  0
INSERT
  8
30
  2
RECT
 10
35.1976
 20
3.3562
 30
0.0000
 41
0.9032
 42
1.1032
 43
1.0000
 50
0.0000
  0
INSERT
  8
30
  2
RECT
 10
33.1161
 20
26.9794
 30
0.0000
 41
1.2032
 42
1.3032
 43
1.0000
 50
270.0000
  0
INSERT
  8
30
  2
RECT
 10
33.1161
 20
25.2794
 30
0.0000
 41
1.2032
 42
1.3032
 43
1.0000
 50
270.0000
  0
INSERT
  8
30
  2
RECT
 10
35.9192
 20
26.9955
 30
0.0000
 41
1.2032
 42
1.3032
 43
1.0000
 50
270.0000
  0
INSERT
  8
30
  2
RECT
 10
35.9192
 20
25.2955
 30
0.0000
 41
1.2032
 42
1.3032
 43
1.0000
 50
270.0000
  0
INSERT
  8
30
  2
RECT
 10
40.5291
 20
26.9788
 30
0.0000
 41
1.2032
 42
1.3032
 43
1.0000
 50
270.0000
  0
INSERT
  8
30
  2
RECT
 10
40.5291
 20
25.2788
 30
0.0000
 41
1.2032
 42
1.3032
 43
1.0000
 50
270.0000
  0
INSERT
  8
30
  2
RECT
 10
25.6265
 20
1.7788
 30
0.0000
 41
0.7032
 42
1.4032
 43
1.0000
 50
0.0000
  0
INSERT
  8
30
  2
RECT
 10
24.8265
 20
1.7788
 30
0.0000
 41
0.7032
 42
1.4032
 43
1.0000
 50
180.0000
  0
INSERT
  8
30
  2
RECT
 10
24.0265
 20
1.7788
 30
0.0000
 41
0.7032
 42
1.4032
 43
1.0000
 50
180.0000
  0
INSERT
  8
30
  2
RECT
 10
23.2265
 20
1.7788
 30
0.0000
 41
0.7032
 42
1.4032
 43
1.0000
 50
180.0000
  0
INSERT
  8
30
  2
RECT
 10
22.4265
 20
1.7788
 30
0.0000
 41
0.7032
 42
1.4032
 43
1.0000
 50
180.0000
  0
INSERT
  8
30
  2
RECT
 10
21.6265
 20
1.7788
 30
0.0000
 41
0.7032
 42
1.4032
 43
1.0000
 50
180.0000
  0
INSERT
  8
30
  2
RECT
 10
21.5265
 20
2.8788
 30
0.0000
 41
0.7032
 42
1.4032
 43
1.0000
 50
90.0000
  0
INSERT
  8
30
  2
RECT
 10
21.6265
 20
3.9788
 30
0.0000
 41
0.7032
 42
1.4032
 43
1.0000
 50
180.0000
  0
INSERT
  8
30
  2
RECT
 10
22.4265
 20
3.9788
 30
0.0000
 41
0.7032
 42
1.4032
 43
1.0000
 50
180.0000
  0
INSERT
  8
30
  2
RECT
 10
23.2265
 20
3.9788
 30
0.0000
 41
0.7032
 42
1.4032
 43
1.0000
 50
0.0000
  0
INSERT
  8
30
  2
RECT
 10
24.0265
 20
3.9788
 30
0.0000
 41
0.7032
 42
1.4032
 43
1.0000
 50
0.0000
  0
INSERT
  8
30
  2
RECT
 10
24.8265
 20
3.9788
 30
0.0000
 41
0.7032
 42
1.4032
 43
1.0000
 50
0.0000
  0
INSERT
  8
30
  2
RECT
 10
25.6265
 20
3.9788
 30
0.0000
 41
0.7032
 42
1.4032
 43
1.0000
 50
0.0000
  0
INSERT
  8
30
  2
RECT
 10
25.7265
 20
2.8788
 30
0.0000
 41
0.7032
 42
1.4032
 43
1.0000
 50
270.0000
  0
INSERT
  8
30
  2
RECT
 10
46.1630
 20
5.1882
 30
0.0000
 41
1.6032
 42
1.8532
 43
1.0000
 50
270.0000
  0
INSERT
  8
30
  2
RECT
 10
44.2599
 20
5.1882
 30
0.0000
 41
1.6032
 42
1.8532
 43
1.0000
 50
270.0000
  0
INSERT
  8
30
  2
RECT
 10
42.3576
 20
5.1872
 30
0.0000
 41
1.6032
 42
1.8532
 43
1.0000
 50
270.0000
  0
INSERT
  8
30
  2
RECT
 10
40.4449
 20
5.1872
 30
0.0000
 41
1.6032
 42
1.8532
 43
1.0000
 50
270.0000
  0
INSERT
  8
30
  2
RECT
 10
38.5507
 20
5.1899
 30
0.0000
 41
1.6032
 42
1.8532
 43
1.0000
 50
270.0000
  0
INSERT
  8
30
  2
RECT
 10
36.6439
 20
5.1857
 30
0.0000
 41
1.6032
 42
1.8532
 43
1.0000
 50
270.0000
  0
INSERT
  8
30
  2
RECT
 10
34.7438
 20
5.1872
 30
0.0000
 41
1.6032
 42
1.8532
 43
1.0000
 50
270.0000
  0
INSERT
  8
30
  2
RECT
 10
32.8415
 20
5.1874
 30
0.0000
 41
1.6032
 42
1.8532
 43
1.0000
 50
270.0000
  0
INSERT
  8
30
  2
RECT
 10
30.9512
 20
5.1862
 30
0.0000
 41
1.6032
 42
1.8532
 43
1.0000
 50
270.0000
  0
INSERT
  8
30
  2
RECT
 10
30.9384
 20
22.4768
 30
0.0000
 41
1.6032
 42
1.8532
 43
1.0000
 50
90.0000
  0
INSERT
  8
30
  2
RECT
 10
32.8415
 20
22.4768
 30
0.0000
 41
1.6032
 42
1.8532
 43
1.0000
 50
90.0000
  0
INSERT
  8
30
  2
RECT
 10
34.7438
 20
22.4778
 30
0.0000
 41
1.6032
 42
1.8532
 43
1.0000
 50
90.0000
  0
INSERT
  8
30
  2
RECT
 10
36.6565
 20
22.4778
 30
0.0000
 41
1.6032
 42
1.8532
 43
1.0000
 50
90.0000
  0
INSERT
  8
30
  2
RECT
 10
38.5507
 20
22.4751
 30
0.0000
 41
1.6032
 42
1.8532
 43
1.0000
 50
90.0000
  0
INSERT
  8
30
  2
RECT
 10
40.4575
 20
22.4793
 30
0.0000
 41
1.6032
 42
1.8532
 43
1.0000
 50
90.0000
  0
INSERT
  8
30
  2
RECT
 10
42.3576
 20
22.4778
 30
0.0000
 41
1.6032
 42
1.8532
 43
1.0000
 50
90.0000
  0
INSERT
  8
30
  2
RECT
 10
44.2599
 20
22.4776
 30
0.0000
 41
1.6032
 42
1.8532
 43
1.0000
 50
90.0000
  0
INSERT
  8
30
  2
RECT
 10
46.1502
 20
22.4788
 30
0.0000
 41
1.6032
 42
1.8532
 43
1.0000
 50
90.0000
  0
INSERT
  8
30
  2
RECT
 10
5.6756
 20
0.7521
 30
0.0000
 41
0.7532
 42
1.4032
 43
1.0000
 50
90.0000
  0
INSERT
  8
30
  2
RECT
 10
5.6756
 20
1.7021
 30
0.0000
 41
0.7532
 42
1.4032
 43
1.0000
 50
90.0000
  0
INSERT
  8
30
  2
RECT
 10
5.6756
 20
2.6521
 30
0.0000
 41
0.7532
 42
1.4032
 43
1.0000
 50
90.0000
  0
INSERT
  8
30
  2
RECT
 10
8.2758
 20
2.6521
 30
0.0000
 41
0.7532
 42
1.4032
 43
1.0000
 50
90.0000
  0
INSERT
  8
30
  2
RECT
 10
8.2758
 20
0.7521
 30
0.0000
 41
0.7532
 42
1.4032
 43
1.0000
 50
90.0000
  0
INSERT
  8
30
  2
OCTAGONV
 10
43.4340
 20
6.4008
 30
0.0000
 41
0.9144
 42
0.9144
 43
1.0000
 50
0.0000
  0
INSERT
  8
30
  2
OCTAGONV
 10
31.3944
 20
19.3548
 30
0.0000
 41
0.9144
 42
0.9144
 43
1.0000
 50
0.0000
  0
INSERT
  8
30
  2
OCTAGONV
 10
17.8308
 20
17.9832
 30
0.0000
 41
0.9144
 42
0.9144
 43
1.0000
 50
0.0000
  0
INSERT
  8
30
  2
OCTAGONV
 10
13.2588
 20
13.5636
 30
0.0000
 41
0.9144
 42
0.9144
 43
1.0000
 50
0.0000
  0
INSERT
  8
30
  2
OCTAGONV
 10
42.5196
 20
9.4488
 30
0.0000
 41
0.9144
 42
0.9144
 43
1.0000
 50
0.0000
  0
INSERT
  8
30
  2
OCTAGONV
 10
15.0876
 20
9.4488
 30
0.0000
 41
0.9144
 42
0.9144
 43
1.0000
 50
0.0000
  0
INSERT
  8
30
  2
OCTAGONV
 10
14.4780
 20
8.2296
 30
0.0000
 41
0.9144
 42
0.9144
 43
1.0000
 50
0.0000
  0
INSERT
  8
30
  2
OCTAGONV
 10
24.9936
 20
16.3068
 30
0.0000
 41
0.9144
 42
0.9144
 43
1.0000
 50
0.0000
  0
INSERT
  8
30
  2
OCTAGONV
 10
44.9580
 20
10.8204
 30
0.0000
 41
0.9144
 42
0.9144
 43
1.0000
 50
0.0000
  0
INSERT
  8
30
  2
OCTAGONV
 10
39.3192
 20
14.4780
 30
0.0000
 41
0.9144
 42
0.9144
 43
1.0000
 50
0.0000
  0
INSERT
  8
30
  2
OCTAGONV
 10
23.3172
 20
7.4676
 30
0.0000
 41
0.9144
 42
0.9144
 43
1.0000
 50
0.0000
  0
INSERT
  8
30
  2
OCTAGONV
 10
38.4048
 20
15.6972
 30
0.0000
 41
0.9144
 42
0.9144
 43
1.0000
 50
0.0000
  0
INSERT
  8
30
  2
OCTAGONV
 10
34.1376
 20
16.6116
 30
0.0000
 41
0.9144
 42
0.9144
 43
1.0000
 50
0.0000
  0
INSERT
  8
30
  2
OCTAGONV
 10
33.3756
 20
8.3820
 30
0.0000
 41
0.9144
 42
0.9144
 43
1.0000
 50
0.0000
  0
INSERT
  8
30
  2
OCTAGONV
 10
23.6220
 20
8.9916
 30
0.0000
 41
0.9144
 42
0.9144
 43
1.0000
 50
0.0000
  0
INSERT
  8
30
  2
OCTAGONV
 10
33.2232
 20
7.4676
 30
0.0000
 41
0.9144
 42
0.9144
 43
1.0000
 50
0.0000
  0
INSERT
  8
30
  2
OCTAGONV
 10
21.3360
 20
8.6868
 30
0.0000
 41
0.9144
 42
0.9144
 43
1.0000
 50
0.0000
  0
INSERT
  8
30
  2
OCTAGONV
 10
33.2232
 20
6.5532
 30
0.0000
 41
0.9144
 42
0.9144
 43
1.0000
 50
0.0000
  0
INSERT
  8
30
  2
OCTAGONV
 10
20.5740
 20
8.0772
 30
0.0000
 41
0.9144
 42
0.9144
 43
1.0000
 50
0.0000
  0
INSERT
  8
30
  2
OCTAGONV
 10
41.3004
 20
6.8580
 30
0.0000
 41
0.9144
 42
0.9144
 43
1.0000
 50
0.0000
  0
INSERT
  8
30
  2
OCTAGONV
 10
18.1356
 20
9.1440
 30
0.0000
 41
0.9144
 42
0.9144
 43
1.0000
 50
0.0000
  0
INSERT
  8
30
  2
OCTAGONV
 10
36.8808
 20
1.6764
 30
0.0000
 41
0.9144
 42
0.9144
 43
1.0000
 50
0.0000
  0
INSERT
  8
30
  2
OCTAGONV
 10
36.1188
 20
2.7432
 30
0.0000
 41
0.9144
 42
0.9144
 43
1.0000
 50
0.0000
  0
INSERT
  8
30
  2
OCTAGONV
 10
26.3652
 20
8.6868
 30
0.0000
 41
0.9144
 42
0.9144
 43
1.0000
 50
0.0000
  0
INSERT
  8
30
  2
OCTAGONV
 10
25.9080
 20
11.2776
 30
0.0000
 41
0.9144
 42
0.9144
 43
1.0000
 50
0.0000
  0
INSERT
  8
30
  2
OCTAGONV
 10
22.8600
 20
11.2776
 30
0.0000
 41
0.9144
 42
0.9144
 43
1.0000
 50
0.0000
  0
INSERT
  8
30
  2
OCTAGONV
 10
17.8308
 20
8.2296
 30
0.0000
 41
0.9144
 42
0.9144
 43
1.0000
 50
0.0000
  0
INSERT
  8
30
  2
OCTAGONV
 10
38.5572
 20
6.5532
 30
0.0000
 41
0.9144
 42
0.9144
 43
1.0000
 50
0.0000
  0
INSERT
  8
30
  2
OCTAGONV
 10
28.6512
 20
9.9060
 30
0.0000
 41
0.9144
 42
0.9144
 43
1.0000
 50
0.0000
  0
INSERT
  8
30
  2
OCTAGONV
 10
21.1836
 20
6.8580
 30
0.0000
 41
0.9144
 42
0.9144
 43
1.0000
 50
0.0000
  0
INSERT
  8
30
  2
OCTAGONV
 10
15.0876
 20
7.4676
 30
0.0000
 41
0.9144
 42
0.9144
 43
1.0000
 50
0.0000
  0
INSERT
  8
30
  2
OCTAGONV
 10
34.2900
 20
8.3820
 30
0.0000
 41
0.9144
 42
0.9144
 43
1.0000
 50
0.0000
  0
INSERT
  8
30
  2
OCTAGONV
 10
18.4404
 20
7.4676
 30
0.0000
 41
0.9144
 42
0.9144
 43
1.0000
 50
0.0000
  0
INSERT
  8
30
  2
OCTAGONV
 10
40.5384
 20
10.6680
 30
0.0000
 41
0.9144
 42
0.9144
 43
1.0000
 50
0.0000
  0
INSERT
  8
30
  2
OCTAGONV
 10
6.5532
 20
18.8976
 30
0.0000
 41
0.9144
 42
0.9144
 43
1.0000
 50
0.0000
  0
INSERT
  8
30
  2
OCTAGONV
 10
9.7536
 20
15.6972
 30
0.0000
 41
0.9144
 42
0.9144
 43
1.0000
 50
0.0000
  0
INSERT
  8
30
  2
OCTAGONV
 10
15.0876
 20
19.3548
 30
0.0000
 41
0.9144
 42
0.9144
 43
1.0000
 50
0.0000
  0
INSERT
  8
30
  2
OCTAGONV
 10
45.5676
 20
3.9624
 30
0.0000
 41
0.9144
 42
0.9144
 43
1.0000
 50
0.0000
  0
INSERT
  8
30
  2
OCTAGONV
 10
37.1856
 20
6.4008
 30
0.0000
 41
0.9144
 42
0.9144
 43
1.0000
 50
0.0000
  0
INSERT
  8
30
  2
OCTAGONV
 10
36.1188
 20
3.6576
 30
0.0000
 41
0.9144
 42
0.9144
 43
1.0000
 50
0.0000
  0
INSERT
  8
30
  2
OCTAGONV
 10
37.0332
 20
25.4508
 30
0.0000
 41
0.9144
 42
0.9144
 43
1.0000
 50
0.0000
  0
INSERT
  8
30
  2
OCTAGONV
 10
28.1940
 20
25.4508
 30
0.0000
 41
0.9144
 42
0.9144
 43
1.0000
 50
0.0000
  0
INSERT
  8
30
  2
OCTAGONV
 10
5.3340
 20
20.1168
 30
0.0000
 41
0.9144
 42
0.9144
 43
1.0000
 50
0.0000
  0
INSERT
  8
30
  2
OCTAGONV
 10
9.7536
 20
20.1168
 30
0.0000
 41
0.9144
 42
0.9144
 43
1.0000
 50
0.0000
  0
INSERT
  8
30
  2
OCTAGONV
 10
17.8308
 20
20.7264
 30
0.0000
 41
0.9144
 42
0.9144
 43
1.0000
 50
0.0000
  0
INSERT
  8
30
  2
OCTAGONV
 10
5.6388
 20
4.1148
 30
0.0000
 41
0.9144
 42
0.9144
 43
1.0000
 50
0.0000
  0
INSERT
  8
30
  2
OCTAGONV
 10
12.6492
 20
1.3716
 30
0.0000
 41
0.9144
 42
0.9144
 43
1.0000
 50
0.0000
  0
INSERT
  8
30
  2
OCTAGONV
 10
44.5008
 20
26.9748
 30
0.0000
 41
0.9144
 42
0.9144
 43
1.0000
 50
0.0000
  0
INSERT
  8
30
  2
OCTAGONV
 10
41.6052
 20
26.9748
 30
0.0000
 41
0.9144
 42
0.9144
 43
1.0000
 50
0.0000
  0
INSERT
  8
30
  2
OCTAGONV
 10
39.7764
 20
10.0584
 30
0.0000
 41
0.9144
 42
0.9144
 43
1.0000
 50
0.0000
  0
INSERT
  8
30
  2
OCTAGONV
 10
36.7284
 20
10.6680
 30
0.0000
 41
0.9144
 42
0.9144
 43
1.0000
 50
0.0000
  0
INSERT
  8
30
  2
OCTAGONV
 10
27.7368
 20
4.5720
 30
0.0000
 41
0.9144
 42
0.9144
 43
1.0000
 50
0.0000
  0
INSERT
  8
30
  2
OCTAGONV
 10
27.7368
 20
3.6576
 30
0.0000
 41
0.9144
 42
0.9144
 43
1.0000
 50
0.0000
  0
INSERT
  8
30
  2
OCTAGONV
 10
29.7180
 20
8.6868
 30
0.0000
 41
0.9144
 42
0.9144
 43
1.0000
 50
0.0000
  0
INSERT
  8
30
  2
OCTAGONV
 10
27.1272
 20
11.2776
 30
0.0000
 41
0.9144
 42
0.9144
 43
1.0000
 50
0.0000
  0
INSERT
  8
30
  2
OCTAGONV
 10
39.1668
 20
16.3068
 30
0.0000
 41
0.9144
 42
0.9144
 43
1.0000
 50
0.0000
  0
INSERT
  8
30
  2
OCTAGONV
 10
41.6052
 20
13.8684
 30
0.0000
 41
0.9144
 42
0.9144
 43
1.0000
 50
0.0000
  0
INSERT
  8
30
  2
OCTAGONV
 10
37.9476
 20
7.4676
 30
0.0000
 41
0.9144
 42
0.9144
 43
1.0000
 50
0.0000
  0
INSERT
  8
30
  2
OCTAGONV
 10
30.4800
 20
9.2964
 30
0.0000
 41
0.9144
 42
0.9144
 43
1.0000
 50
0.0000
  0
INSERT
  8
30
  2
OCTAGONV
 10
30.4800
 20
2.2860
 30
0.0000
 41
0.9144
 42
0.9144
 43
1.0000
 50
0.0000
  0
INSERT
  8
30
  2
OCTAGONV
 10
11.2776
 20
5.3340
 30
0.0000
 41
0.9144
 42
0.9144
 43
1.0000
 50
0.0000
  0
INSERT
  8
30
  2
OCTAGONV
 10
10.3632
 20
6.2484
 30
0.0000
 41
0.9144
 42
0.9144
 43
1.0000
 50
0.0000
  0
INSERT
  8
30
  2
OCTAGONV
 10
9.9060
 20
16.7640
 30
0.0000
 41
0.9144
 42
0.9144
 43
1.0000
 50
0.0000
  0
INSERT
  8
30
  2
OCTAGONV
 10
12.3444
 20
13.8684
 30
0.0000
 41
0.9144
 42
0.9144
 43
1.0000
 50
0.0000
  0
INSERT
  8
30
  2
OCTAGONV
 10
43.2816
 20
10.0584
 30
0.0000
 41
0.9144
 42
0.9144
 43
1.0000
 50
0.0000
  0
INSERT
  8
30
  2
OCTAGONV
 10
30.3276
 20
15.0876
 30
0.0000
 41
0.9144
 42
0.9144
 43
1.0000
 50
0.0000
  0
INSERT
  8
30
  2
OCTAGONV
 10
21.6408
 20
11.5824
 30
0.0000
 41
0.9144
 42
0.9144
 43
1.0000
 50
0.0000
  0
INSERT
  8
30
  2
OCTAGONV
 10
20.7264
 20
10.6680
 30
0.0000
 41
0.9144
 42
0.9144
 43
1.0000
 50
0.0000
  0
INSERT
  8
30
  2
OCTAGONV
 10
42.8244
 20
2.1336
 30
0.0000
 41
0.9144
 42
0.9144
 43
1.0000
 50
0.0000
  0
INSERT
  8
30
  2
OCTAGONV
 10
39.7764
 20
9.1440
 30
0.0000
 41
0.9144
 42
0.9144
 43
1.0000
 50
0.0000
  0
INSERT
  8
30
  2
OCTAGONV
 10
38.5572
 20
10.3632
 30
0.0000
 41
0.9144
 42
0.9144
 43
1.0000
 50
0.0000
  0
INSERT
  8
30
  2
OCTAGONV
 10
26.6700
 20
3.8100
 30
0.0000
 41
0.9144
 42
0.9144
 43
1.0000
 50
0.0000
  0
INSERT
  8
30
  2
OCTAGONV
 10
14.1732
 20
17.5260
 30
0.0000
 41
0.9144
 42
0.9144
 43
1.0000
 50
0.0000
  0
INSERT
  8
30
  2
OCTAGONV
 10
15.0876
 20
18.4404
 30
0.0000
 41
0.9144
 42
0.9144
 43
1.0000
 50
0.0000
  0
INSERT
  8
30
  2
OCTAGONV
 10
2.7432
 20
19.2024
 30
0.0000
 41
0.9144
 42
0.9144
 43
1.0000
 50
0.0000
  0
INSERT
  8
30
  2
OCTAGONV
 10
1.8288
 20
19.0500
 30
0.0000
 41
0.9144
 42
0.9144
 43
1.0000
 50
0.0000
  0
INSERT
  8
30
  2
OCTAGONV
 10
15.0876
 20
20.5740
 30
0.0000
 41
0.9144
 42
0.9144
 43
1.0000
 50
0.0000
  0
INSERT
  8
30
  2
OCTAGONV
 10
42.5196
 20
6.4008
 30
0.0000
 41
0.9144
 42
0.9144
 43
1.0000
 50
0.0000
  0
INSERT
  8
30
  2
OCTAGONV
 10
45.2628
 20
8.6868
 30
0.0000
 41
0.9144
 42
0.9144
 43
1.0000
 50
0.0000
  0
INSERT
  8
30
  2
OCTAGONV
 10
46.1772
 20
7.7724
 30
0.0000
 41
0.9144
 42
0.9144
 43
1.0000
 50
0.0000
  0
INSERT
  8
30
  2
OCTAGONV
 10
46.1772
 20
18.2880
 30
0.0000
 41
0.9144
 42
0.9144
 43
1.0000
 50
0.0000
  0
INSERT
  8
30
  2
OCTAGONV
 10
44.3484
 20
24.3840
 30
0.0000
 41
0.9144
 42
0.9144
 43
1.0000
 50
0.0000
  0
INSERT
  8
30
  2
OCTAGONV
 10
33.2232
 20
23.7744
 30
0.0000
 41
0.9144
 42
0.9144
 43
1.0000
 50
0.0000
  0
INSERT
  8
30
  2
OCTAGONV
 10
6.5532
 20
6.8580
 30
0.0000
 41
0.9144
 42
0.9144
 43
1.0000
 50
0.0000
  0
INSERT
  8
30
  2
OCTAGONV
 10
9.7536
 20
7.4676
 30
0.0000
 41
0.9144
 42
0.9144
 43
1.0000
 50
0.0000
  0
INSERT
  8
30
  2
OCTAGONV
 10
5.3340
 20
7.0104
 30
0.0000
 41
0.9144
 42
0.9144
 43
1.0000
 50
0.0000
  0
INSERT
  8
30
  2
OCTAGONV
 10
8.2296
 20
1.8288
 30
0.0000
 41
0.9144
 42
0.9144
 43
1.0000
 50
0.0000
  0
INSERT
  8
30
  2
OCTAGONV
 10
44.0436
 20
2.2860
 30
0.0000
 41
0.9144
 42
0.9144
 43
1.0000
 50
0.0000
  0
INSERT
  8
30
  2
OCTAGONV
 10
45.5676
 20
6.4008
 30
0.0000
 41
0.9144
 42
0.9144
 43
1.0000
 50
0.0000
  0
INSERT
  8
30
  2
OCTAGONV
 10
17.8308
 20
19.8120
 30
0.0000
 41
0.9144
 42
0.9144
 43
1.0000
 50
0.0000
  0
INSERT
  8
30
  2
OCTAGONV
 10
28.1940
 20
14.4780
 30
0.0000
 41
0.9144
 42
0.9144
 43
1.0000
 50
0.0000
  0
INSERT
  8
30
  2
OCTAGONV
 10
29.5656
 20
14.4780
 30
0.0000
 41
0.9144
 42
0.9144
 43
1.0000
 50
0.0000
  0
INSERT
  8
30
  2
OCTAGONV
 10
32.9184
 20
14.1732
 30
0.0000
 41
0.9144
 42
0.9144
 43
1.0000
 50
0.0000
  0
INSERT
  8
30
  2
OCTAGONV
 10
6.8580
 20
24.8412
 30
0.0000
 41
0.9144
 42
0.9144
 43
1.0000
 50
0.0000
  0
INSERT
  8
30
  2
OCTAGONV
 10
11.2776
 20
11.8872
 30
0.0000
 41
0.9144
 42
0.9144
 43
1.0000
 50
0.0000
  0
INSERT
  8
30
  2
OCTAGONV
 10
39.6240
 20
18.4404
 30
0.0000
 41
0.9144
 42
0.9144
 43
1.0000
 50
0.0000
  0
INSERT
  8
30
  2
OCTAGONV
 10
6.7056
 20
17.3736
 30
0.0000
 41
0.9144
 42
0.9144
 43
1.0000
 50
0.0000
  0
INSERT
  8
30
  2
OCTAGONV
 10
10.2108
 20
9.9060
 30
0.0000
 41
0.9144
 42
0.9144
 43
1.0000
 50
0.0000
  0
INSERT
  8
30
  2
OCTAGONV
 10
43.7388
 20
8.9916
 30
0.0000
 41
0.9144
 42
0.9144
 43
1.0000
 50
0.0000
  0
INSERT
  8
30
  2
OCTAGONV
 10
33.3756
 20
17.3736
 30
0.0000
 41
0.9144
 42
0.9144
 43
1.0000
 50
0.0000
  0
INSERT
  8
30
  2
OCTAGONV
 10
26.9748
 20
17.3736
 30
0.0000
 41
0.9144
 42
0.9144
 43
1.0000
 50
0.0000
  0
INSERT
  8
30
  2
OCTAGONV
 10
13.1064
 20
11.8872
 30
0.0000
 41
0.9144
 42
0.9144
 43
1.0000
 50
0.0000
  0
ENDSEC
  0
EOF
